<?xml version="1.0" encoding="UTF-8" standalone="no"?>
<!-- Created with Inkscape (http://www.inkscape.org/) -->

<svg
   xmlns:dc="http://purl.org/dc/elements/1.1/"
   xmlns:cc="http://creativecommons.org/ns#"
   xmlns:rdf="http://www.w3.org/1999/02/22-rdf-syntax-ns#"
   xmlns:svg="http://www.w3.org/2000/svg"
   xmlns="http://www.w3.org/2000/svg"
   xmlns:sodipodi="http://sodipodi.sourceforge.net/DTD/sodipodi-0.dtd"
   xmlns:inkscape="http://www.inkscape.org/namespaces/inkscape"
   width="210mm"
   height="297mm"
   viewBox="0 0 210 297"
   version="1.1"
   id="svg8"
   inkscape:version="0.92pre2 r"
   sodipodi:docname="swooshes.svg">
  <defs
     id="defs2" />
  <sodipodi:namedview
     id="base"
     pagecolor="#ffffff"
     bordercolor="#666666"
     borderopacity="1.0"
     inkscape:pageopacity="0.0"
     inkscape:pageshadow="2"
     inkscape:zoom="64"
     inkscape:cx="331.01463"
     inkscape:cy="504.66218"
     inkscape:document-units="mm"
     inkscape:current-layer="layer1"
     showgrid="false"
     inkscape:window-width="2560"
     inkscape:window-height="1413"
     inkscape:window-x="0"
     inkscape:window-y="27"
     inkscape:window-maximized="1"
     inkscape:snap-to-guides="false"
     inkscape:snap-grids="false"
     inkscape:snap-others="false"
     inkscape:object-nodes="false"
     inkscape:snap-nodes="false" />
  <metadata
     id="metadata5">
    <rdf:RDF>
      <cc:Work
         rdf:about="">
        <dc:format>image/svg+xml</dc:format>
        <dc:type
           rdf:resource="http://purl.org/dc/dcmitype/StillImage" />
        <dc:title />
      </cc:Work>
    </rdf:RDF>
  </metadata>
  <g
     inkscape:label="Layer 1"
     inkscape:groupmode="layer"
     id="layer1">
    <path
       style="fill:#000000;fill-opacity:1;fill-rule:nonzero;stroke:none;stroke-width:2.06375003;stroke-linecap:butt;stroke-linejoin:miter;stroke-miterlimit:4;stroke-dasharray:none;stroke-dashoffset:0;stroke-opacity:1"
       id="path4668"
       d="m 86.683693,158.12607 c 5.29e-4,-2.7e-4 0.0011,-5.3e-4 0.0016,-0.001 5.29e-4,-2.6e-4 0.0011,-7.9e-4 0.0019,-0.001 7.94e-4,-5.3e-4 0.0016,-7.9e-4 0.0021,-10e-4 7.94e-4,-5.3e-4 0.0016,-0.001 0.0026,-0.002 0.0011,-5.3e-4 0.0019,-0.001 0.003,-0.002 0.0011,-7.9e-4 0.0021,-0.001 0.0033,-0.002 0.0013,-7.9e-4 0.0026,-0.002 0.0038,-0.002 0.0013,-7.9e-4 0.0028,-0.002 0.0042,-0.003 0.0016,-10e-4 0.0031,-0.002 0.0047,-0.003 0.0016,-0.001 0.0034,-0.002 0.0051,-0.003 0.0019,-10e-4 0.0037,-0.002 0.0055,-0.003 0.0019,-0.001 0.0038,-0.002 0.0058,-0.003 0.0021,-10e-4 0.0041,-0.002 0.0061,-0.004 0.0021,-0.001 0.0043,-0.003 0.0065,-0.004 0.0021,-0.001 0.0045,-0.003 0.0067,-0.004 0.0024,-10e-4 0.0047,-0.003 0.007,-0.004 0.0024,-0.001 0.0049,-0.003 0.0074,-0.004 0.0026,-0.002 0.0051,-0.003 0.0077,-0.004 0.0026,-0.002 0.0053,-0.003 0.008,-0.004 0.0028,-0.002 0.0055,-0.003 0.0083,-0.005 0.0029,-0.002 0.0058,-0.003 0.0087,-0.005 0.003,-0.002 0.006,-0.003 0.009,-0.005 0.0031,-0.002 0.0063,-0.003 0.0094,-0.005 0.0033,-0.002 0.0065,-0.003 0.0098,-0.005 0.0034,-0.002 0.0069,-0.003 0.01027,-0.005 0.0036,-0.002 0.0071,-0.004 0.01074,-0.005 0.0037,-0.002 0.0075,-0.004 0.01122,-0.005 0.0039,-0.002 0.0078,-0.004 0.0117,-0.005 0.004,-0.002 0.008,-0.004 0.01209,-0.006 0.0042,-0.002 0.0083,-0.004 0.01249,-0.005 0.0043,-0.002 0.0085,-0.004 0.01283,-0.005 0.0044,-0.002 0.0088,-0.004 0.01312,-0.005 0.0044,-0.002 0.0089,-0.004 0.01336,-0.005 0.0045,-0.002 0.0091,-0.003 0.01365,-0.005 0.0046,-0.002 0.0093,-0.003 0.01394,-0.005 0.0047,-0.002 0.0094,-0.003 0.01413,-0.005 0.0048,-0.002 0.0096,-0.003 0.01442,-0.005 0.0048,-0.002 0.0097,-0.003 0.01452,-0.004 0.0049,-0.001 0.0098,-0.003 0.01471,-0.004 0.005,-0.001 0.01,-0.002 0.01503,-0.004 0.0051,-10e-4 0.01021,-0.002 0.01535,-0.003 0.0052,-7.9e-4 0.01048,-0.002 0.01572,-0.002 0.0054,-8e-4 0.01077,-0.001 0.01617,-0.002 0.0055,-5.3e-4 0.01109,-7.9e-4 0.01664,-7.9e-4 0.0057,-1.7e-4 0.0114,-1.9e-4 0.01712,-1.1e-4 0.0059,7e-5 0.01175,2.6e-4 0.01762,5.3e-4 0.0061,2.6e-4 0.01209,7.9e-4 0.01815,0.001 0.0062,5.3e-4 0.01246,10e-4 0.01865,0.002 0.0064,7.9e-4 0.01278,0.002 0.01913,0.003 0.0065,0.001 0.01307,0.002 0.01958,0.004 0.0067,0.001 0.01331,0.003 0.01995,0.004 0.0068,0.002 0.01355,0.003 0.02032,0.005 0.0069,0.002 0.01371,0.004 0.02056,0.005 0.0069,0.002 0.01381,0.004 0.02069,0.006 0.0069,0.002 0.01384,0.004 0.02072,0.006 0.0069,0.002 0.01384,0.004 0.02074,0.007 0.0069,0.002 0.01384,0.005 0.02072,0.007 0.0069,0.002 0.01376,0.005 0.02064,0.007 0.0069,0.002 0.01371,0.005 0.02053,0.008 0.0068,0.003 0.01365,0.005 0.02048,0.008 0.0068,0.003 0.0136,0.005 0.0204,0.008 0.0068,0.003 0.01355,0.005 0.02032,0.008 0.0068,0.003 0.01352,0.005 0.02027,0.008 0.0067,0.003 0.01347,0.005 0.02021,0.008 0.0067,0.003 0.01347,0.005 0.02021,0.008 0.0067,0.003 0.01352,0.005 0.02029,0.008 0.0068,0.003 0.0136,0.005 0.02043,0.008 0.0069,0.003 0.01376,0.005 0.02064,0.008 0.007,0.002 0.01392,0.005 0.0209,0.007 0.0071,0.002 0.01413,0.005 0.02122,0.007 0.0072,0.002 0.01434,0.005 0.02154,0.007 0.0073,0.002 0.01463,0.004 0.02196,0.007 0.0074,0.002 0.01492,0.004 0.02241,0.006 0.0076,0.002 0.01527,0.004 0.02294,0.006 0.0078,0.002 0.01561,0.004 0.02344,0.006 0.008,0.002 0.01598,0.003 0.024,0.005 0.0081,0.002 0.01635,0.003 0.02453,0.005 0.0083,0.002 0.01672,0.003 0.02508,0.004 0.0085,10e-4 0.01704,0.002 0.02561,0.003 0.0087,0.001 0.01738,0.002 0.02609,0.003 0.0089,8e-4 0.01773,10e-4 0.0266,0.002 0.009,5.3e-4 0.01805,7.9e-4 0.02706,0.001 0.0092,2.2e-4 0.01834,2.2e-4 0.0275,1.4e-4 0.0093,-1e-4 0.01857,-2.6e-4 0.02783,-7.9e-4 0.0094,-5.3e-4 0.01876,-10e-4 0.02812,-0.002 0.0095,-8e-4 0.01892,-0.002 0.02835,-0.003 0.0095,-0.001 0.01902,-0.002 0.0285,-0.003 0.0096,-0.001 0.01913,-0.003 0.02864,-0.004 0.0096,-0.002 0.01918,-0.003 0.02872,-0.005 0.0096,-0.002 0.01921,-0.004 0.02876,-0.006 0.0096,-0.002 0.01921,-0.005 0.02874,-0.007 0.0096,-0.003 0.01916,-0.005 0.02868,-0.008 0.0096,-0.003 0.0191,-0.006 0.0286,-0.009 0.0095,-0.003 0.019,-0.007 0.02843,-0.0101 0.0094,-0.003 0.01884,-0.007 0.02822,-0.0108 0.0093,-0.004 0.01865,-0.007 0.02792,-0.0114 0.0092,-0.004 0.01839,-0.008 0.02756,-0.0118 0.0091,-0.004 0.01815,-0.008 0.02718,-0.0121 0.0089,-0.004 0.01786,-0.008 0.02674,-0.0123 0.0088,-0.004 0.01752,-0.008 0.02625,-0.0125 0.0086,-0.004 0.0172,-0.008 0.02577,-0.0125 0.0084,-0.004 0.01675,-0.008 0.02511,-0.0126 0.0055,-0.003 0.0028,-0.001 0.0082,-0.004 0,0 -0.217935,0.14153 -0.217935,0.14153 v 0 c -0.0055,0.003 -0.0028,0.001 -0.0082,0.004 -0.0084,0.004 -0.01672,0.008 -0.02511,0.0126 -0.0086,0.004 -0.01714,0.008 -0.02577,0.0126 -0.0087,0.004 -0.01746,0.008 -0.02625,0.0125 -0.0089,0.004 -0.01778,0.008 -0.02674,0.0124 -0.009,0.004 -0.01807,0.008 -0.02719,0.0121 -0.0092,0.004 -0.01834,0.008 -0.02756,0.0118 -0.0093,0.004 -0.01857,0.008 -0.02792,0.0113 -0.0094,0.004 -0.01876,0.007 -0.02822,0.0108 -0.0094,0.003 -0.01892,0.007 -0.02843,0.0101 -0.0095,0.003 -0.01902,0.006 -0.0286,0.009 -0.0095,0.003 -0.01908,0.006 -0.02868,0.008 -0.0096,0.003 -0.0191,0.005 -0.02874,0.007 -0.0096,0.002 -0.01913,0.005 -0.02876,0.006 -0.0096,0.002 -0.0191,0.004 -0.02872,0.005 -0.0095,0.002 -0.01908,0.003 -0.02864,0.004 -0.0095,0.001 -0.019,0.002 -0.0285,0.003 -0.0094,10e-4 -0.01889,0.002 -0.02835,0.003 -0.0094,7.9e-4 -0.01873,0.001 -0.02812,0.002 -0.0093,2.7e-4 -0.01855,5.3e-4 -0.02783,8e-4 -0.0092,8e-5 -0.01834,8e-5 -0.0275,-1.4e-4 -0.009,-2.1e-4 -0.01805,-5.3e-4 -0.02706,-0.001 -0.0089,-5.3e-4 -0.01775,-10e-4 -0.0266,-0.002 -0.0087,-7.9e-4 -0.01741,-0.002 -0.02609,-0.003 -0.0085,-0.001 -0.01709,-0.002 -0.02559,-0.003 -0.0084,-0.001 -0.01675,-0.003 -0.02508,-0.004 -0.0082,-10e-4 -0.01638,-0.003 -0.02453,-0.005 -0.008,-0.002 -0.01601,-0.003 -0.02397,-0.005 -0.0078,-0.002 -0.01566,-0.004 -0.02344,-0.006 -0.0077,-0.002 -0.01532,-0.004 -0.02294,-0.006 -0.0075,-0.002 -0.01498,-0.004 -0.02241,-0.006 -0.0073,-0.002 -0.01466,-0.004 -0.02196,-0.007 -0.0072,-0.002 -0.01439,-0.005 -0.02154,-0.007 -0.0071,-0.002 -0.01416,-0.005 -0.02122,-0.007 -0.007,-0.002 -0.01397,-0.005 -0.0209,-0.007 -0.0069,-0.002 -0.01378,-0.005 -0.02064,-0.008 -0.0068,-0.003 -0.01363,-0.005 -0.02043,-0.008 -0.0068,-0.003 -0.01352,-0.005 -0.02029,-0.008 -0.0067,-0.003 -0.01349,-0.005 -0.02021,-0.008 -0.0067,-0.003 -0.01349,-0.005 -0.02021,-0.008 -0.0067,-0.003 -0.01349,-0.005 -0.02027,-0.008 -0.0068,-0.003 -0.01355,-0.005 -0.02032,-0.008 -0.0068,-0.003 -0.0136,-0.005 -0.0204,-0.008 -0.0068,-0.003 -0.01365,-0.005 -0.02048,-0.008 -0.0068,-0.003 -0.01368,-0.005 -0.02053,-0.008 -0.0069,-0.002 -0.01373,-0.005 -0.02064,-0.007 -0.0069,-0.002 -0.01378,-0.005 -0.02072,-0.007 -0.0069,-0.002 -0.01381,-0.005 -0.02074,-0.007 -0.0069,-0.002 -0.01379,-0.004 -0.02072,-0.006 -0.0069,-0.002 -0.01378,-0.004 -0.02069,-0.006 -0.0068,-0.002 -0.01368,-0.004 -0.02056,-0.005 -0.0067,-0.002 -0.01352,-0.003 -0.02032,-0.005 -0.0066,-0.002 -0.01328,-0.003 -0.01995,-0.004 -0.0065,-0.001 -0.01304,-0.003 -0.01958,-0.004 -0.0064,-0.001 -0.01275,-0.002 -0.01913,-0.003 -0.0062,-7.9e-4 -0.01244,-0.002 -0.01865,-0.002 -0.006,-5.3e-4 -0.01209,-0.001 -0.01815,-0.001 -0.0059,-2.7e-4 -0.01175,-5.3e-4 -0.01762,-5.3e-4 -0.0057,-7e-5 -0.0114,-6e-5 -0.01712,1.1e-4 -0.0056,1.8e-4 -0.01111,5.3e-4 -0.01664,7.9e-4 -0.0054,5.3e-4 -0.0108,8e-4 -0.01617,0.002 -0.0053,7.9e-4 -0.0105,0.001 -0.01574,0.002 -0.0051,7.9e-4 -0.01024,0.002 -0.01535,0.003 -0.005,10e-4 -0.01003,0.002 -0.01503,0.004 -0.0049,0.001 -0.0098,0.003 -0.01471,0.004 -0.0048,0.001 -0.0097,0.003 -0.01453,0.004 -0.0048,0.002 -0.0096,0.003 -0.01442,0.005 -0.0047,0.002 -0.0094,0.003 -0.01413,0.005 -0.0047,0.002 -0.0093,0.003 -0.01394,0.005 -0.0046,0.002 -0.0091,0.003 -0.01365,0.005 -0.0045,0.002 -0.0089,0.003 -0.01336,0.005 -0.0044,0.002 -0.0088,0.004 -0.01312,0.005 -0.0043,0.002 -0.0086,0.004 -0.01283,0.005 -0.0042,0.002 -0.0083,0.004 -0.01249,0.005 -0.004,0.002 -0.0081,0.004 -0.01209,0.006 -0.0039,0.002 -0.0078,0.004 -0.01169,0.005 -0.0038,0.002 -0.0075,0.004 -0.01122,0.005 -0.0036,0.002 -0.0072,0.003 -0.01074,0.005 -0.0034,0.002 -0.0069,0.003 -0.01027,0.005 -0.0033,0.002 -0.0065,0.003 -0.0098,0.005 -0.0031,0.002 -0.0063,0.003 -0.0094,0.005 -0.003,0.002 -0.006,0.003 -0.009,0.005 -0.0029,0.002 -0.0058,0.003 -0.0087,0.005 -0.0028,0.002 -0.0056,0.003 -0.0083,0.005 -0.0027,0.002 -0.0053,0.003 -0.008,0.005 -0.0026,0.001 -0.0051,0.003 -0.0077,0.004 -0.0024,0.001 -0.0049,0.003 -0.0074,0.004 -0.0024,0.001 -0.0047,0.003 -0.007,0.004 -0.0024,0.001 -0.0045,0.003 -0.0067,0.004 -0.0021,0.001 -0.0043,0.003 -0.0065,0.004 -0.0021,0.001 -0.0041,0.002 -0.0061,0.004 -0.0019,0.001 -0.0039,0.002 -0.0058,0.003 -0.0019,0.001 -0.0037,0.002 -0.0055,0.003 -0.0016,0.001 -0.0034,0.002 -0.0051,0.003 -0.0016,0.001 -0.0031,0.002 -0.0047,0.003 -0.0013,7.9e-4 -0.0028,0.002 -0.0042,0.003 -0.0013,7.9e-4 -0.0026,0.002 -0.0038,0.002 -0.0011,7.9e-4 -0.0021,10e-4 -0.0033,0.002 -0.0011,5.3e-4 -0.0019,0.001 -0.003,0.002 -7.94e-4,5.3e-4 -0.0016,0.001 -0.0026,0.002 -7.94e-4,5.3e-4 -0.0016,8e-4 -0.0021,10e-4 -5.3e-4,2.6e-4 -0.0013,7.9e-4 -0.0019,0.001 -5.29e-4,2.6e-4 -0.0011,5.2e-4 -0.0016,0.001 0,0 0.217935,-0.14152 0.217935,-0.14152 z"
       inkscape:connector-curvature="0" />
    <path
       style="fill:#000000;fill-opacity:1;fill-rule:nonzero;stroke:none;stroke-width:2.06375003;stroke-linecap:butt;stroke-linejoin:miter;stroke-miterlimit:4;stroke-dasharray:none;stroke-dashoffset:0;stroke-opacity:1"
       id="path4676"
       d="m 86.152579,159.77618 c 5.29e-4,-5.3e-4 7.94e-4,-7.9e-4 0.0013,-0.001 5.29e-4,-5.3e-4 7.93e-4,-7.9e-4 0.0013,-0.001 5.29e-4,-5.3e-4 0.0011,-0.001 0.0016,-0.002 5.29e-4,-5.3e-4 0.0013,-0.001 0.0021,-0.002 7.94e-4,-8e-4 0.0016,-0.001 0.0024,-0.002 0.0011,-7.9e-4 0.0019,-0.002 0.0029,-0.002 0.0011,-7.9e-4 0.0021,-0.002 0.0033,-0.003 0.0011,-0.001 0.0024,-0.002 0.0035,-0.003 0.0013,-0.001 0.0026,-0.002 0.0038,-0.003 0.0013,-0.001 0.0027,-0.002 0.0041,-0.003 0.0016,-0.001 0.003,-0.002 0.0045,-0.003 0.0016,-0.001 0.0032,-0.002 0.0048,-0.003 0.0019,-0.001 0.0035,-0.002 0.0052,-0.004 0.0019,-0.001 0.0037,-0.003 0.0056,-0.004 0.07473,-0.0483 0.148404,-0.0983 0.22393,-0.14534 0.0021,-0.001 0.0043,-0.003 0.0064,-0.004 0.0024,-10e-4 0.0046,-0.003 0.0069,-0.004 0.0024,-0.001 0.0049,-0.003 0.0074,-0.004 0.0026,-0.001 0.0053,-0.003 0.008,-0.004 0.0028,-0.001 0.0057,-0.003 0.0085,-0.004 0.0029,-0.002 0.0059,-0.003 0.0089,-0.004 0.0031,-0.002 0.0061,-0.003 0.0092,-0.004 0.0031,-0.002 0.0063,-0.003 0.0094,-0.004 0.0032,-0.001 0.0065,-0.003 0.0097,-0.004 0.0033,-0.001 0.0066,-0.003 0.0099,-0.004 0.0034,-0.001 0.0068,-0.003 0.01016,-0.004 0.0035,-0.001 0.0069,-0.003 0.01037,-0.004 0.0035,-0.001 0.0071,-0.003 0.01058,-0.004 0.0036,-0.001 0.0072,-0.003 0.01087,-0.004 0.0037,-0.001 0.0074,-0.003 0.01109,-0.004 0.0038,-0.001 0.0076,-0.003 0.0114,-0.004 0.0039,-0.001 0.0078,-0.003 0.01167,-0.004 0.0039,-0.001 0.0079,-0.003 0.01188,-0.004 0.004,-0.001 0.008,-0.003 0.01204,-0.004 0.0041,-0.001 0.0081,-0.003 0.01222,-0.004 0.0042,-0.001 0.0083,-0.002 0.01251,-0.004 0.0042,-0.001 0.0085,-0.002 0.01273,-0.004 0.0044,-0.001 0.0087,-0.002 0.01312,-0.003 0.0044,-0.001 0.0089,-0.002 0.01341,-0.003 0.0045,-0.001 0.0091,-0.002 0.01365,-0.003 0.0047,-0.001 0.0093,-0.002 0.01397,-0.003 0.0047,-0.001 0.0095,-0.002 0.01421,-0.003 0.0048,-8e-4 0.0097,-0.002 0.01447,-0.002 0.0049,-7.9e-4 0.0098,-0.002 0.01474,-0.002 0.005,-8e-4 0.01,-0.001 0.015,-0.002 0.0051,-5.3e-4 0.01016,-0.001 0.01524,-0.002 0.0052,-5.3e-4 0.01032,-10e-4 0.01548,-0.002 0.0052,-5.3e-4 0.01048,-0.001 0.01572,-0.001 0.0053,-5.3e-4 0.01061,-7.9e-4 0.01593,-0.001 0.0054,-2.7e-4 0.01074,-8e-4 0.01611,-0.001 0.0054,-2.7e-4 0.01087,-5.3e-4 0.01632,-8e-4 0.0055,-2.6e-4 0.01103,-5.3e-4 0.01654,-7.9e-4 0.0056,-2e-4 0.01114,-2.6e-4 0.01669,-5.3e-4 0.0056,-1.4e-4 0.01122,-2.6e-4 0.01685,-5.3e-4 0.0057,-1.2e-4 0.01135,-1.9e-4 0.01701,-2.6e-4 0.0057,-7e-5 0.01143,-1.1e-4 0.01714,-1.4e-4 0.0058,-3e-5 0.01154,-1e-5 0.0173,0 0.0058,2e-5 0.01161,4e-5 0.01741,5e-5 0.0058,2e-5 0.01169,4e-5 0.01754,5e-5 0.0059,2e-5 0.01177,3e-5 0.01765,5e-5 0.0059,1e-5 0.01183,4e-5 0.01775,9e-5 0.006,5e-5 0.01191,1e-4 0.01783,1.5e-4 0.006,6e-5 0.01199,1.5e-4 0.01797,2.4e-4 0.006,9e-5 0.01204,1.6e-4 0.01807,2.6e-4 0.0061,1.1e-4 0.01212,2.1e-4 0.01815,2.6e-4 0.0061,1.4e-4 0.01217,2.7e-4 0.01828,5.3e-4 0.0061,1.5e-4 0.01225,2.6e-4 0.01839,5.3e-4 0.0062,1.7e-4 0.01233,2.6e-4 0.0185,5.3e-4 0.0062,2e-4 0.01241,5.3e-4 0.0186,5.3e-4 0.0062,2.2e-4 0.01246,5.3e-4 0.01868,7.9e-4 0.0063,2.5e-4 0.01254,5.3e-4 0.01881,7.9e-4 0.0063,2.6e-4 0.01262,5.3e-4 0.01894,8e-4 0.0063,2.6e-4 0.01273,5.3e-4 0.01908,7.9e-4 0.0064,2.7e-4 0.01283,5.3e-4 0.01924,8e-4 0.0065,2.6e-4 0.01296,5.3e-4 0.01945,7.9e-4 0.0066,2.6e-4 0.01312,5.3e-4 0.01968,7.9e-4 0.0066,2.5e-4 0.01326,5.3e-4 0.0199,8e-4 0.0067,2.4e-4 0.01344,5.3e-4 0.02016,7.9e-4 0.0068,2.3e-4 0.01363,5.3e-4 0.02043,7.9e-4 0.0069,2.1e-4 0.01376,2.7e-4 0.02064,5.3e-4 0.0069,1.9e-4 0.01389,2.7e-4 0.02082,5.3e-4 0.007,1.4e-4 0.01397,2.6e-4 0.02098,2.7e-4 0.007,1e-4 0.01405,2e-4 0.02109,2.6e-4 0.0071,6e-5 0.01413,1.1e-4 0.02119,1.5e-4 0.0071,4e-5 0.01416,5e-5 0.02125,3e-5 0.0071,-2e-5 0.01416,-5e-5 0.02125,-1.1e-4 0.0071,-5e-5 0.01418,-1.6e-4 0.02127,-2.6e-4 0.0071,-1.1e-4 0.01421,-2.4e-4 0.0213,-2.6e-4 0.0071,-1.3e-4 0.01423,-2.6e-4 0.02133,-5.3e-4 0.0071,-2.1e-4 0.01426,-5.3e-4 0.02138,-7.9e-4 0.0071,-2.7e-4 0.01429,-5.3e-4 0.02143,-0.001 0.0071,-2.7e-4 0.01429,-8e-4 0.02143,-10e-4 0.0071,-5.3e-4 0.01429,-0.001 0.02143,-0.002 0.0071,-5.3e-4 0.01429,-0.001 0.02143,-0.002 0.0071,-5.3e-4 0.01423,-0.001 0.02135,-0.002 0.0071,-7.9e-4 0.01424,-0.002 0.02133,-0.002 0.0071,-8e-4 0.01421,-0.002 0.02133,-0.003 0.0071,-10e-4 0.01418,-0.002 0.02127,-0.003 0.0071,-0.001 0.01418,-0.002 0.02125,-0.003 0.0071,-10e-4 0.01416,-0.003 0.02122,-0.004 0.0071,-0.001 0.01416,-0.003 0.02122,-0.004 0.0071,-0.002 0.01416,-0.003 0.02119,-0.005 0.0071,-0.002 0.01413,-0.004 0.02117,-0.005 0.0071,-0.002 0.0141,-0.004 0.02111,-0.006 0.0071,-0.002 0.01408,-0.004 0.02109,-0.007 0.007,-0.002 0.01408,-0.005 0.02106,-0.007 0.007,-0.002 0.014,-0.005 0.02096,-0.008 0.007,-0.003 0.01394,-0.005 0.02088,-0.008 0.0069,-0.003 0.01384,-0.006 0.02072,-0.008 0.0069,-0.003 0.01365,-0.006 0.02045,-0.009 0.0067,-0.003 0.01347,-0.006 0.02019,-0.009 0.0067,-0.003 0.01331,-0.006 0.01995,-0.009 0.0066,-0.003 0.01312,-0.006 0.01966,-0.009 0.0043,-0.002 0.0021,-0.001 0.0065,-0.003 0,0 -0.217937,0.14153 -0.217937,0.14153 v 0 c -0.0043,0.002 -0.0021,0.001 -0.0065,0.003 -0.0065,0.003 -0.01307,0.006 -0.01966,0.009 -0.0066,0.003 -0.01328,0.006 -0.01995,0.009 -0.0067,0.003 -0.01341,0.006 -0.02019,0.009 -0.0068,0.003 -0.01363,0.006 -0.02048,0.009 -0.0069,0.003 -0.01378,0.006 -0.02072,0.008 -0.0069,0.003 -0.01389,0.005 -0.02088,0.008 -0.007,0.003 -0.01394,0.005 -0.02096,0.008 -0.007,0.002 -0.014,0.005 -0.02106,0.007 -0.007,0.002 -0.01402,0.005 -0.02109,0.007 -0.007,0.002 -0.01405,0.004 -0.02111,0.006 -0.007,0.002 -0.01408,0.004 -0.02117,0.005 -0.007,0.002 -0.0141,0.003 -0.02122,0.005 -0.0071,0.002 -0.01413,0.003 -0.02122,0.004 -0.0071,10e-4 -0.01413,0.003 -0.02122,0.004 -0.0071,0.001 -0.01416,0.002 -0.02125,0.003 -0.0071,0.001 -0.01418,0.002 -0.02127,0.003 -0.0071,0.001 -0.01421,0.002 -0.02133,0.003 -0.0071,8e-4 -0.01421,0.002 -0.02133,0.002 -0.0071,8e-4 -0.01423,0.001 -0.02138,0.002 -0.0071,5.3e-4 -0.01426,0.001 -0.0214,0.002 -0.0071,5.3e-4 -0.01429,0.001 -0.02143,0.002 -0.0071,5.3e-4 -0.01429,7.9e-4 -0.02143,0.001 -0.0071,2.7e-4 -0.01429,8e-4 -0.02143,0.001 -0.0071,2.7e-4 -0.01426,5.3e-4 -0.02138,8e-4 -0.0071,2e-4 -0.01423,2.6e-4 -0.02133,5.2e-4 -0.0071,1.3e-4 -0.01421,2.7e-4 -0.0213,2.7e-4 -0.0071,9e-5 -0.01418,2e-4 -0.02125,2.6e-4 -0.0071,5e-5 -0.01416,8e-5 -0.02125,1e-4 -0.0071,2e-5 -0.01415,1e-5 -0.02125,-2e-5 -0.0071,-5e-5 -0.01413,-9e-5 -0.02119,-1.5e-4 -0.007,-7e-5 -0.01405,-1.7e-4 -0.02109,-2.7e-4 -0.007,-1.2e-4 -0.014,-2.5e-4 -0.02098,-2.6e-4 -0.0069,-1.3e-4 -0.01389,-2.7e-4 -0.02082,-5.3e-4 -0.0069,-1.8e-4 -0.01376,-2.7e-4 -0.02066,-5.3e-4 -0.0068,-2.2e-4 -0.01363,-5.3e-4 -0.02043,-7.9e-4 -0.0067,-2.3e-4 -0.01344,-5.3e-4 -0.02016,-8e-4 -0.0066,-2.3e-4 -0.01326,-5.3e-4 -0.0199,-7.9e-4 -0.0066,-2.5e-4 -0.01312,-5.3e-4 -0.01968,-8e-4 -0.0065,-2.5e-4 -0.01297,-5.2e-4 -0.01945,-7.9e-4 -0.0064,-2.6e-4 -0.01283,-5.3e-4 -0.01924,-7.9e-4 -0.0063,-2.7e-4 -0.01273,-5.3e-4 -0.01908,-8e-4 -0.0063,-2.6e-4 -0.01262,-5.3e-4 -0.01894,-7.9e-4 -0.0063,-2.6e-4 -0.01254,-5.3e-4 -0.01881,-7.9e-4 -0.0062,-2.3e-4 -0.01246,-5.3e-4 -0.01868,-8e-4 -0.0062,-2e-4 -0.01241,-5.3e-4 -0.0186,-5.3e-4 -0.0062,-1.9e-4 -0.01233,-2.6e-4 -0.01849,-5.3e-4 -0.0061,-1.6e-4 -0.01225,-2.6e-4 -0.01839,-5.3e-4 -0.0061,-1.4e-4 -0.01217,-2.6e-4 -0.01828,-5.2e-4 -0.0061,-1.4e-4 -0.01212,-2.4e-4 -0.01815,-2.7e-4 -0.006,-1e-4 -0.01204,-1.7e-4 -0.01807,-2.6e-4 -0.006,-8e-5 -0.01199,-1.7e-4 -0.01797,-2.4e-4 -0.006,-5e-5 -0.01191,-10e-5 -0.01786,-1.5e-4 -0.0059,-5e-5 -0.01183,-8e-5 -0.01775,-8e-5 -0.0059,-2e-5 -0.01177,-3e-5 -0.01765,-5e-5 -0.0058,-2e-5 -0.01169,-3e-5 -0.01754,-5e-5 -0.0058,-2e-5 -0.01162,-4e-5 -0.01741,-5e-5 -0.0058,-2e-5 -0.01154,-3e-5 -0.0173,0 -0.0057,3e-5 -0.01143,6e-5 -0.01714,1.4e-4 -0.0057,6e-5 -0.01135,1.4e-4 -0.01701,2.6e-4 -0.0056,1.2e-4 -0.01125,2.6e-4 -0.01685,5.3e-4 -0.0056,1.5e-4 -0.01114,2.6e-4 -0.0167,5.3e-4 -0.0055,1.9e-4 -0.01103,5.3e-4 -0.01654,7.9e-4 -0.0055,2.7e-4 -0.01087,5.3e-4 -0.01633,7.9e-4 -0.0054,2.7e-4 -0.01074,8e-4 -0.01611,0.001 -0.0053,2.7e-4 -0.01061,8e-4 -0.01593,10e-4 -0.0052,5.3e-4 -0.01048,7.9e-4 -0.01572,0.001 -0.0052,5.3e-4 -0.01032,0.001 -0.01548,0.002 -0.0051,5.3e-4 -0.01019,0.001 -0.01527,0.002 -0.005,5.3e-4 -0.01,10e-4 -0.015,0.002 -0.0049,7.9e-4 -0.0098,0.002 -0.01474,0.002 -0.0048,8e-4 -0.0097,0.002 -0.01447,0.002 -0.0047,8e-4 -0.0095,0.002 -0.01421,0.003 -0.0047,0.001 -0.0093,0.002 -0.01397,0.003 -0.0046,10e-4 -0.0091,0.002 -0.01365,0.003 -0.0045,0.001 -0.0089,0.002 -0.01342,0.003 -0.0044,10e-4 -0.0088,0.002 -0.01312,0.003 -0.0043,0.001 -0.0085,0.002 -0.01273,0.004 -0.0042,0.001 -0.0084,0.002 -0.01252,0.004 -0.0041,10e-4 -0.0081,0.003 -0.01222,0.004 -0.004,0.001 -0.008,0.003 -0.01204,0.004 -0.004,0.001 -0.0079,0.003 -0.01188,0.004 -0.0039,10e-4 -0.0078,0.003 -0.01167,0.004 -0.0038,0.001 -0.0076,0.003 -0.0114,0.004 -0.0037,0.001 -0.0074,0.003 -0.01109,0.004 -0.0036,10e-4 -0.0072,0.003 -0.01087,0.004 -0.0035,0.001 -0.0071,0.003 -0.01058,0.004 -0.0035,0.001 -0.0069,0.003 -0.0104,0.004 -0.0034,10e-4 -0.0068,0.003 -0.01016,0.004 -0.0033,0.001 -0.0066,0.003 -0.0099,0.004 -0.0032,0.001 -0.0065,0.003 -0.0097,0.004 -0.0031,10e-4 -0.0063,0.003 -0.0094,0.004 -0.0031,0.001 -0.0061,0.003 -0.0092,0.004 -0.003,0.001 -0.0059,0.003 -0.0089,0.004 -0.0029,10e-4 -0.0057,0.003 -0.0085,0.004 -0.0027,0.001 -0.0054,0.003 -0.008,0.004 -0.0024,0.001 -0.005,0.003 -0.0074,0.004 -0.0024,10e-4 -0.0046,0.003 -0.0069,0.004 -0.0021,0.001 -0.0043,0.003 -0.0064,0.004 -0.08162,0.0509 0.287795,-0.18666 0.211944,-0.13771 -0.0019,0.001 -0.0038,0.002 -0.0056,0.004 -0.0019,0.001 -0.0035,0.002 -0.0052,0.004 -0.0016,0.001 -0.0032,0.002 -0.0048,0.003 -0.0016,0.001 -0.003,0.002 -0.0045,0.003 -0.0013,0.001 -0.0028,0.002 -0.0041,0.003 -0.0013,0.001 -0.0026,0.002 -0.0038,0.003 -0.0013,0.001 -0.0024,0.002 -0.0035,0.003 -0.0011,7.9e-4 -0.0021,0.002 -0.0033,0.003 -0.0011,7.9e-4 -0.0019,0.002 -0.0029,0.002 -7.94e-4,8e-4 -0.0016,0.001 -0.0024,0.002 -7.93e-4,5.3e-4 -0.0013,0.001 -0.0021,0.002 -5.3e-4,5.3e-4 -0.0011,0.001 -0.0016,0.002 -5.29e-4,5.3e-4 -7.94e-4,7.9e-4 -0.0013,0.001 -5.29e-4,5.3e-4 -7.94e-4,8e-4 -0.0013,0.001 0,0 -0.217934,0.14153 -0.217934,0.14153 z"
       inkscape:connector-curvature="0" />
    <path
       style="fill:#000000;fill-opacity:1;fill-rule:nonzero;stroke:none;stroke-width:2.06375003;stroke-linecap:butt;stroke-linejoin:miter;stroke-miterlimit:4;stroke-dasharray:none;stroke-dashoffset:0;stroke-opacity:1"
       id="path4702"
       d="m 86.382047,159.96036 c 5.3e-4,-2.6e-4 0.0011,-5.3e-4 0.0013,-7.9e-4 5.3e-4,-2.7e-4 0.0011,-5.3e-4 0.0016,-8e-4 7.94e-4,-2.6e-4 0.0013,-7.9e-4 0.0021,-10e-4 7.93e-4,-5.3e-4 0.0016,-8e-4 0.0024,-0.001 0.0011,-5.3e-4 0.0019,-0.001 0.0028,-0.001 0.0011,-5.3e-4 0.0021,-0.001 0.0032,-0.002 0.0011,-5.3e-4 0.0024,-0.001 0.0035,-0.002 0.0013,-5.2e-4 0.0024,-0.001 0.0038,-0.002 0.0013,-5.3e-4 0.0027,-0.001 0.0041,-0.002 0.0016,-7.9e-4 0.003,-0.001 0.0044,-0.002 0.0016,-7.9e-4 0.0031,-0.001 0.0047,-0.002 0.0016,-8e-4 0.0033,-0.002 0.0049,-0.002 0.0019,-7.9e-4 0.0035,-0.002 0.0052,-0.002 0.0019,-7.9e-4 0.0037,-0.002 0.0055,-0.002 0.0019,-8e-4 0.0039,-0.002 0.0058,-0.002 0.0021,-8e-4 0.004,-0.002 0.0061,-0.003 0.0021,-7.9e-4 0.0042,-0.002 0.0063,-0.003 0.0021,-7.9e-4 0.0044,-0.002 0.0066,-0.002 0.0024,-7.9e-4 0.0046,-0.002 0.0069,-0.002 0.0024,-7.9e-4 0.0048,-0.002 0.0073,-0.002 0.0026,-7.9e-4 0.0051,-0.002 0.0076,-0.002 0.0026,-7.9e-4 0.0053,-0.002 0.0079,-0.002 0.0027,-7.9e-4 0.0055,-0.001 0.0082,-0.002 0.0028,-8e-4 0.0056,-10e-4 0.0085,-0.002 0.0029,-7.9e-4 0.0058,-0.001 0.0088,-0.002 0.003,-5.3e-4 0.006,-0.001 0.009,-0.002 0.0031,-5.3e-4 0.0061,-10e-4 0.0092,-0.002 0.0031,-5.3e-4 0.0063,-0.001 0.0095,-0.002 0.0032,-5.3e-4 0.0065,-0.001 0.0097,-0.002 0.0033,-5.3e-4 0.0066,-10e-4 0.0099,-0.002 0.0034,-5.3e-4 0.0068,-0.001 0.01016,-0.002 0.0035,-5.3e-4 0.0069,-0.001 0.01037,-0.002 0.0035,-5.3e-4 0.0071,-10e-4 0.01058,-0.002 0.0036,-5.3e-4 0.0072,-0.001 0.0108,-0.001 0.0037,-5.3e-4 0.0073,-7.9e-4 0.01101,-0.001 0.0037,-5.3e-4 0.0074,-8e-4 0.01114,-0.001 0.0038,-5.3e-4 0.0076,-8e-4 0.01135,-0.001 0.0038,-5.3e-4 0.0077,-7.9e-4 0.01151,-10e-4 0.0039,-2.7e-4 0.0078,-7.9e-4 0.0117,-0.001 0.0039,-2.6e-4 0.0079,-7.9e-4 0.01185,-0.001 0.004,-2.6e-4 0.008,-7.9e-4 0.01199,-0.001 0.004,-2.6e-4 0.0081,-7.9e-4 0.01217,-0.001 0.0041,-2.7e-4 0.0082,-8e-4 0.01228,-0.001 0.0042,-2.7e-4 0.0083,-5.3e-4 0.01244,-10e-4 0.0042,-2.7e-4 0.0083,-5.3e-4 0.01246,-7.9e-4 0.0042,-2.7e-4 0.0084,-5.3e-4 0.01259,-8e-4 0.0042,-2.6e-4 0.0084,-5.3e-4 0.01265,-7.9e-4 0.0042,-2.2e-4 0.0085,-2.7e-4 0.0127,-5.3e-4 0.0042,-1.7e-4 0.0085,-2.7e-4 0.0127,-5.3e-4 0.0042,-1.3e-4 0.0085,-2.1e-4 0.01273,-2.6e-4 0.0042,-7e-5 0.0084,-8e-5 0.01265,-8e-5 0.0043,-1e-5 0.0085,-3e-5 0.01275,-2e-5 0.0042,1e-5 0.0085,8e-5 0.0127,1.4e-4 0.0042,8e-5 0.0085,1.9e-4 0.01273,2.7e-4 0.0043,1e-4 0.0085,2e-4 0.01281,2.6e-4 0.0043,1.1e-4 0.0086,2.6e-4 0.01286,5.3e-4 0.0043,1.8e-4 0.0086,2.7e-4 0.01294,5.3e-4 0.0043,1.9e-4 0.0087,5.3e-4 0.01299,7.9e-4 0.0043,2.6e-4 0.0087,5.3e-4 0.01297,8e-4 0.0043,2.4e-4 0.0087,5.3e-4 0.01304,7.9e-4 0.0043,2.7e-4 0.0087,5.3e-4 0.01299,8e-4 0.0044,2.6e-4 0.0087,5.2e-4 0.01307,0.001 0.0043,2.7e-4 0.0087,8e-4 0.01297,0.001 0.0043,2.7e-4 0.0087,8e-4 0.01302,0.001 0.0043,2.7e-4 0.0087,7.9e-4 0.01297,10e-4 0.0043,5.3e-4 0.0086,0.001 0.01291,0.002 0.0043,5.3e-4 0.0086,0.001 0.01288,0.002 0.0043,5.3e-4 0.0085,0.001 0.01281,0.002 0.0043,5.3e-4 0.0086,0.001 0.01283,0.002 0.0043,5.3e-4 0.0085,0.001 0.01283,0.002 0.0043,5.3e-4 0.0086,0.001 0.01288,0.002 0.0043,7.9e-4 0.0086,0.001 0.01294,0.002 0.0043,8e-4 0.0087,0.001 0.01299,0.002 0.0043,7.9e-4 0.0087,0.001 0.01299,0.002 0.0043,7.9e-4 0.0087,0.001 0.01304,0.002 0.0044,8e-4 0.0087,0.001 0.01307,0.002 0.0044,7.9e-4 0.0088,0.001 0.01312,0.002 0.0044,7.9e-4 0.0087,0.002 0.01307,0.002 0.0044,8e-4 0.0088,0.001 0.01312,0.002 0.0044,7.9e-4 0.0088,0.001 0.01315,0.002 0.0044,7.9e-4 0.0088,0.001 0.01328,0.002 0.0044,8e-4 0.0089,0.001 0.01336,0.002 0.0045,7.9e-4 0.009,0.001 0.01347,0.002 0.0045,5.3e-4 0.009,0.001 0.01352,0.002 0.0045,8e-4 0.009,0.001 0.01352,0.002 0.0045,7.9e-4 0.009,0.001 0.01357,0.002 0.0046,5.3e-4 0.0091,0.001 0.01363,0.002 0.0046,5.3e-4 0.0092,0.001 0.01373,0.002 0.0046,5.3e-4 0.0092,0.001 0.01381,0.002 0.0046,5.3e-4 0.0093,0.001 0.01389,0.002 0.0047,5.2e-4 0.0093,0.001 0.01397,0.002 0.0047,5.3e-4 0.0093,0.001 0.01402,0.002 0.0047,5.3e-4 0.0093,0.001 0.01402,0.001 0.0047,5.3e-4 0.0093,8e-4 0.01402,0.001 0.0047,5.3e-4 0.0094,7.9e-4 0.01408,0.001 0.0047,2.7e-4 0.0094,8e-4 0.0141,0.001 0.0047,2.7e-4 0.0094,5.3e-4 0.01413,8e-4 0.0047,2.6e-4 0.0094,5.3e-4 0.0141,7.9e-4 0.0047,2.6e-4 0.0094,5.3e-4 0.01418,7.9e-4 0.0047,2.2e-4 0.0094,5.3e-4 0.01413,5.3e-4 0.0047,2e-4 0.0095,2.7e-4 0.01421,5.3e-4 0.0047,1.4e-4 0.0095,2.3e-4 0.01421,2.7e-4 0.0047,8e-5 0.0095,1.4e-4 0.01421,1.8e-4 0.0047,4e-5 0.0094,4e-5 0.0141,2e-5 0.0047,-1e-5 0.0094,-9e-5 0.01418,-1.6e-4 0.0047,-6e-5 0.0095,-1.5e-4 0.01418,-2.6e-4 0.0047,-1.2e-4 0.0094,-2.6e-4 0.01416,-5.3e-4 0.0047,-1.3e-4 0.0094,-2.6e-4 0.01415,-5.3e-4 0.0047,-1.8e-4 0.0094,-2.6e-4 0.01418,-5.3e-4 0.0047,-2e-4 0.0094,-5.2e-4 0.01413,-7.9e-4 0.0047,-2.6e-4 0.0094,-5.3e-4 0.0141,-7.9e-4 0.0047,-2.7e-4 0.0094,-5.3e-4 0.01408,-0.001 0.0047,-2.7e-4 0.0094,-7.9e-4 0.0141,-10e-4 0.0047,-2.6e-4 0.0093,-7.9e-4 0.01402,-0.001 0.0047,-2.6e-4 0.0093,-7.9e-4 0.01402,-0.001 0.0046,-5.3e-4 0.0093,-7.9e-4 0.01389,-0.001 0.0046,-5.3e-4 0.0093,-7.9e-4 0.01389,-0.001 0.0046,-5.3e-4 0.0092,-0.001 0.01384,-0.002 0.0046,-5.3e-4 0.0092,-0.001 0.01376,-0.002 0.0046,-5.3e-4 0.0092,-0.001 0.01376,-0.002 0.0046,-5.3e-4 0.0091,-0.001 0.01371,-0.002 0.0046,-5.3e-4 0.0091,-0.001 0.01365,-0.002 0.0045,-5.3e-4 0.009,-0.001 0.01355,-0.002 0.0045,-7.9e-4 0.009,-0.001 0.01352,-0.002 0.0045,-7.9e-4 0.0089,-0.001 0.01339,-0.002 0.0045,-8e-4 0.0089,-0.002 0.01341,-0.002 0.0044,-7.9e-4 0.0089,-0.002 0.01336,-0.002 0.0045,-7.9e-4 0.0089,-0.002 0.01341,-0.002 0.0045,-7.9e-4 0.009,-0.002 0.01347,-0.003 0.0045,-8e-4 0.009,-0.002 0.01347,-0.003 0.0045,-0.001 0.0089,-0.002 0.01339,-0.003 0.0044,-10e-4 0.0089,-0.002 0.01328,-0.003 0.0044,-0.001 0.0088,-0.002 0.01323,-0.003 0.0044,-10e-4 0.0088,-0.002 0.0132,-0.003 0.0044,-0.001 0.0088,-0.002 0.01315,-0.003 0.0043,-10e-4 0.0087,-0.002 0.01304,-0.003 0.0043,-0.001 0.0086,-0.002 0.01294,-0.003 0.0043,-10e-4 0.0086,-0.002 0.01283,-0.004 0.0042,-0.001 0.0084,-0.002 0.01265,-0.004 0.0042,-0.001 0.0084,-0.003 0.01257,-0.004 0.0042,-10e-4 0.0083,-0.003 0.01249,-0.004 0.0041,-0.001 0.0082,-0.003 0.0123,-0.004 0.0041,-0.001 0.0082,-0.003 0.01222,-0.004 0.004,-0.002 0.0081,-0.003 0.01209,-0.004 0.004,-0.002 0.0079,-0.003 0.01191,-0.005 0.0039,-0.002 0.0078,-0.003 0.01172,-0.005 0.0039,-0.002 0.0077,-0.003 0.01159,-0.005 0.0038,-0.002 0.0076,-0.003 0.01143,-0.005 0.0038,-0.002 0.0075,-0.003 0.01122,-0.005 0.0037,-0.002 0.0074,-0.004 0.01111,-0.005 0.0037,-0.002 0.0073,-0.004 0.01095,-0.005 0.0037,-0.002 0.0072,-0.004 0.01085,-0.006 0.0036,-0.002 0.0071,-0.004 0.01069,-0.006 0.0035,-0.002 0.0071,-0.004 0.01061,-0.006 0.0035,-0.002 0.007,-0.004 0.01053,-0.006 0.0024,-0.001 0.0046,-0.003 0.007,-0.004 0,0 -0.217934,0.14153 -0.217934,0.14153 v 0 c -0.0024,0.001 -0.0046,0.003 -0.007,0.004 -0.0035,0.002 -0.007,0.004 -0.01053,0.006 -0.0035,0.002 -0.0071,0.004 -0.01064,0.006 -0.0035,0.002 -0.0071,0.004 -0.01069,0.006 -0.0036,0.002 -0.0072,0.004 -0.01085,0.006 -0.0036,0.002 -0.0073,0.004 -0.01095,0.005 -0.0037,0.002 -0.0074,0.004 -0.01111,0.005 -0.0037,0.002 -0.0075,0.004 -0.01122,0.005 -0.0038,0.002 -0.0076,0.003 -0.01143,0.005 -0.0039,0.002 -0.0077,0.003 -0.01159,0.005 -0.0039,0.002 -0.0078,0.003 -0.01172,0.005 -0.0039,0.002 -0.0079,0.003 -0.01191,0.005 -0.004,0.002 -0.008,0.003 -0.01207,0.004 -0.0041,0.002 -0.0081,0.003 -0.01222,0.004 -0.0041,0.001 -0.0082,0.003 -0.0123,0.004 -0.0042,0.001 -0.0083,0.003 -0.01249,0.004 -0.0042,0.001 -0.0084,0.003 -0.01257,0.004 -0.0042,0.001 -0.0084,0.003 -0.01265,0.004 -0.0043,0.001 -0.0085,0.002 -0.01283,0.004 -0.0043,0.001 -0.0086,0.002 -0.01294,0.003 -0.0043,0.001 -0.0087,0.002 -0.01304,0.003 -0.0044,0.001 -0.0088,0.002 -0.01315,0.003 -0.0044,0.001 -0.0088,0.002 -0.0132,0.003 -0.0044,0.001 -0.0088,0.002 -0.01323,0.003 -0.0044,0.001 -0.0088,0.002 -0.01328,0.003 -0.0044,0.001 -0.0089,0.002 -0.01339,0.003 -0.0045,0.001 -0.009,0.002 -0.01347,0.003 -0.0045,0.001 -0.009,0.002 -0.01347,0.003 -0.0045,7.9e-4 -0.0089,0.002 -0.01341,0.002 -0.0044,7.9e-4 -0.0089,0.002 -0.01336,0.002 -0.0045,7.9e-4 -0.0089,0.002 -0.01341,0.002 -0.0045,7.9e-4 -0.0089,0.002 -0.01339,0.002 -0.0045,7.9e-4 -0.009,0.001 -0.01352,0.002 -0.0045,8e-4 -0.009,10e-4 -0.01355,0.002 -0.0046,5.3e-4 -0.0091,0.001 -0.01365,0.002 -0.0046,5.3e-4 -0.0091,0.001 -0.01371,0.002 -0.0046,5.3e-4 -0.0092,10e-4 -0.01376,0.002 -0.0046,5.3e-4 -0.0092,0.001 -0.01376,0.002 -0.0046,5.2e-4 -0.0092,0.001 -0.01384,0.002 -0.0046,5.3e-4 -0.0093,10e-4 -0.01389,10e-4 -0.0046,5.2e-4 -0.0093,7.9e-4 -0.01389,0.001 -0.0047,5.3e-4 -0.0093,7.9e-4 -0.01402,0.001 -0.0047,2.6e-4 -0.0093,7.9e-4 -0.01402,0.001 -0.0047,2.6e-4 -0.0094,7.9e-4 -0.0141,0.001 -0.0047,2.7e-4 -0.0094,8e-4 -0.01408,0.001 -0.0047,2.7e-4 -0.0094,5.3e-4 -0.0141,8e-4 -0.0047,2.4e-4 -0.0094,5.2e-4 -0.01413,7.9e-4 -0.0047,2e-4 -0.0094,5.3e-4 -0.01418,5.3e-4 -0.0047,1.7e-4 -0.0094,2.6e-4 -0.01416,5.3e-4 -0.0047,1.4e-4 -0.0094,2.6e-4 -0.01413,5.3e-4 -0.0047,1e-4 -0.0095,1.9e-4 -0.01418,2.5e-4 -0.0047,8e-5 -0.0094,1.5e-4 -0.01418,1.7e-4 -0.0047,2e-5 -0.0094,1e-5 -0.0141,-3e-5 -0.0047,-4e-5 -0.0095,-9e-5 -0.01421,-1.8e-4 -0.0047,-8e-5 -0.0095,-1.7e-4 -0.01421,-2.6e-4 -0.0047,-1.4e-4 -0.0095,-2.7e-4 -0.01421,-5.3e-4 -0.0047,-2e-4 -0.0094,-5.3e-4 -0.01413,-5.3e-4 -0.0047,-2.3e-4 -0.0094,-5.3e-4 -0.01418,-8e-4 -0.0047,-2.6e-4 -0.0094,-5.2e-4 -0.0141,-7.9e-4 -0.0047,-2.6e-4 -0.0094,-5.3e-4 -0.01413,-0.001 -0.0047,-2.6e-4 -0.0094,-7.9e-4 -0.0141,-10e-4 -0.0047,-2.6e-4 -0.0094,-7.9e-4 -0.01408,-0.001 -0.0047,-5.3e-4 -0.0094,-8e-4 -0.01402,-0.001 -0.0047,-5.3e-4 -0.0094,-0.001 -0.01402,-0.001 -0.0047,-5.3e-4 -0.0093,-0.001 -0.01402,-0.002 -0.0047,-5.3e-4 -0.0093,-10e-4 -0.01397,-0.002 -0.0046,-5.2e-4 -0.0093,-0.001 -0.01389,-0.002 -0.0046,-5.3e-4 -0.0092,-0.001 -0.01381,-0.002 -0.0046,-5.3e-4 -0.0092,-10e-4 -0.01373,-0.002 -0.0046,-5.3e-4 -0.0091,-0.001 -0.01363,-0.002 -0.0045,-5.3e-4 -0.009,-0.001 -0.01357,-0.002 -0.0045,-7.9e-4 -0.009,-10e-4 -0.01352,-0.002 -0.0045,-7.9e-4 -0.009,-0.001 -0.01352,-0.002 -0.0045,-5.3e-4 -0.009,-0.001 -0.01347,-0.002 -0.0044,-7.9e-4 -0.0089,-10e-4 -0.01336,-0.002 -0.0044,-7.9e-4 -0.0088,-0.001 -0.01328,-0.002 -0.0044,-8e-4 -0.0088,-0.001 -0.01315,-0.002 -0.0044,-7.9e-4 -0.0088,-10e-4 -0.01312,-0.002 -0.0044,-7.9e-4 -0.0087,-0.001 -0.01307,-0.002 -0.0044,-8e-4 -0.0088,-0.002 -0.01312,-0.002 -0.0044,-7.9e-4 -0.0087,-10e-4 -0.01307,-0.002 -0.0043,-7.9e-4 -0.0087,-0.001 -0.01304,-0.002 -0.0043,-8e-4 -0.0087,-0.001 -0.01299,-0.002 -0.0043,-7.9e-4 -0.0087,-10e-4 -0.01299,-0.002 -0.0043,-7.9e-4 -0.0086,-0.001 -0.01294,-0.002 -0.0043,-8e-4 -0.0086,-0.001 -0.01288,-0.002 -0.0043,-5.2e-4 -0.0085,-10e-4 -0.01283,-0.002 -0.0043,-5.3e-4 -0.0086,-0.001 -0.01283,-0.002 -0.0043,-5.3e-4 -0.0085,-0.001 -0.01281,-0.002 -0.0043,-5.3e-4 -0.0086,-10e-4 -0.01289,-0.002 -0.0043,-5.3e-4 -0.0086,-0.001 -0.01291,-0.002 -0.0043,-5.3e-4 -0.0086,-0.001 -0.01296,-0.001 -0.0043,-5.3e-4 -0.0087,-7.9e-4 -0.01302,-0.001 -0.0043,-2.6e-4 -0.0087,-7.9e-4 -0.01296,-10e-4 -0.0044,-2.6e-4 -0.0087,-7.9e-4 -0.01307,-0.001 -0.0043,-2.7e-4 -0.0087,-5.3e-4 -0.01299,-8e-4 -0.0043,-2.6e-4 -0.0087,-5.3e-4 -0.01304,-7.9e-4 -0.0043,-2.5e-4 -0.0087,-5.3e-4 -0.01296,-8e-4 -0.0043,-2.5e-4 -0.0087,-5.3e-4 -0.01299,-7.9e-4 -0.0043,-1.9e-4 -0.0086,-2.6e-4 -0.01294,-5.3e-4 -0.0043,-1.6e-4 -0.0086,-2.6e-4 -0.01286,-5.3e-4 -0.0043,-9e-5 -0.0085,-1.9e-4 -0.01281,-2.6e-4 -0.0042,-1e-4 -0.0085,-2.1e-4 -0.01273,-2.7e-4 -0.0042,-6e-5 -0.0085,-1.3e-4 -0.0127,-1.3e-4 -0.0043,-2e-5 -0.0085,0 -0.01275,10e-6 -0.0042,0 -0.0084,1e-5 -0.01265,8e-5 -0.0043,5e-5 -0.0085,1.3e-4 -0.01273,2.6e-4 -0.0042,1.2e-4 -0.0085,2.4e-4 -0.0127,5.3e-4 -0.0042,1.7e-4 -0.0085,2.6e-4 -0.0127,5.3e-4 -0.0042,2.1e-4 -0.0084,5.3e-4 -0.01265,7.9e-4 -0.0042,2.6e-4 -0.0084,5.3e-4 -0.01259,8e-4 -0.0042,2.6e-4 -0.0083,5.2e-4 -0.01246,7.9e-4 -0.0042,2.6e-4 -0.0083,5.3e-4 -0.01243,0.001 -0.0041,2.6e-4 -0.0082,5.3e-4 -0.01228,0.001 -0.004,2.6e-4 -0.0081,7.9e-4 -0.01217,0.001 -0.004,2.7e-4 -0.008,8e-4 -0.01198,0.001 -0.0039,2.7e-4 -0.0079,8e-4 -0.01185,10e-4 -0.0039,2.7e-4 -0.0078,7.9e-4 -0.01169,0.001 -0.0038,2.6e-4 -0.0077,7.9e-4 -0.01151,0.001 -0.0038,5.3e-4 -0.0076,8e-4 -0.01135,0.001 -0.0037,5.2e-4 -0.0074,7.9e-4 -0.01114,0.001 -0.0037,5.3e-4 -0.0073,7.9e-4 -0.01098,10e-4 -0.0036,5.3e-4 -0.0072,7.9e-4 -0.0108,0.001 -0.0035,5.3e-4 -0.0071,0.001 -0.01058,0.001 -0.0035,5.3e-4 -0.0069,0.001 -0.01037,0.002 -0.0034,5.3e-4 -0.0068,0.001 -0.01013,0.002 -0.0033,5.3e-4 -0.0066,0.001 -0.0099,0.002 -0.0032,5.3e-4 -0.0065,0.001 -0.0097,0.002 -0.0031,5.3e-4 -0.0063,0.001 -0.0095,0.002 -0.0031,5.3e-4 -0.0061,0.001 -0.0092,0.002 -0.003,5.3e-4 -0.006,0.001 -0.009,0.002 -0.0029,5.3e-4 -0.0058,0.001 -0.0088,0.002 -0.0028,7.9e-4 -0.0057,0.001 -0.0085,0.002 -0.0028,8e-4 -0.0055,0.001 -0.0082,0.002 -0.0026,7.9e-4 -0.0053,0.001 -0.0079,0.002 -0.0026,7.9e-4 -0.0051,0.002 -0.0076,0.002 -0.0024,7.9e-4 -0.0048,0.002 -0.0073,0.002 -0.0024,7.9e-4 -0.0046,0.002 -0.0069,0.002 -0.0021,7.9e-4 -0.0044,0.002 -0.0066,0.002 -0.0021,7.9e-4 -0.0042,0.002 -0.0063,0.003 -0.0021,7.9e-4 -0.004,0.002 -0.0061,0.003 -0.0019,8e-4 -0.0039,0.002 -0.0058,0.002 -0.0019,8e-4 -0.0037,0.002 -0.0055,0.002 -0.0019,8e-4 -0.0035,0.002 -0.0052,0.002 -0.0016,7.9e-4 -0.0033,0.002 -0.0049,0.002 -0.0016,8e-4 -0.0031,0.001 -0.0047,0.002 -0.0016,7.9e-4 -0.003,0.001 -0.0044,0.002 -0.0013,5.2e-4 -0.0028,0.001 -0.0041,0.002 -0.0013,5.3e-4 -0.0024,0.001 -0.0038,0.002 -0.0011,5.3e-4 -0.0024,0.001 -0.0035,0.002 -0.0011,5.3e-4 -0.0021,0.001 -0.0032,0.002 -0.0011,5.3e-4 -0.0019,0.001 -0.0028,0.001 -7.94e-4,5.3e-4 -0.0016,7.9e-4 -0.0024,10e-4 -7.94e-4,2.7e-4 -0.0013,7.9e-4 -0.0021,0.001 -5.29e-4,2.6e-4 -0.0011,5.3e-4 -0.0016,7.9e-4 -5.3e-4,2.7e-4 -0.0011,5.3e-4 -0.0013,8e-4 0,0 0.217937,-0.14153 0.217937,-0.14153 z"
       inkscape:connector-curvature="0" />
    <path
       style="fill:#000000;fill-opacity:1;fill-rule:nonzero;stroke:none;stroke-width:2.06375003;stroke-linecap:butt;stroke-linejoin:miter;stroke-miterlimit:4;stroke-dasharray:none;stroke-dashoffset:0;stroke-opacity:1"
       id="path4704"
       d="m 86.321171,160.53058 c 5.29e-4,-2.7e-4 0.0011,-5.3e-4 0.0013,-7.9e-4 5.29e-4,-2.7e-4 0.0011,-5.3e-4 0.0016,-8e-4 5.29e-4,-2.6e-4 0.0013,-7.9e-4 0.0019,-0.001 7.94e-4,-5.3e-4 0.0016,-7.9e-4 0.0021,-10e-4 7.94e-4,-5.3e-4 0.0016,-0.001 0.0026,-0.002 0.0011,-5.3e-4 0.0019,-0.001 0.0028,-0.002 0.0011,-5.3e-4 0.0021,-0.001 0.0033,-0.002 0.0013,-5.3e-4 0.0024,-0.001 0.0036,-0.002 0.0013,-7.9e-4 0.0026,-0.001 0.0039,-0.002 0.0013,-7.9e-4 0.0028,-0.002 0.0043,-0.002 0.0016,-8e-4 0.003,-0.002 0.0046,-0.002 0.0016,-8e-4 0.0032,-0.002 0.0049,-0.002 0.0016,-8e-4 0.0034,-0.002 0.0052,-0.002 0.0019,-7.9e-4 0.0037,-0.002 0.0055,-0.003 0.0019,-8e-4 0.0038,-0.002 0.0058,-0.003 0.0021,-0.001 0.004,-0.002 0.006,-0.003 0.0021,-0.001 0.0042,-0.002 0.0062,-0.003 0.0021,-0.001 0.0043,-0.002 0.0065,-0.003 0.0021,-0.001 0.0045,-0.002 0.0067,-0.003 0.0024,-0.001 0.0047,-0.002 0.007,-0.003 0.0024,-0.001 0.0048,-0.002 0.0072,-0.003 0.0024,-0.001 0.005,-0.002 0.0075,-0.003 0.0026,-0.001 0.0051,-0.002 0.0076,-0.003 0.0026,-0.001 0.0052,-0.002 0.0078,-0.003 0.0027,-0.001 0.0053,-0.002 0.008,-0.003 0.0028,-0.001 0.0055,-0.002 0.0083,-0.003 0.0028,-0.001 0.0056,-0.002 0.0084,-0.003 0.0029,-0.001 0.0057,-0.002 0.0086,-0.003 0.0029,-0.001 0.0058,-0.002 0.0088,-0.003 0.003,-0.001 0.006,-0.002 0.009,-0.003 0.003,-0.001 0.0061,-0.002 0.0091,-0.003 0.0031,-0.001 0.0062,-0.002 0.0093,-0.003 0.0032,-0.001 0.0064,-0.002 0.0095,-0.003 0.0033,-0.001 0.0065,-0.002 0.0098,-0.003 0.0033,-8e-4 0.0067,-0.002 0.01,-0.003 0.0034,-8e-4 0.0068,-0.002 0.01024,-0.002 0.0035,-7.9e-4 0.0069,-0.002 0.0104,-0.002 0.0035,-8e-4 0.007,-10e-4 0.0105,-0.002 0.0035,-5.3e-4 0.007,-0.001 0.01053,-0.002 0.0035,-5.3e-4 0.0071,-0.001 0.01066,-0.002 0.0035,-5.3e-4 0.0071,-7.9e-4 0.01061,-10e-4 0.0035,-2.7e-4 0.0071,-8e-4 0.01064,-0.001 0.0035,-2.7e-4 0.0071,-5.3e-4 0.01069,-7.9e-4 0.0036,-2.5e-4 0.0071,-5.3e-4 0.01074,-5.3e-4 0.0036,-2e-4 0.0072,-2.7e-4 0.01085,-5.3e-4 0.0037,-1.5e-4 0.0073,-2.6e-4 0.01093,-2.7e-4 0.0037,-9e-5 0.0074,-1.9e-4 0.01106,-2.6e-4 0.0037,-7e-5 0.0074,-1.1e-4 0.01114,-1.6e-4 0.0038,-6e-5 0.0075,-1e-4 0.01127,-1.1e-4 0.0038,-3e-5 0.0076,-2e-5 0.01135,0 0.0038,4e-5 0.0076,1e-4 0.01148,1.9e-4 0.0039,1e-4 0.0078,1.9e-4 0.01164,2.7e-4 0.0039,1.1e-4 0.0078,2.4e-4 0.01172,2.6e-4 0.0039,1.3e-4 0.0079,2.5e-4 0.01185,2.6e-4 0.004,1.2e-4 0.008,2.7e-4 0.01196,5.3e-4 0.004,1.8e-4 0.008,2.7e-4 0.01209,5.3e-4 0.0041,1.9e-4 0.0081,2.7e-4 0.0122,5.3e-4 0.0041,2.1e-4 0.0082,5.3e-4 0.01225,5.3e-4 0.0041,2.4e-4 0.0082,5.3e-4 0.01228,8e-4 0.0041,2.3e-4 0.0083,5.2e-4 0.01236,7.9e-4 0.0042,2.6e-4 0.0083,5.3e-4 0.01246,7.9e-4 0.0042,2.7e-4 0.0084,5.3e-4 0.01262,8e-4 0.0042,2.6e-4 0.0084,5.3e-4 0.01262,0.001 0.0042,2.7e-4 0.0084,8e-4 0.01267,0.001 0.0042,2.7e-4 0.0085,5.3e-4 0.01273,0.001 0.0043,2.7e-4 0.0085,8e-4 0.01275,10e-4 0.0043,2.6e-4 0.0085,7.9e-4 0.01281,0.001 0.0043,2.7e-4 0.0086,8e-4 0.01294,0.001 0.0043,5.2e-4 0.0087,7.9e-4 0.01302,0.001 0.0044,5.3e-4 0.0087,7.9e-4 0.01307,0.001 0.0044,5.3e-4 0.0088,8e-4 0.01318,0.001 0.0044,5.3e-4 0.0088,8e-4 0.0132,10e-4 0.0044,5.3e-4 0.0088,7.9e-4 0.0132,0.001 0.0044,5.3e-4 0.0088,0.001 0.01323,0.001 0.0044,5.3e-4 0.0088,0.001 0.0132,0.002 0.0044,5.3e-4 0.0088,0.001 0.01323,0.002 0.0044,5.3e-4 0.0089,0.001 0.01331,0.002 0.0044,5.2e-4 0.0089,0.001 0.01331,0.002 0.0044,5.3e-4 0.0089,0.001 0.01333,0.002 0.0045,5.3e-4 0.0089,0.001 0.01339,0.002 0.0044,5.3e-4 0.0089,0.001 0.01336,0.002 0.0045,5.2e-4 0.0089,0.001 0.01336,0.002 0.0045,5.3e-4 0.0089,0.001 0.01341,0.002 0.0045,5.3e-4 0.009,0.001 0.01349,0.002 0.0045,5.3e-4 0.0091,0.001 0.0136,0.002 0.0046,5.2e-4 0.0091,0.001 0.01365,0.002 0.0046,5.3e-4 0.0091,0.001 0.01371,0.002 0.0046,5.3e-4 0.0092,0.001 0.01376,0.002 0.0046,5.3e-4 0.0092,0.001 0.01384,0.001 0.0046,5.3e-4 0.0093,0.001 0.01392,0.001 0.0047,5.3e-4 0.0093,8e-4 0.014,0.001 0.0047,5.3e-4 0.0094,7.9e-4 0.01408,0.001 0.0047,5.3e-4 0.0094,7.9e-4 0.01413,0.001 0.0047,5.3e-4 0.0095,8e-4 0.01423,10e-4 0.0048,2.6e-4 0.0095,7.9e-4 0.01426,0.001 0.0048,2.7e-4 0.0096,8e-4 0.01437,0.001 0.0048,2.7e-4 0.0096,8e-4 0.01437,0.001 0.0048,2.7e-4 0.0096,7.9e-4 0.01437,0.001 0.0048,2.6e-4 0.0096,7.9e-4 0.01445,0.001 0.0048,2.6e-4 0.0097,7.9e-4 0.01447,10e-4 0.0048,2.6e-4 0.0097,7.9e-4 0.01455,0.001 0.0049,2.7e-4 0.0097,5.3e-4 0.01458,0.001 0.0049,2.7e-4 0.0098,5.3e-4 0.01466,0.001 0.0049,2.7e-4 0.0098,5.3e-4 0.01471,7.9e-4 0.0049,2.7e-4 0.0098,5.3e-4 0.01471,8e-4 0.0049,2.6e-4 0.0098,5.3e-4 0.01466,7.9e-4 0.0049,2.1e-4 0.0097,5.3e-4 0.0146,5.3e-4 0.0049,2.1e-4 0.0097,2.7e-4 0.01461,5.3e-4 0.0049,1.4e-4 0.0097,2.5e-4 0.01458,2.6e-4 0.0049,1.3e-4 0.0097,2.1e-4 0.01458,2.7e-4 0.0049,7e-5 0.0097,1.4e-4 0.01458,2.1e-4 0.0049,8e-5 0.0097,1e-4 0.01458,1.3e-4 0.0048,3e-5 0.0097,6e-5 0.01458,9e-5 0.0049,2e-5 0.0098,2e-5 0.01463,-1e-5 0.0048,-4e-5 0.0097,-9e-5 0.01458,-1.3e-4 0.0048,-7e-5 0.0097,-1.5e-4 0.01458,-2.3e-4 0.0048,-7e-5 0.0097,-1.8e-4 0.01453,-2.7e-4 0.0048,-1.2e-4 0.0097,-2.1e-4 0.01455,-2.6e-4 0.0048,-1.4e-4 0.0097,-2.7e-4 0.0145,-5.3e-4 0.0048,-1.7e-4 0.0097,-2.7e-4 0.01453,-5.3e-4 0.0048,-1.9e-4 0.0096,-2.6e-4 0.01442,-5.3e-4 0.0048,-2.2e-4 0.0096,-5.3e-4 0.01442,-7.9e-4 0.0048,-2.7e-4 0.0096,-5.3e-4 0.01431,-8e-4 0.0048,-2.6e-4 0.0095,-5.3e-4 0.01426,-10e-4 0.0047,-2.7e-4 0.0095,-8e-4 0.01418,-0.001 0.0047,-5.3e-4 0.0094,-8e-4 0.01405,-0.001 0.0047,-5.3e-4 0.0093,-7.9e-4 0.014,-0.001 0.0046,-5.3e-4 0.0093,-0.001 0.01389,-0.001 0.0046,-5.3e-4 0.0092,-0.001 0.01384,-0.002 0.0046,-5.3e-4 0.0092,-0.001 0.01371,-0.002 0.0046,-5.3e-4 0.0091,-0.001 0.01368,-0.002 0.0045,-5.3e-4 0.0091,-0.001 0.0136,-0.002 0.0045,-5.3e-4 0.009,-0.001 0.01347,-0.002 0.0045,-8e-4 0.0089,-0.001 0.01341,-0.002 0.0044,-7.9e-4 0.0088,-0.002 0.01326,-0.002 0.0044,-7.9e-4 0.0088,-0.002 0.01312,-0.002 0.0044,-7.9e-4 0.0087,-0.002 0.01307,-0.003 0.0043,-8e-4 0.0086,-0.002 0.01286,-0.003 0.0043,-7.9e-4 0.0085,-0.002 0.01278,-0.003 0.0042,-10e-4 0.0084,-0.002 0.01267,-0.003 0.0042,-0.001 0.0083,-0.002 0.01249,-0.003 0.0041,-10e-4 0.0083,-0.002 0.01238,-0.003 0.0041,-0.001 0.0082,-0.002 0.0123,-0.003 0.0041,-10e-4 0.0081,-0.002 0.01222,-0.004 0.0041,-0.001 0.0081,-0.002 0.01217,-0.004 0.004,-0.001 0.008,-0.002 0.01204,-0.004 0.004,-10e-4 0.008,-0.003 0.01196,-0.004 0.004,-0.001 0.008,-0.003 0.01196,-0.004 0.004,-0.001 0.0079,-0.003 0.01188,-0.004 0.0039,-10e-4 0.0078,-0.003 0.01175,-0.004 0.0039,-0.001 0.0078,-0.003 0.01172,-0.004 0.0039,-0.002 0.0077,-0.003 0.01151,-0.005 0.0038,-0.002 0.0076,-0.003 0.01132,-0.005 0.0038,-0.002 0.0075,-0.003 0.01119,-0.005 0.0037,-0.002 0.0074,-0.003 0.01101,-0.005 0.0036,-0.002 0.0072,-0.003 0.01074,-0.005 0.0035,-0.002 0.007,-0.004 0.01053,-0.005 0.0034,-0.002 0.0069,-0.004 0.01024,-0.006 0.0034,-0.002 0.0067,-0.004 0.01003,-0.006 0.0033,-0.002 0.0065,-0.004 0.0098,-0.006 0,0 -0.217935,0.14153 -0.217935,0.14153 v 0 c -0.0033,0.002 -0.0065,0.004 -0.0098,0.006 -0.0033,0.002 -0.0066,0.004 -0.01003,0.006 -0.0034,0.002 -0.0068,0.004 -0.01024,0.006 -0.0035,0.002 -0.007,0.004 -0.01053,0.005 -0.0036,0.002 -0.0071,0.004 -0.01074,0.005 -0.0037,0.002 -0.0073,0.003 -0.01101,0.005 -0.0037,0.002 -0.0074,0.003 -0.01119,0.005 -0.0038,0.002 -0.0075,0.003 -0.01135,0.005 -0.0038,0.002 -0.0076,0.003 -0.01154,0.005 -0.0039,0.002 -0.0078,0.003 -0.01172,0.004 -0.0039,10e-4 -0.0078,0.003 -0.01175,0.004 -0.0039,0.001 -0.0079,0.003 -0.01188,0.004 -0.004,0.001 -0.008,0.003 -0.01196,0.004 -0.004,0.001 -0.008,0.003 -0.01196,0.004 -0.004,0.001 -0.008,0.003 -0.01204,0.004 -0.004,0.001 -0.0081,0.003 -0.01217,0.004 -0.0041,0.001 -0.0081,0.002 -0.01222,0.004 -0.0041,0.001 -0.0082,0.002 -0.01233,0.004 -0.0041,0.001 -0.0082,0.002 -0.01238,0.003 -0.0042,10e-4 -0.0083,0.002 -0.01246,0.003 -0.0042,0.001 -0.0084,0.002 -0.01267,0.003 -0.0043,10e-4 -0.0085,0.002 -0.01275,0.003 -0.0043,7.9e-4 -0.0086,0.002 -0.01286,0.003 -0.0044,7.9e-4 -0.0087,0.002 -0.01307,0.003 -0.0044,7.9e-4 -0.0087,0.002 -0.01312,0.002 -0.0044,7.9e-4 -0.0088,0.002 -0.01326,0.002 -0.0045,8e-4 -0.0089,0.001 -0.01342,0.002 -0.0045,5.3e-4 -0.009,0.001 -0.01347,0.002 -0.0045,5.3e-4 -0.009,0.001 -0.0136,0.002 -0.0046,5.2e-4 -0.0091,0.001 -0.01368,0.002 -0.0046,5.3e-4 -0.0091,0.001 -0.01371,0.002 -0.0046,5.2e-4 -0.0092,0.001 -0.01384,0.002 -0.0046,5.3e-4 -0.0093,0.001 -0.01389,0.001 -0.0047,5.2e-4 -0.0093,7.9e-4 -0.014,0.001 -0.0047,5.3e-4 -0.0094,7.9e-4 -0.01405,0.001 -0.0047,2.7e-4 -0.0094,8e-4 -0.01418,0.001 -0.0048,2.6e-4 -0.0095,7.9e-4 -0.01426,0.001 -0.0048,2.6e-4 -0.0096,5.3e-4 -0.01431,7.9e-4 -0.0048,2.7e-4 -0.0096,5.3e-4 -0.01442,8e-4 -0.0048,2.2e-4 -0.0096,5.2e-4 -0.01442,5.2e-4 -0.0048,1.8e-4 -0.0097,2.7e-4 -0.01453,5.3e-4 -0.0048,1.6e-4 -0.0097,2.7e-4 -0.0145,5.3e-4 -0.0048,1.3e-4 -0.0097,2.3e-4 -0.01455,2.7e-4 -0.0048,1.1e-4 -0.0097,2.3e-4 -0.01453,2.6e-4 -0.0048,8e-5 -0.0097,1.7e-4 -0.01455,2.3e-4 -0.0049,4e-5 -0.0097,1e-4 -0.01458,1.3e-4 -0.0049,3e-5 -0.0098,3e-5 -0.01463,1e-5 -0.0048,-3e-5 -0.0097,-6e-5 -0.01455,-8e-5 -0.0049,-3e-5 -0.0097,-6e-5 -0.01458,-1.4e-4 -0.0049,-7e-5 -0.0097,-1.4e-4 -0.01458,-2.1e-4 -0.0049,-7e-5 -0.0097,-1.6e-4 -0.01458,-2.6e-4 -0.0049,-1.1e-4 -0.0097,-2.2e-4 -0.01458,-2.7e-4 -0.0049,-1.5e-4 -0.0097,-2.6e-4 -0.01461,-5.3e-4 -0.0049,-2e-4 -0.0097,-2.6e-4 -0.01461,-5.3e-4 -0.0049,-2e-4 -0.0098,-5.3e-4 -0.01466,-7.9e-4 -0.0049,-2.5e-4 -0.0098,-5.3e-4 -0.01471,-7.9e-4 -0.0049,-2.7e-4 -0.0098,-5.3e-4 -0.01471,-8e-4 -0.0049,-2.6e-4 -0.0098,-5.3e-4 -0.01466,-0.001 -0.0049,-2.6e-4 -0.0097,-5.2e-4 -0.01458,-10e-4 -0.0049,-2.7e-4 -0.0097,-8e-4 -0.01458,-0.001 -0.0048,-2.7e-4 -0.0097,-8e-4 -0.01447,-0.001 -0.0048,-2.7e-4 -0.0096,-7.9e-4 -0.01445,-0.001 -0.0048,-2.6e-4 -0.0096,-7.9e-4 -0.01437,-0.001 -0.0048,-2.6e-4 -0.0096,-7.9e-4 -0.01437,-0.001 -0.0048,-2.6e-4 -0.0096,-7.9e-4 -0.01437,-10e-4 -0.0048,-2.7e-4 -0.0095,-8e-4 -0.01426,-0.001 -0.0047,-2.7e-4 -0.0095,-8e-4 -0.01423,-0.001 -0.0047,-5.2e-4 -0.0094,-7.9e-4 -0.01413,-0.001 -0.0047,-5.3e-4 -0.0094,-7.9e-4 -0.0141,-0.001 -0.0047,-5.3e-4 -0.0093,-7.9e-4 -0.014,-0.001 -0.0046,-5.3e-4 -0.0093,-8e-4 -0.01392,-10e-4 -0.0046,-5.3e-4 -0.0092,-0.001 -0.01384,-0.001 -0.0046,-5.3e-4 -0.0092,-0.001 -0.01376,-0.002 -0.0046,-5.3e-4 -0.0091,-0.001 -0.01368,-0.002 -0.0046,-5.3e-4 -0.0091,-10e-4 -0.01365,-0.002 -0.0045,-5.3e-4 -0.0091,-0.001 -0.0136,-0.002 -0.0045,-5.3e-4 -0.009,-0.001 -0.01349,-0.002 -0.0045,-5.3e-4 -0.0089,-10e-4 -0.01341,-0.002 -0.0044,-5.3e-4 -0.0089,-0.001 -0.01336,-0.002 -0.0044,-5.3e-4 -0.0089,-0.001 -0.01336,-0.002 -0.0044,-5.3e-4 -0.0089,-10e-4 -0.01336,-0.002 -0.0044,-5.3e-4 -0.0089,-0.001 -0.01333,-0.002 -0.0044,-5.3e-4 -0.0089,-0.001 -0.01331,-0.002 -0.0044,-5.3e-4 -0.0089,-10e-4 -0.01331,-0.002 -0.0044,-5.3e-4 -0.0088,-0.001 -0.01323,-0.002 -0.0044,-5.3e-4 -0.0088,-0.001 -0.0132,-0.002 -0.0044,-5.3e-4 -0.0088,-10e-4 -0.01323,-10e-4 -0.0044,-5.3e-4 -0.0088,-7.9e-4 -0.0132,-0.001 -0.0044,-5.3e-4 -0.0088,-7.9e-4 -0.0132,-0.001 -0.0044,-5.3e-4 -0.0088,-8e-4 -0.01318,-0.001 -0.0044,-5.3e-4 -0.0087,-7.9e-4 -0.01307,-0.001 -0.0043,-5.3e-4 -0.0087,-7.9e-4 -0.01302,-0.001 -0.0043,-5.3e-4 -0.0086,-8e-4 -0.01294,-10e-4 -0.0043,-5.2e-4 -0.0085,-7.9e-4 -0.01281,-0.001 -0.0043,-2.6e-4 -0.0085,-7.9e-4 -0.01273,-0.001 -0.0042,-2.6e-4 -0.0085,-7.9e-4 -0.01273,-0.001 -0.0042,-2.7e-4 -0.0084,-8e-4 -0.01267,-0.001 -0.0042,-2.7e-4 -0.0084,-5.3e-4 -0.01262,-10e-4 -0.0042,-2.7e-4 -0.0084,-5.3e-4 -0.01262,-8e-4 -0.0042,-2.6e-4 -0.0083,-5.2e-4 -0.01246,-7.9e-4 -0.0041,-2.4e-4 -0.0083,-5.3e-4 -0.01236,-7.9e-4 -0.0041,-2.4e-4 -0.0082,-5.3e-4 -0.01228,-8e-4 -0.0041,-2.3e-4 -0.0082,-5.3e-4 -0.01225,-5.3e-4 -0.0041,-1.9e-4 -0.0081,-2.6e-4 -0.0122,-5.2e-4 -0.004,-1.9e-4 -0.008,-2.7e-4 -0.01209,-5.3e-4 -0.004,-1.6e-4 -0.008,-2.7e-4 -0.01196,-5.3e-4 -0.0039,-1.3e-4 -0.0079,-2.5e-4 -0.01185,-2.7e-4 -0.0039,-1.2e-4 -0.0078,-2.6e-4 -0.01172,-2.6e-4 -0.0039,-9e-5 -0.0078,-1.9e-4 -0.01164,-2.7e-4 -0.0038,-9e-5 -0.0076,-1.5e-4 -0.01148,-1.9e-4 -0.0038,-2e-5 -0.0076,-3e-5 -0.01135,0 -0.0038,2e-5 -0.0075,5e-5 -0.01127,1.1e-4 -0.0037,5e-5 -0.0074,1e-4 -0.01114,1.6e-4 -0.0037,7e-5 -0.0074,1.7e-4 -0.01106,2.6e-4 -0.0037,1e-4 -0.0073,2.1e-4 -0.01093,2.7e-4 -0.0036,1.4e-4 -0.0072,2.6e-4 -0.01085,5.3e-4 -0.0036,1.8e-4 -0.0072,2.6e-4 -0.01074,5.3e-4 -0.0036,2.3e-4 -0.0071,5.3e-4 -0.01069,7.9e-4 -0.0035,2.7e-4 -0.0071,5.3e-4 -0.01064,0.001 -0.0035,2.6e-4 -0.0071,7.9e-4 -0.01061,0.001 -0.0035,5.3e-4 -0.0071,0.001 -0.01066,0.002 -0.0035,5.3e-4 -0.007,0.001 -0.01053,0.002 -0.0035,5.3e-4 -0.007,0.001 -0.0105,0.002 -0.0035,7.9e-4 -0.007,0.001 -0.0104,0.002 -0.0034,7.9e-4 -0.0068,0.002 -0.01024,0.002 -0.0033,7.9e-4 -0.0067,0.002 -0.01,0.003 -0.0033,7.9e-4 -0.0065,0.002 -0.0098,0.003 -0.0032,0.001 -0.0063,0.002 -0.0095,0.003 -0.0031,10e-4 -0.0062,0.002 -0.0093,0.003 -0.003,0.001 -0.0061,0.002 -0.0091,0.003 -0.003,10e-4 -0.006,0.002 -0.009,0.003 -0.0029,0.001 -0.0058,0.002 -0.0088,0.003 -0.0029,0.001 -0.0057,0.002 -0.0086,0.003 -0.0028,0.001 -0.0056,0.002 -0.0084,0.003 -0.0028,0.001 -0.0055,0.002 -0.0083,0.003 -0.0027,0.001 -0.0053,0.002 -0.008,0.003 -0.0026,0.001 -0.0052,0.002 -0.0078,0.003 -0.0026,0.001 -0.0051,0.002 -0.0076,0.003 -0.0024,0.001 -0.005,0.002 -0.0075,0.003 -0.0024,0.001 -0.0048,0.002 -0.0072,0.003 -0.0024,0.001 -0.0047,0.002 -0.007,0.003 -0.0024,0.001 -0.0045,0.002 -0.0067,0.003 -0.0021,0.001 -0.0043,0.002 -0.0065,0.003 -0.0021,0.001 -0.0042,0.002 -0.0062,0.003 -0.0021,0.001 -0.004,0.002 -0.006,0.003 -0.0019,7.9e-4 -0.0038,0.002 -0.0058,0.003 -0.0019,7.9e-4 -0.0037,0.002 -0.0055,0.003 -0.0019,7.9e-4 -0.0034,0.002 -0.0052,0.002 -0.0016,7.9e-4 -0.0032,0.002 -0.0048,0.002 -0.0016,7.9e-4 -0.0031,0.002 -0.0046,0.002 -0.0013,7.9e-4 -0.0028,0.001 -0.0042,0.002 -0.0013,7.9e-4 -0.0026,10e-4 -0.0039,0.002 -0.0013,5.3e-4 -0.0024,0.001 -0.0036,0.002 -0.0011,5.2e-4 -0.0021,0.001 -0.0033,0.002 -0.0011,5.3e-4 -0.0019,10e-4 -0.0028,0.002 -7.94e-4,5.3e-4 -0.0016,0.001 -0.0026,0.002 -7.94e-4,5.3e-4 -0.0016,8e-4 -0.0021,0.001 -5.3e-4,2.6e-4 -0.0013,7.9e-4 -0.0019,0.001 -5.29e-4,2.7e-4 -0.0011,5.3e-4 -0.0016,8e-4 -5.29e-4,2.6e-4 -0.0011,5.3e-4 -0.0013,7.9e-4 0,0 0.217937,-0.14153 0.217937,-0.14153 z"
       inkscape:connector-curvature="0" />
    <path
       style="fill:#000000;fill-opacity:1;fill-rule:nonzero;stroke:none;stroke-width:2.06375003;stroke-linecap:butt;stroke-linejoin:miter;stroke-miterlimit:4;stroke-dasharray:none;stroke-dashoffset:0;stroke-opacity:1"
       id="path4706"
       d="m 86.17288,161.12915 c 2.25e-4,-1.4e-4 7.94e-4,-5.3e-4 7.94e-4,-5.3e-4 -0.07232,0.047 -0.144637,0.0939 -0.216961,0.14088 -5.29e-4,2.7e-4 0.0011,-7.9e-4 0.0013,-0.001 0.07298,-0.0474 0.14596,-0.0948 0.21894,-0.14217 0.0011,-5.3e-4 0.0019,-0.001 0.0029,-0.002 7.94e-4,-5.2e-4 0.0016,-10e-4 0.0026,-0.002 0.0011,-5.3e-4 0.0021,-0.001 0.003,-0.002 0.0011,-7.9e-4 0.0021,-0.001 0.0034,-0.002 0.0013,-8e-4 0.0024,-10e-4 0.0036,-0.002 0.0013,-7.9e-4 0.0026,-0.002 0.004,-0.002 0.0013,-7.9e-4 0.0029,-0.002 0.0043,-0.002 0.0016,-7.9e-4 0.0031,-0.002 0.0047,-0.002 0.0016,-7.9e-4 0.0033,-0.002 0.005,-0.002 0.0019,-7.9e-4 0.0035,-0.002 0.0053,-0.003 0.0019,-8e-4 0.0036,-0.002 0.0054,-0.003 0.0019,-7.9e-4 0.0038,-0.002 0.0057,-0.003 0.0019,-0.001 0.004,-0.002 0.006,-0.003 0.0021,-0.001 0.0042,-0.002 0.0062,-0.003 0.0021,-0.001 0.0043,-0.002 0.0065,-0.003 0.0021,-0.001 0.0044,-0.002 0.0067,-0.003 0.0024,-0.001 0.0047,-0.002 0.007,-0.003 0.0024,-0.001 0.0048,-0.002 0.0072,-0.003 0.0026,-0.001 0.0051,-0.002 0.0076,-0.003 0.0026,-0.001 0.0053,-0.002 0.0079,-0.003 0.0027,-0.001 0.0055,-0.002 0.0082,-0.003 0.0028,-0.001 0.0056,-0.002 0.0084,-0.003 0.0029,-0.001 0.0058,-0.002 0.0087,-0.003 0.003,-7.9e-4 0.006,-0.002 0.0089,-0.003 0.0031,-7.9e-4 0.0061,-0.002 0.0092,-0.003 0.0031,-8e-4 0.0063,-0.002 0.0094,-0.002 0.0032,-7.9e-4 0.0064,-0.002 0.0096,-0.002 0.0033,-7.9e-4 0.0065,-0.002 0.0098,-0.002 0.0033,-8e-4 0.0067,-0.001 0.01003,-0.002 0.0034,-7.9e-4 0.0067,-0.001 0.01011,-0.002 0.0034,-5.3e-4 0.0069,-0.001 0.01032,-0.002 0.0035,-5.3e-4 0.0069,-0.001 0.01042,-0.002 0.0035,-5.3e-4 0.0071,-0.001 0.01061,-0.002 0.0036,-5.3e-4 0.0071,-7.9e-4 0.01069,-0.001 0.0036,-5.3e-4 0.0072,-8e-4 0.01085,-0.001 0.0037,-2.7e-4 0.0073,-7.9e-4 0.01101,-0.001 0.0037,-2.6e-4 0.0075,-7.9e-4 0.01119,-10e-4 0.0038,-2.6e-4 0.0075,-5.3e-4 0.01127,-0.001 0.0038,-2.6e-4 0.0076,-5.2e-4 0.01148,-7.9e-4 0.0039,-2.6e-4 0.0078,-5.3e-4 0.01164,-7.9e-4 0.0039,-2.2e-4 0.0079,-5.3e-4 0.01177,-5.3e-4 0.004,-1.9e-4 0.008,-2.7e-4 0.01196,-5.3e-4 0.004,-1.4e-4 0.008,-2.6e-4 0.01209,-2.7e-4 0.0041,-1.1e-4 0.0082,-2.5e-4 0.01225,-2.6e-4 0.0041,-9e-5 0.0082,-1.7e-4 0.01228,-2.4e-4 0.0041,-9e-5 0.0083,-1.3e-4 0.01243,-1.7e-4 0.0042,-5e-5 0.0083,-7e-5 0.01251,-7e-5 0.0042,-1e-5 0.0084,0 0.01259,0 0.0042,10e-6 0.0084,5e-5 0.01262,9e-5 0.0042,4e-5 0.0084,7e-5 0.01267,1.1e-4 0.0043,2e-5 0.0085,8e-5 0.01278,1.4e-4 0.0043,8e-5 0.0086,1.3e-4 0.01286,2.2e-4 0.0043,9e-5 0.0086,2e-4 0.01291,2.6e-4 0.0043,1.1e-4 0.0086,2.7e-4 0.01294,5.3e-4 0.0043,1.6e-4 0.0087,2.7e-4 0.01302,5.3e-4 0.0043,1.9e-4 0.0087,5.3e-4 0.01304,8e-4 0.0044,2.6e-4 0.0088,5.2e-4 0.01315,7.9e-4 0.0044,2.6e-4 0.0088,5.3e-4 0.01315,7.9e-4 0.0044,2.7e-4 0.0089,5.3e-4 0.01328,0.001 0.0044,2.7e-4 0.0088,8e-4 0.01326,0.001 0.0045,2.6e-4 0.0089,7.9e-4 0.01339,10e-4 0.0045,2.6e-4 0.0089,7.9e-4 0.01341,0.001 0.0045,2.6e-4 0.0089,7.9e-4 0.01344,0.001 0.0045,2.7e-4 0.009,8e-4 0.01347,0.001 0.0045,5.3e-4 0.009,7.9e-4 0.01352,0.001 0.0045,5.3e-4 0.009,7.9e-4 0.01355,0.001 0.0046,5.3e-4 0.0091,8e-4 0.01365,10e-4 0.0046,5.3e-4 0.0092,0.001 0.01373,0.001 0.0046,5.3e-4 0.0092,0.001 0.01378,0.001 0.0046,5.3e-4 0.0092,0.001 0.01381,0.001 0.0046,5.2e-4 0.0092,7.9e-4 0.01386,0.001 0.0047,5.3e-4 0.0093,7.9e-4 0.01397,0.001 0.0047,5.3e-4 0.0093,7.9e-4 0.01402,10e-4 0.0047,5.3e-4 0.0094,8e-4 0.01413,0.001 0.0047,5.3e-4 0.0094,7.9e-4 0.01418,0.001 0.0047,2.6e-4 0.0095,7.9e-4 0.01423,0.001 0.0048,2.7e-4 0.0096,8e-4 0.01431,0.001 0.0048,2.7e-4 0.0095,8e-4 0.01426,0.001 0.0048,2.6e-4 0.0096,7.9e-4 0.01437,10e-4 0.0048,2.6e-4 0.0096,7.9e-4 0.01439,0.001 0.0048,2.6e-4 0.0097,7.9e-4 0.01447,0.001 0.0048,2.6e-4 0.0097,7.9e-4 0.01452,0.001 0.0049,2.7e-4 0.0097,5.3e-4 0.01458,0.001 0.0048,2.7e-4 0.0097,5.3e-4 0.01455,0.001 0.0049,2.6e-4 0.0097,5.3e-4 0.01458,7.9e-4 0.0049,2.7e-4 0.0098,5.3e-4 0.01466,8e-4 0.0049,2.6e-4 0.0098,5.3e-4 0.01469,7.9e-4 0.0049,2.7e-4 0.0098,5.3e-4 0.01476,8e-4 0.0049,2.6e-4 0.0098,5.2e-4 0.01479,7.9e-4 0.0049,2.5e-4 0.0099,5.3e-4 0.01479,7.9e-4 0.0049,2.6e-4 0.0098,5.3e-4 0.01474,8e-4 0.0049,2e-4 0.0098,2.6e-4 0.01471,5.3e-4 0.0049,1.5e-4 0.0098,2.6e-4 0.01466,5.2e-4 0.0049,1.2e-4 0.0098,2.3e-4 0.01463,2.7e-4 0.0049,1.1e-4 0.0098,2.1e-4 0.01466,2.6e-4 0.0049,9e-5 0.0098,1.1e-4 0.01463,1.4e-4 0.0049,3e-5 0.0098,6e-5 0.01466,5e-5 0.0049,1e-5 0.0097,-4e-5 0.01461,-9e-5 0.0048,-3e-5 0.0097,-1.1e-4 0.01452,-1.9e-4 0.0048,-9e-5 0.0097,-1.7e-4 0.01455,-2.5e-4 0.0048,-8e-5 0.0097,-2.2e-4 0.01447,-2.6e-4 0.0048,-1.5e-4 0.0096,-2.7e-4 0.01442,-5.3e-4 0.0048,-1.4e-4 0.0096,-2.7e-4 0.01442,-5.3e-4 0.0048,-1.7e-4 0.0096,-2.7e-4 0.01442,-5.3e-4 0.0048,-2e-4 0.0096,-5.3e-4 0.01437,-8e-4 0.0048,-2.2e-4 0.0096,-5.3e-4 0.01437,-7.9e-4 0.0048,-2.6e-4 0.0095,-5.3e-4 0.01429,-7.9e-4 0.0048,-2.7e-4 0.0095,-5.3e-4 0.01429,-8e-4 0.0047,-2.6e-4 0.0095,-7.9e-4 0.01418,-0.001 0.0047,-2.6e-4 0.0095,-7.9e-4 0.01421,-0.001 0.0047,-2.7e-4 0.0094,-8e-4 0.01416,-0.001 0.0047,-2.7e-4 0.0094,-8e-4 0.01413,-0.001 0.0047,-2.7e-4 0.0094,-7.9e-4 0.01408,-10e-4 0.0047,-5.3e-4 0.0093,-7.9e-4 0.01402,-0.001 0.0047,-5.3e-4 0.0093,-8e-4 0.014,-0.001 0.0047,-5.3e-4 0.0093,-0.001 0.01392,-0.002 0.0046,-5.3e-4 0.0092,-0.001 0.01381,-0.002 0.0046,-5.3e-4 0.0092,-0.001 0.01376,-0.002 0.0046,-5.3e-4 0.0092,-0.001 0.01373,-0.002 0.0046,-5.3e-4 0.0092,-10e-4 0.01376,-0.002 0.0046,-5.3e-4 0.0091,-0.001 0.01371,-0.002 0.0045,-5.3e-4 0.0091,-0.001 0.01363,-0.002 0.0045,-7.9e-4 0.0091,-10e-4 0.01368,-0.002 0.0045,-7.9e-4 0.0091,-0.002 0.01363,-0.002 0.0045,-7.9e-4 0.009,-0.002 0.01355,-0.002 0.0045,-7.9e-4 0.0089,-0.002 0.01342,-0.003 0.0045,-7.9e-4 0.0089,-0.002 0.01336,-0.003 0.0044,-7.9e-4 0.0089,-0.002 0.01336,-0.003 0.0044,-0.001 0.0089,-0.002 0.01334,-0.003 0.0044,-10e-4 0.0089,-0.002 0.01331,-0.003 0.0044,-0.001 0.0088,-0.002 0.01323,-0.003 0.0044,-10e-4 0.0088,-0.002 0.01318,-0.003 0.0043,-0.001 0.0087,-0.002 0.01299,-0.003 0.0043,-10e-4 0.0086,-0.002 0.01291,-0.003 0.0043,-0.001 0.0085,-0.002 0.01278,-0.004 0.0042,-0.001 0.0084,-0.002 0.01259,-0.004 0.0042,-0.001 0.0083,-0.003 0.01246,-0.004 0.0041,-0.001 0.0083,-0.003 0.01236,-0.004 0.0041,-0.001 0.0081,-0.003 0.0122,-0.004 0.004,-0.001 0.0081,-0.003 0.01209,-0.004 0.004,-0.001 0.008,-0.003 0.01199,-0.004 0.0039,-0.001 0.0079,-0.003 0.01183,-0.004 0.0039,-0.002 0.0078,-0.003 0.01164,-0.005 0.0038,-0.002 0.0077,-0.003 0.01151,-0.005 0.0038,-0.002 0.0076,-0.003 0.01135,-0.005 0.0037,-0.002 0.0075,-0.003 0.01119,-0.005 0.0037,-0.002 0.0074,-0.003 0.01117,-0.005 0.0037,-0.002 0.0074,-0.003 0.01103,-0.005 0.0037,-0.002 0.0073,-0.003 0.01101,-0.005 0.0037,-0.002 0.0074,-0.003 0.01106,-0.005 0.0037,-0.002 0.0073,-0.003 0.01098,-0.005 0.0037,-0.002 0.0073,-0.003 0.01101,-0.005 0.0037,-0.002 0.0073,-0.003 0.01095,-0.005 0.003,-0.001 0.006,-0.003 0.009,-0.004 0,0 -0.217937,0.14153 -0.217937,0.14153 v 0 c -0.003,10e-4 -0.006,0.003 -0.009,0.004 -0.0037,0.002 -0.0073,0.003 -0.01095,0.005 -0.0037,0.002 -0.0073,0.003 -0.01101,0.005 -0.0037,0.002 -0.0073,0.003 -0.01098,0.005 -0.0037,0.002 -0.0074,0.003 -0.01106,0.005 -0.0037,0.002 -0.0073,0.003 -0.01101,0.005 -0.0037,0.002 -0.0074,0.003 -0.01103,0.005 -0.0037,0.002 -0.0074,0.003 -0.01117,0.005 -0.0037,0.002 -0.0074,0.003 -0.01119,0.005 -0.0038,0.002 -0.0075,0.003 -0.01135,0.005 -0.0038,0.002 -0.0076,0.003 -0.01151,0.005 -0.0039,0.002 -0.0078,0.003 -0.01164,0.005 -0.0039,0.002 -0.0079,0.003 -0.01183,0.005 -0.004,0.002 -0.008,0.003 -0.01199,0.004 -0.004,0.001 -0.008,0.003 -0.01209,0.004 -0.004,0.001 -0.0081,0.003 -0.0122,0.004 -0.0041,0.001 -0.0082,0.003 -0.01236,0.004 -0.0042,0.001 -0.0083,0.003 -0.01246,0.004 -0.0042,0.001 -0.0084,0.003 -0.01259,0.004 -0.0043,0.001 -0.0085,0.002 -0.01278,0.004 -0.0043,0.001 -0.0086,0.002 -0.01291,0.004 -0.0043,0.001 -0.0087,0.002 -0.01299,0.003 -0.0044,0.001 -0.0088,0.002 -0.01318,0.003 -0.0044,0.001 -0.0088,0.002 -0.01323,0.003 -0.0044,0.001 -0.0089,0.002 -0.01331,0.003 -0.0044,0.001 -0.0089,0.002 -0.01333,0.003 -0.0044,0.001 -0.0089,0.002 -0.01336,0.003 -0.0044,7.9e-4 -0.0089,0.002 -0.01336,0.003 -0.0045,8e-4 -0.0089,0.002 -0.01341,0.003 -0.0045,7.9e-4 -0.009,0.002 -0.01355,0.002 -0.0045,7.9e-4 -0.0091,0.002 -0.01363,0.002 -0.0046,8e-4 -0.0091,0.002 -0.01368,0.002 -0.0046,7.9e-4 -0.0091,0.001 -0.01363,0.002 -0.0046,8e-4 -0.0091,0.001 -0.01371,0.002 -0.0046,5.3e-4 -0.0092,0.001 -0.01376,0.002 -0.0046,5.3e-4 -0.0092,0.001 -0.01373,0.002 -0.0046,5.3e-4 -0.0092,0.001 -0.01376,0.002 -0.0046,5.3e-4 -0.0092,0.001 -0.01381,0.002 -0.0046,5.3e-4 -0.0093,0.001 -0.01392,0.002 -0.0047,5.3e-4 -0.0093,8e-4 -0.014,0.001 -0.0047,5.3e-4 -0.0093,7.9e-4 -0.01402,0.001 -0.0047,5.3e-4 -0.0094,7.9e-4 -0.01408,0.001 -0.0047,2.6e-4 -0.0094,7.9e-4 -0.01413,10e-4 -0.0047,2.6e-4 -0.0094,7.9e-4 -0.01415,0.001 -0.0047,2.7e-4 -0.0095,8e-4 -0.01421,0.001 -0.0047,2.7e-4 -0.0095,8e-4 -0.01418,0.001 -0.0048,2.7e-4 -0.0095,5.3e-4 -0.01429,7.9e-4 -0.0048,2.7e-4 -0.0095,5.3e-4 -0.01429,8e-4 -0.0048,2.6e-4 -0.0096,5.3e-4 -0.01437,7.9e-4 -0.0048,2.4e-4 -0.0096,5.3e-4 -0.01437,8e-4 -0.0048,2e-4 -0.0096,5.3e-4 -0.01442,5.3e-4 -0.0048,1.7e-4 -0.0096,2.6e-4 -0.01442,5.2e-4 -0.0048,1.5e-4 -0.0096,2.7e-4 -0.01442,5.3e-4 -0.0048,1.5e-4 -0.0097,2.7e-4 -0.01447,2.7e-4 -0.0048,8e-5 -0.0097,1.6e-4 -0.01455,2.4e-4 -0.0048,8e-5 -0.0097,1.7e-4 -0.01453,2e-4 -0.0049,5e-5 -0.0097,1e-4 -0.01461,9e-5 -0.0049,0 -0.0098,-2e-5 -0.01466,-5e-5 -0.0049,-3e-5 -0.0098,-6e-5 -0.01463,-1.4e-4 -0.0049,-7e-5 -0.0098,-1.8e-4 -0.01466,-2.7e-4 -0.0049,-1e-4 -0.0098,-2.1e-4 -0.01463,-2.6e-4 -0.0049,-1.3e-4 -0.0098,-2.6e-4 -0.01466,-5.3e-4 -0.0049,-1.6e-4 -0.0098,-2.6e-4 -0.01471,-5.3e-4 -0.0049,-2e-4 -0.0098,-5.3e-4 -0.01474,-7.9e-4 -0.0049,-2.5e-4 -0.0099,-5.3e-4 -0.01479,-8e-4 -0.0049,-2.5e-4 -0.0098,-5.2e-4 -0.01479,-7.9e-4 -0.0049,-2.6e-4 -0.0098,-5.3e-4 -0.01476,-7.9e-4 -0.0049,-2.7e-4 -0.0098,-5.3e-4 -0.01468,-8e-4 -0.0049,-2.6e-4 -0.0098,-5.3e-4 -0.01466,-7.9e-4 -0.0049,-2.7e-4 -0.0097,-5.3e-4 -0.01458,-7.9e-4 -0.0048,-2.7e-4 -0.0097,-5.3e-4 -0.01455,-0.001 -0.0049,-2.7e-4 -0.0097,-5.3e-4 -0.01458,-0.001 -0.0048,-2.7e-4 -0.0097,-7.9e-4 -0.01453,-0.001 -0.0048,-2.6e-4 -0.0097,-7.9e-4 -0.01447,-0.001 -0.0048,-2.6e-4 -0.0096,-7.9e-4 -0.01439,-0.001 -0.0048,-2.6e-4 -0.0096,-7.9e-4 -0.01437,-10e-4 -0.0048,-2.7e-4 -0.0095,-8e-4 -0.01426,-0.001 -0.0048,-2.7e-4 -0.0096,-8e-4 -0.01431,-0.001 -0.0047,-2.7e-4 -0.0095,-7.9e-4 -0.01423,-0.001 -0.0047,-2.6e-4 -0.0094,-7.9e-4 -0.01418,-0.001 -0.0047,-5.3e-4 -0.0094,-7.9e-4 -0.01413,-0.001 -0.0047,-5.3e-4 -0.0093,-7.9e-4 -0.01402,-10e-4 -0.0047,-5.3e-4 -0.0093,-8e-4 -0.01397,-0.001 -0.0046,-5.3e-4 -0.0092,-7.9e-4 -0.01387,-0.001 -0.0046,-5.3e-4 -0.0092,-0.001 -0.01381,-0.001 -0.0046,-5.3e-4 -0.0092,-0.001 -0.01379,-0.001 -0.0046,-5.2e-4 -0.0092,-0.001 -0.01373,-0.001 -0.0046,-5.3e-4 -0.0091,-10e-4 -0.01365,-10e-4 -0.0045,-5.3e-4 -0.009,-7.9e-4 -0.01355,-0.001 -0.0045,-5.3e-4 -0.009,-8e-4 -0.01352,-0.001 -0.0045,-5.3e-4 -0.009,-7.9e-4 -0.01347,-0.001 -0.0045,-5.3e-4 -0.0089,-7.9e-4 -0.01344,-0.001 -0.0045,-2.6e-4 -0.0089,-7.9e-4 -0.01341,-10e-4 -0.0045,-2.6e-4 -0.0089,-7.9e-4 -0.01339,-0.001 -0.0044,-2.7e-4 -0.0088,-8e-4 -0.01326,-0.001 -0.0044,-2.7e-4 -0.0089,-5.3e-4 -0.01328,-0.001 -0.0044,-2.7e-4 -0.0088,-5.3e-4 -0.01315,-8e-4 -0.0044,-2.6e-4 -0.0088,-5.2e-4 -0.01315,-7.9e-4 -0.0043,-2.6e-4 -0.0087,-5.3e-4 -0.01304,-7.9e-4 -0.0043,-2e-4 -0.0087,-2.7e-4 -0.01302,-5.3e-4 -0.0043,-1.7e-4 -0.0086,-2.7e-4 -0.01294,-5.3e-4 -0.0043,-10e-5 -0.0086,-2e-4 -0.01291,-2.7e-4 -0.0043,-8e-5 -0.0086,-1.4e-4 -0.01286,-2.1e-4 -0.0043,-7e-5 -0.0085,-1.2e-4 -0.01278,-1.5e-4 -0.0042,-3e-5 -0.0084,-7e-5 -0.01267,-10e-5 -0.0042,-4e-5 -0.0084,-8e-5 -0.01262,-1e-4 -0.0042,0 -0.0084,0 -0.01259,0 -0.0042,1e-5 -0.0083,2e-5 -0.01252,7e-5 -0.0042,4e-5 -0.0083,8e-5 -0.01244,1.7e-4 -0.0041,8e-5 -0.0082,1.6e-4 -0.01228,2.5e-4 -0.0041,1e-4 -0.0082,2.3e-4 -0.01225,2.6e-4 -0.004,1.2e-4 -0.008,2.4e-4 -0.01209,2.6e-4 -0.004,1.5e-4 -0.008,2.7e-4 -0.01196,5.3e-4 -0.0039,2.1e-4 -0.0079,5.3e-4 -0.01177,5.3e-4 -0.0039,2.2e-4 -0.0078,5.3e-4 -0.01164,8e-4 -0.0038,2.6e-4 -0.0076,5.3e-4 -0.01148,7.9e-4 -0.0038,2.6e-4 -0.0075,5.3e-4 -0.01127,0.001 -0.0037,2.6e-4 -0.0075,7.9e-4 -0.01119,10e-4 -0.0037,2.6e-4 -0.0073,7.9e-4 -0.01101,0.001 -0.0036,2.6e-4 -0.0072,7.9e-4 -0.01085,0.001 -0.0036,5.3e-4 -0.0071,8e-4 -0.01069,0.001 -0.0035,5.3e-4 -0.0071,0.001 -0.01061,0.002 -0.0035,5.3e-4 -0.007,10e-4 -0.01043,0.002 -0.0034,5.3e-4 -0.0069,0.001 -0.01032,0.002 -0.0034,5.3e-4 -0.0067,0.001 -0.01013,0.002 -0.0034,5.2e-4 -0.0067,10e-4 -0.01003,0.002 -0.0033,8e-4 -0.0065,0.001 -0.0098,0.002 -0.0032,7.9e-4 -0.0064,0.002 -0.0096,0.002 -0.0031,7.9e-4 -0.0063,0.002 -0.0094,0.002 -0.0031,8e-4 -0.0061,0.002 -0.0092,0.003 -0.003,7.9e-4 -0.006,0.002 -0.0089,0.003 -0.0029,7.9e-4 -0.0058,0.002 -0.0087,0.003 -0.0028,0.001 -0.0056,0.002 -0.0084,0.003 -0.0027,0.001 -0.0054,0.002 -0.0082,0.003 -0.0026,0.001 -0.0053,0.002 -0.0079,0.003 -0.0026,0.001 -0.0051,0.002 -0.0076,0.003 -0.0024,8e-4 -0.0048,0.002 -0.0072,0.003 -0.0024,0.001 -0.0047,0.002 -0.007,0.003 -0.0021,0.001 -0.0045,0.002 -0.0067,0.003 -0.0021,0.001 -0.0043,0.002 -0.0065,0.003 -0.0021,0.001 -0.0042,0.002 -0.0062,0.003 -0.0019,0.001 -0.004,0.002 -0.006,0.003 -0.0019,8e-4 -0.0038,0.002 -0.0057,0.003 -0.0019,8e-4 -0.0036,0.002 -0.0054,0.003 -0.0019,7.9e-4 -0.0035,0.002 -0.0053,0.003 -0.0016,7.9e-4 -0.0033,0.002 -0.005,0.002 -0.0016,7.9e-4 -0.0031,0.002 -0.0047,0.002 -0.0013,7.9e-4 -0.0029,0.002 -0.0043,0.002 -0.0013,7.9e-4 -0.0026,0.002 -0.004,0.002 -0.0013,7.9e-4 -0.0024,0.001 -0.0036,0.002 -0.0011,5.3e-4 -0.0021,10e-4 -0.0034,0.002 -0.0011,5.3e-4 -0.0021,0.001 -0.003,0.002 -7.94e-4,5.3e-4 -0.0016,0.001 -0.0026,0.002 -0.0011,5.3e-4 -0.0019,10e-4 -0.0029,0.002 0.492242,-0.31969 0.08326,-0.054 -0.0041,0.003 0,0 0.217934,-0.14153 0.217934,-0.14153 z"
       inkscape:connector-curvature="0" />
    <path
       style="fill:#8dd1ff;fill-opacity:1;fill-rule:nonzero;stroke:none;stroke-width:2.06375003;stroke-linecap:butt;stroke-linejoin:miter;stroke-miterlimit:4;stroke-dasharray:none;stroke-dashoffset:0;stroke-opacity:1"
       d="m 85.937126,161.94392 c 0.08011,-0.0542 0.162103,-0.10552 0.24292,-0.15864 -0.07526,0.0489 -0.150521,0.0978 -0.22582,0.14664 0.144512,-0.0937 0.28913,-0.21037 0.46786,-0.22311 0.373511,-0.0562 0.746946,0.0421 1.121101,0.0275 0.116162,-0.007 0.233218,-0.0344 0.33408,-0.0942 -0.160961,0.10889 -0.332032,0.23148 -0.534516,0.23421 -0.255598,0.0145 -0.509267,-0.0314 -0.764268,-0.0401 -0.203477,-0.0108 -0.417009,-0.005 -0.604632,0.0818 0.05716,-0.0377 0.114641,-0.075 0.172614,-0.1114 -0.0511,0.0333 -0.165371,0.10763 -0.176461,0.11428 0.06345,-0.041 0.12658,-0.0825 0.190184,-0.12332 -0.07357,0.0499 -0.149803,0.0963 -0.223062,0.14637 z"
       id="path4710"
       inkscape:connector-curvature="0" />
    <path
       style="fill:#8dd1ff;fill-opacity:1;stroke-width:0.26458332"
       id="path5075"
       d="m 89.078976,162.04044 c -0.0016,-7e-5 -0.0034,-2e-4 -0.0052,-2.4e-4 -0.0016,-5e-5 -0.0032,3e-5 -0.0048,1e-4 -0.0019,5e-5 -0.0037,2.5e-4 -0.0056,5.3e-4 -0.0021,2.3e-4 -0.0042,5.3e-4 -0.0063,0.001 -0.0024,5.2e-4 -0.0047,0.001 -0.007,0.002 -0.0026,8e-4 -0.0051,10e-4 -0.0076,0.002 -0.0028,7.9e-4 -0.0056,0.002 -0.0083,0.003 -0.0031,10e-4 -0.0061,0.002 -0.0091,0.004 -0.0033,0.001 -0.0065,0.003 -0.0098,0.005 -0.0035,0.002 -0.0069,0.003 -0.01026,0.005 -0.0036,0.002 -0.0071,0.004 -0.01058,0.006 0.199038,-0.11071 0.144457,-0.086 0.104683,-0.0598 -0.0038,0.002 -0.0074,0.005 -0.01101,0.008 -0.0038,0.003 -0.0074,0.006 -0.01106,0.009 -0.0037,0.003 -0.0074,0.006 -0.01098,0.009 -0.0037,0.003 -0.0073,0.007 -0.01087,0.0103 -0.0037,0.004 -0.0072,0.008 -0.01069,0.0116 -0.0036,0.004 -0.007,0.008 -0.01032,0.0126 -0.0034,0.004 -0.0067,0.009 -0.0099,0.0136 -0.0033,0.005 -0.0065,0.01 -0.0096,0.0145 -0.0032,0.005 -0.0062,0.0102 -0.0092,0.0154 -0.0031,0.005 -0.006,0.0108 -0.0089,0.0162 -0.003,0.006 -0.0058,0.0113 -0.0085,0.017 -0.0028,0.006 -0.0054,0.0119 -0.008,0.0178 -0.0026,0.006 -0.0051,0.0123 -0.0075,0.0185 -0.0024,0.006 -0.0048,0.0128 -0.007,0.0193 -0.0024,0.007 -0.0044,0.0132 -0.0065,0.0199 -0.0021,0.007 -0.004,0.0134 -0.0059,0.0202 -0.0019,0.007 -0.0035,0.0136 -0.0052,0.0204 -0.0016,0.007 -0.003,0.0137 -0.0044,0.0205 -0.0013,0.007 -0.0024,0.0136 -0.0034,0.0204 -0.0011,0.007 -0.0019,0.0133 -0.0024,0.02 -5.29e-4,0.006 -7.93e-4,0.0129 -0.0011,0.0194 -1.22e-4,0.006 6.9e-5,0.0125 2.65e-4,0.0188 2.64e-4,0.006 0.0011,0.012 0.0016,0.018 7.94e-4,0.006 0.0016,0.0115 0.0028,0.0172 0.0011,0.005 0.0024,0.0109 0.004,0.0163 0.0016,0.005 0.0032,0.0104 0.0051,0.0155 0.0019,0.005 0.004,0.01 0.0062,0.0145 0.0021,0.005 0.0046,0.009 0.0071,0.0137 0.0026,0.004 0.0054,0.009 0.0083,0.0129 0.0029,0.004 0.0061,0.008 0.0093,0.0122 0.0032,0.004 0.0066,0.008 0.01013,0.0116 0.0035,0.004 0.0072,0.007 0.01095,0.0109 0.0038,0.004 0.0077,0.007 0.01175,0.0102 0.0041,0.003 0.0083,0.006 0.01262,0.01 0.0044,0.003 0.0089,0.006 0.01347,0.009 0.0046,0.003 0.0093,0.006 0.0141,0.008 0.0049,0.003 0.0098,0.005 0.01484,0.008 0.0051,0.002 0.01016,0.005 0.01532,0.007 0.0052,0.002 0.01048,0.004 0.01579,0.007 0.0053,0.002 0.01077,0.004 0.01622,0.006 0.0055,0.002 0.01101,0.003 0.01656,0.005 0.0055,0.002 0.01109,0.003 0.01669,0.004 0.0056,0.001 0.01119,0.002 0.01683,0.003 0.0056,10e-4 0.01119,0.002 0.0168,0.002 0.0056,5.3e-4 0.01114,0.001 0.01672,0.001 0.0055,2.7e-4 0.01106,5.3e-4 0.01662,5.3e-4 0.0055,3e-5 0.01101,-1e-4 0.01651,-2.6e-4 0.0056,-2.3e-4 0.01109,-8e-4 0.01662,-0.001 0.0055,-5.3e-4 0.01103,-0.001 0.01654,-0.002 0.0055,-7.9e-4 0.01095,-0.002 0.01643,-0.003 0.0055,-0.001 0.0109,-0.002 0.0163,-0.004 0.0055,-0.001 0.01087,-0.003 0.01624,-0.005 0.0054,-0.002 0.01074,-0.004 0.01606,-0.006 0.0053,-0.002 0.01061,-0.004 0.01587,-0.006 0.0053,-0.002 0.01048,-0.005 0.01564,-0.007 0.0052,-0.003 0.01024,-0.005 0.01529,-0.008 0.051,-0.0293 -0.155366,0.0923 -0.09991,0.0574 0.0049,-0.003 0.0098,-0.007 0.0145,-0.01 0.0047,-0.003 0.0093,-0.007 0.01384,-0.0108 0.0046,-0.004 0.009,-0.008 0.01331,-0.0117 0.0044,-0.004 0.0087,-0.008 0.01283,-0.0126 0.0042,-0.004 0.0083,-0.009 0.01236,-0.0135 0.0041,-0.005 0.008,-0.009 0.01188,-0.0143 0.0039,-0.005 0.0077,-0.01 0.01146,-0.0151 0.0038,-0.005 0.0074,-0.0105 0.01101,-0.0158 0.0036,-0.005 0.007,-0.0108 0.01032,-0.0163 0.0033,-0.005 0.0065,-0.011 0.0096,-0.0166 0.003,-0.006 0.0059,-0.0113 0.0087,-0.017 0.0028,-0.006 0.0054,-0.0114 0.0079,-0.0172 0.0024,-0.006 0.0047,-0.0115 0.0069,-0.0172 0.0021,-0.006 0.004,-0.0115 0.0058,-0.0173 0.0019,-0.006 0.0033,-0.0114 0.0046,-0.0172 0.0013,-0.006 0.0024,-0.0113 0.0033,-0.0171 7.93e-4,-0.006 0.0016,-0.0112 0.0021,-0.0168 5.29e-4,-0.005 7.94e-4,-0.011 0.0011,-0.0165 1.82e-4,-0.005 1.58e-4,-0.0108 1.3e-5,-0.0162 -1.51e-4,-0.005 -5.29e-4,-0.0107 -0.0011,-0.0161 -5.29e-4,-0.005 -0.0013,-0.0106 -0.0024,-0.0159 -0.0011,-0.005 -0.0021,-0.0104 -0.0033,-0.0156 -0.0013,-0.005 -0.0027,-0.0104 -0.0042,-0.0155 -0.0016,-0.005 -0.0032,-0.0102 -0.005,-0.0153 -0.0019,-0.005 -0.0038,-0.0101 -0.0057,-0.0151 -0.0021,-0.005 -0.0042,-0.01 -0.0065,-0.0149 -0.0024,-0.005 -0.0048,-0.01 -0.0074,-0.0145 -0.0026,-0.005 -0.0054,-0.009 -0.0083,-0.0139 -0.0029,-0.004 -0.0059,-0.009 -0.0091,-0.0131 -0.0031,-0.004 -0.0063,-0.008 -0.0097,-0.0122 -0.0033,-0.004 -0.0067,-0.008 -0.01027,-0.0114 -0.0035,-0.004 -0.0072,-0.007 -0.01098,-0.0108 -0.0038,-0.004 -0.0077,-0.007 -0.01156,-0.0107 -0.004,-0.004 -0.008,-0.007 -0.01201,-0.0108 -0.0042,-0.004 -0.0084,-0.007 -0.01254,-0.0111 -0.0043,-0.004 -0.0086,-0.008 -0.01291,-0.0114 -0.0044,-0.004 -0.0088,-0.008 -0.01315,-0.0116 -0.0045,-0.004 -0.0089,-0.008 -0.01344,-0.0117 -0.0045,-0.004 -0.0092,-0.008 -0.01386,-0.0111 -0.0046,-0.003 -0.0094,-0.007 -0.01423,-0.01 -0.0032,-0.002 -0.0016,-10e-4 -0.0048,-0.003 0,0 0.117184,-0.0677 0.117184,-0.0677 v 0 c 0.0032,0.002 0.0016,0.001 0.0048,0.003 0.0048,0.003 0.0096,0.006 0.01423,0.01 0.0047,0.004 0.0093,0.007 0.01384,0.0111 0.0045,0.004 0.009,0.008 0.01347,0.0117 0.0044,0.004 0.0088,0.008 0.01315,0.0116 0.0043,0.004 0.0086,0.008 0.01291,0.0114 0.0042,0.004 0.0084,0.007 0.01254,0.0111 0.004,0.004 0.008,0.007 0.01204,0.0108 0.0039,0.004 0.0078,0.007 0.01156,0.0107 0.0037,0.004 0.0074,0.007 0.01098,0.0108 0.0035,0.004 0.007,0.007 0.01027,0.0114 0.0033,0.004 0.0066,0.008 0.0097,0.0122 0.0031,0.004 0.0062,0.009 0.0091,0.0131 0.0029,0.005 0.0057,0.009 0.0083,0.0139 0.0026,0.005 0.0051,0.01 0.0074,0.0145 0.0024,0.005 0.0044,0.01 0.0065,0.0149 0.0021,0.005 0.0039,0.01 0.0057,0.0151 0.0019,0.005 0.0035,0.0101 0.005,0.0153 0.0016,0.005 0.0029,0.0103 0.0042,0.0155 0.0013,0.005 0.0024,0.0104 0.0033,0.0156 7.93e-4,0.005 0.0019,0.0105 0.0024,0.0158 5.29e-4,0.005 0.0011,0.0107 0.0011,0.0161 1.46e-4,0.005 1.67e-4,0.0108 -1.8e-5,0.0162 -2.2e-4,0.006 -5.3e-4,0.011 -0.0011,0.0165 -5.29e-4,0.006 -0.0013,0.0112 -0.0021,0.0168 -0.0011,0.006 -0.0021,0.0114 -0.0033,0.0171 -0.0013,0.006 -0.0029,0.0115 -0.0047,0.0172 -0.0019,0.006 -0.0037,0.0116 -0.0058,0.0173 -0.0021,0.006 -0.0045,0.0116 -0.007,0.0172 -0.0026,0.006 -0.0051,0.0115 -0.0079,0.0172 -0.0028,0.006 -0.0057,0.0114 -0.0087,0.017 -0.0031,0.006 -0.0062,0.0112 -0.0096,0.0166 -0.0034,0.005 -0.0067,0.0109 -0.01032,0.0163 -0.0036,0.005 -0.0072,0.0106 -0.01101,0.0158 -0.0037,0.005 -0.0075,0.0101 -0.01143,0.015 -0.0039,0.005 -0.0078,0.01 -0.01188,0.0143 -0.004,0.005 -0.0081,0.009 -0.01233,0.0134 -0.0042,0.004 -0.0084,0.009 -0.01281,0.0126 -0.0043,0.004 -0.0088,0.008 -0.01331,0.0117 -0.0045,0.004 -0.0091,0.007 -0.01384,0.0108 -0.0048,0.003 -0.0096,0.007 -0.01452,0.01 -0.04382,0.0276 -0.08945,0.0522 -0.134409,0.0779 -0.005,0.003 -0.01013,0.005 -0.01529,0.008 -0.0052,0.002 -0.01037,0.005 -0.01564,0.007 -0.0053,0.002 -0.01053,0.004 -0.01588,0.006 -0.0053,0.002 -0.01066,0.004 -0.01606,0.006 -0.0054,0.002 -0.01077,0.003 -0.01624,0.005 -0.0054,0.001 -0.01082,0.003 -0.0163,0.004 -0.0055,0.001 -0.01093,0.002 -0.01643,0.003 -0.0055,8e-4 -0.01101,0.002 -0.01654,0.002 -0.0055,5.3e-4 -0.01106,10e-4 -0.01662,10e-4 -0.0055,2.6e-4 -0.01101,2.6e-4 -0.01651,2.6e-4 -0.0055,-3e-5 -0.01109,-1.6e-4 -0.01662,-5.3e-4 -0.0056,-2.6e-4 -0.01117,-7.9e-4 -0.01672,-10e-4 -0.0056,-5.3e-4 -0.01122,-0.001 -0.0168,-0.002 -0.0056,-0.001 -0.01127,-0.002 -0.01683,-0.003 -0.0056,-10e-4 -0.01117,-0.003 -0.01667,-0.004 -0.0056,-0.002 -0.01109,-0.003 -0.01656,-0.005 -0.0055,-0.002 -0.01087,-0.004 -0.01622,-0.006 -0.0053,-0.002 -0.01058,-0.004 -0.0158,-0.007 -0.0052,-0.002 -0.01027,-0.005 -0.01532,-0.007 -0.005,-0.002 -0.0099,-0.005 -0.01484,-0.008 -0.0048,-0.003 -0.0095,-0.005 -0.0141,-0.008 -0.0046,-0.003 -0.0091,-0.006 -0.01349,-0.009 -0.0043,-0.003 -0.0085,-0.006 -0.01265,-0.01 -0.004,-0.003 -0.008,-0.007 -0.01175,-0.0102 -0.0037,-0.004 -0.0074,-0.007 -0.01095,-0.0109 -0.0035,-0.004 -0.0069,-0.008 -0.01013,-0.0115 -0.0032,-0.004 -0.0064,-0.008 -0.0093,-0.0122 -0.0029,-0.004 -0.0058,-0.008 -0.0083,-0.013 -0.0026,-0.005 -0.0049,-0.009 -0.0071,-0.0137 -0.0021,-0.005 -0.0044,-0.01 -0.0062,-0.0145 -0.0019,-0.005 -0.0036,-0.0102 -0.0051,-0.0155 -0.0016,-0.005 -0.0029,-0.0108 -0.0039,-0.0163 -0.0011,-0.006 -0.0021,-0.0114 -0.0028,-0.0172 -7.94e-4,-0.006 -0.0013,-0.012 -0.0016,-0.0181 -2.65e-4,-0.006 -5.29e-4,-0.0125 -2.65e-4,-0.0188 1.4e-4,-0.006 5.29e-4,-0.013 0.0011,-0.0194 5.3e-4,-0.007 0.0013,-0.0133 0.0024,-0.02 0.0011,-0.007 0.0021,-0.0136 0.0034,-0.0204 0.0013,-0.007 0.0028,-0.0137 0.0044,-0.0205 0.0016,-0.007 0.0033,-0.0137 0.0052,-0.0204 0.0019,-0.007 0.0038,-0.0135 0.0059,-0.0202 0.0021,-0.007 0.0042,-0.0133 0.0065,-0.0199 0.0021,-0.006 0.0045,-0.0129 0.007,-0.0193 0.0024,-0.006 0.0049,-0.0124 0.0075,-0.0185 0.0026,-0.006 0.0052,-0.0119 0.008,-0.0178 0.0028,-0.006 0.0056,-0.0114 0.0085,-0.017 0.0029,-0.005 0.0058,-0.0109 0.0089,-0.0162 0.003,-0.005 0.006,-0.0103 0.0092,-0.0153 0.0031,-0.005 0.0063,-0.01 0.0096,-0.0145 0.0032,-0.005 0.0065,-0.009 0.0099,-0.0136 0.0034,-0.004 0.0067,-0.008 0.01032,-0.0126 0.0035,-0.004 0.007,-0.008 0.01066,-0.0116 0.0035,-0.004 0.0071,-0.007 0.01085,-0.0103 0.0036,-0.003 0.0072,-0.006 0.01098,-0.009 0.0036,-0.003 0.0073,-0.006 0.01106,-0.009 0.0036,-0.003 0.0072,-0.005 0.01101,-0.008 0.04183,-0.0276 0.08931,-0.0464 0.129903,-0.0756 0.0035,-0.002 0.007,-0.004 0.01061,-0.006 0.0034,-0.002 0.0068,-0.004 0.01029,-0.005 0.0033,-0.002 0.0065,-0.003 0.0098,-0.005 0.003,-0.001 0.0061,-0.003 0.0091,-0.004 0.0028,-0.001 0.0056,-0.002 0.0084,-0.003 0.0026,-7.9e-4 0.0051,-0.002 0.0076,-0.002 0.0024,-5.2e-4 0.0046,-0.001 0.007,-0.002 0.0021,-5.3e-4 0.0042,-8e-4 0.0063,-10e-4 0.0019,-2e-4 0.0037,-5.3e-4 0.0056,-5.3e-4 0.0016,-7e-5 0.0032,-1.6e-4 0.0048,-1.1e-4 0.0016,4e-5 0.0033,1.5e-4 0.005,2.6e-4 0,0 -0.117366,0.0678 -0.117366,0.0678 z"
       inkscape:connector-curvature="0" />
    <g
       id="g5161"
       inkscape:export-xdpi="12434.744"
       inkscape:export-ydpi="12434.744">
      <path
         inkscape:connector-curvature="0"
         d="m 87.241155,162.463 c -3.05e-4,0.003 -6.11e-4,0.004 -0.0013,0.007 -3.06e-4,0.003 -9.17e-4,0.004 -0.0013,0.007 -6.12e-4,0.003 -9.16e-4,0.005 -0.0015,0.008 -6.11e-4,0.003 -0.0013,0.005 -0.0018,0.009 -6.1e-4,0.003 -0.0015,0.007 -0.0022,0.0104 -9.17e-4,0.004 -0.0015,0.008 -0.0024,0.0104 -9.16e-4,0.004 -0.0018,0.008 -0.0024,0.0118 -9.16e-4,0.004 -0.0018,0.009 -0.0028,0.0131 -9.16e-4,0.005 -0.0022,0.009 -0.0031,0.0141 -0.0013,0.005 -0.0022,0.0104 -0.0035,0.0148 -0.0013,0.005 -0.0024,0.0104 -0.0037,0.0155 -0.0013,0.005 -0.0028,0.0104 -0.0039,0.0162 -0.0015,0.005 -0.0028,0.0118 -0.0042,0.0171 -0.0015,0.007 -0.003,0.0118 -0.0043,0.018 -0.0015,0.007 -0.0028,0.0131 -0.0042,0.0188 -0.0015,0.007 -0.0028,0.0131 -0.004,0.0193 -0.0015,0.007 -0.0028,0.0133 -0.0042,0.0198 -0.0015,0.007 -0.003,0.0137 -0.0044,0.0206 -0.0015,0.007 -0.003,0.0142 -0.0045,0.0213 -0.0013,0.007 -0.0024,0.0118 -0.0038,0.0182 0,0 -0.135273,0.0883 -0.135273,0.0883 v 0 c 0.0013,-0.007 0.0024,-0.0118 0.0038,-0.0182 0.0015,-0.007 0.003,-0.0142 0.0045,-0.0213 0.0015,-0.007 0.003,-0.0137 0.0044,-0.0206 0.0015,-0.007 0.0028,-0.0133 0.0042,-0.0198 0.0013,-0.007 0.0028,-0.0131 0.004,-0.0193 0.0013,-0.007 0.0028,-0.0131 0.0042,-0.0188 0.0015,-0.007 0.0028,-0.0118 0.0043,-0.0179 0.0015,-0.005 0.0028,-0.0118 0.0042,-0.0171 0.0013,-0.005 0.0028,-0.0105 0.0039,-0.0162 0.0013,-0.005 0.0024,-0.0105 0.0036,-0.0155 0.0013,-0.005 0.0022,-0.0104 0.0033,-0.0148 9.17e-4,-0.005 0.0022,-0.009 0.0031,-0.014 9.17e-4,-0.004 0.0018,-0.009 0.0028,-0.0131 9.17e-4,-0.004 0.0018,-0.008 0.0024,-0.0118 9.17e-4,-0.004 0.0015,-0.008 0.0024,-0.0104 6.1e-4,-0.003 0.0013,-0.007 0.0022,-0.0104 6.11e-4,-0.003 0.0013,-0.005 0.0018,-0.009 6.12e-4,-0.003 9.17e-4,-0.005 0.0015,-0.008 3.06e-4,-0.003 9.17e-4,-0.004 0.0013,-0.007 3.05e-4,-0.003 9.15e-4,-0.004 0.0013,-0.007 0,0 0.135487,-0.0886 0.135487,-0.0886 z"
         id="path5087"
         style="fill:#8dd1ff;fill-opacity:1;stroke-width:0.32490525" />
      <path
         inkscape:connector-curvature="0"
         d="m 87.232163,162.46002 c 0.0014,2.6e-4 0.003,6.3e-4 0.0044,9.3e-4 0.0015,3.2e-4 0.0028,6.2e-4 0.0043,9.3e-4 0.0017,3.1e-4 0.0035,6.2e-4 0.0052,9.3e-4 0.0021,3.1e-4 0.0042,6.3e-4 0.0061,9.3e-4 0.0023,3.2e-4 0.0046,9.4e-4 0.007,0.001 0.0026,3.1e-4 0.0053,9.3e-4 0.0079,0.001 0.0029,3e-4 0.0057,9.2e-4 0.0086,10e-4 0.0031,6.2e-4 0.0062,0.001 0.0093,0.001 0.0033,6.2e-4 0.0067,0.001 0.01,0.002 0.0036,6.3e-4 0.0071,0.001 0.01067,0.002 0.0038,6.2e-4 0.0075,10e-4 0.01133,0.002 0.0041,9.3e-4 0.0079,0.001 0.01201,0.002 0.0043,9.2e-4 0.0085,0.001 0.01274,0.002 0.0044,9.4e-4 0.009,10e-4 0.01346,0.002 0.0046,9.4e-4 0.0094,0.001 0.01412,0.002 0.0048,9.3e-4 0.0096,0.001 0.01443,0.002 0.0049,9.3e-4 0.0099,10e-4 0.01479,0.002 0.0051,9.4e-4 0.01017,0.002 0.01526,0.002 0.0052,9.3e-4 0.01042,0.002 0.01564,0.004 0.0054,9.3e-4 0.01071,0.002 0.01607,0.004 0.0055,9.4e-4 0.01092,0.002 0.01638,0.004 0.0055,0.001 0.01118,0.002 0.01677,0.004 0.0057,0.001 0.01144,0.002 0.01718,0.004 0.0058,10e-4 0.01163,0.002 0.01747,0.004 0.0059,0.001 0.01188,0.002 0.0178,0.004 0.006,0.001 0.01211,0.002 0.01815,0.004 0.0042,9.3e-4 0.0021,3.1e-4 0.0061,10e-4 0,0 -0.104856,0.0793 -0.104856,0.0793 v 0 c -0.0041,-9.4e-4 -0.0021,-3.2e-4 -0.0061,-0.001 -0.006,-0.001 -0.01211,-0.002 -0.01815,-0.004 -0.0059,-0.001 -0.01188,-0.002 -0.0178,-0.004 -0.0058,-0.001 -0.01163,-0.002 -0.01747,-0.004 -0.0057,-0.001 -0.01147,-0.002 -0.01718,-0.004 -0.0055,-0.001 -0.01118,-0.002 -0.0168,-0.004 -0.0055,-0.001 -0.01092,-0.002 -0.01639,-0.004 -0.0054,-9.3e-4 -0.01071,-0.002 -0.01607,-0.004 -0.0052,-9.3e-4 -0.01042,-0.002 -0.01564,-0.004 -0.0051,-9.3e-4 -0.01019,-0.002 -0.01528,-0.002 -0.0049,-9.4e-4 -0.0099,-0.001 -0.01479,-0.002 -0.0048,-9.2e-4 -0.0096,-0.001 -0.01445,-0.002 -0.0047,-9.3e-4 -0.0094,-0.001 -0.01412,-0.002 -0.0044,-9.3e-4 -0.009,-0.001 -0.01348,-0.002 -0.0043,-6.2e-4 -0.0085,-0.001 -0.01277,-0.002 -0.0041,-9.3e-4 -0.008,-0.001 -0.01203,-0.002 -0.0038,-6.2e-4 -0.0075,-0.001 -0.01135,-0.002 -0.0036,-6.2e-4 -0.0072,-0.001 -0.01068,-0.002 -0.0033,-6.2e-4 -0.0067,-0.001 -0.01,-0.002 -0.0031,-6.1e-4 -0.0062,-0.001 -0.0093,-0.001 -0.0029,-6.2e-4 -0.0057,-9.2e-4 -0.0087,-0.001 -0.0026,-3.1e-4 -0.0053,-9.2e-4 -0.0079,-0.001 -0.0023,-3e-4 -0.0046,-6.2e-4 -0.007,-0.001 -0.0021,-3.1e-4 -0.0042,-6.2e-4 -0.0061,-9.3e-4 -0.0017,-2.8e-4 -0.0035,-6.2e-4 -0.0052,-9.4e-4 -0.0015,-2.8e-4 -0.0029,-6.1e-4 -0.0043,-9.2e-4 -0.0015,-3.1e-4 -0.0029,-6.2e-4 -0.0043,-9.3e-4 0,0 0.105111,-0.0795 0.105111,-0.0795 z"
         id="path5101"
         style="fill:#8dd1ff;fill-opacity:1;stroke-width:0.27110612" />
      <path
         inkscape:connector-curvature="0"
         d="m 86.912947,162.39274 c -0.0015,8.1e-4 -0.003,0.002 -0.0044,0.001 -0.0015,8.1e-4 -0.0027,0.002 -0.0041,0.001 -0.0018,7.8e-4 -0.0034,0.002 -0.005,0.003 -0.0021,7.3e-4 -0.0039,0.001 -0.0059,0.003 -0.0023,0.002 -0.0045,10e-4 -0.0068,0.004 -0.0023,0.002 -0.0049,0.003 -0.0073,0.005 -0.0027,0.002 -0.0052,0.003 -0.0077,0.005 -0.0027,0.002 -0.0055,0.004 -0.0082,0.006 -0.003,0.002 -0.0057,0.004 -0.0087,0.006 -0.0032,0.002 -0.006,0.004 -0.0091,0.007 -0.0032,0.002 -0.0063,0.005 -0.0093,0.007 -0.0033,0.002 -0.0065,0.006 -0.0097,0.009 -0.0034,0.004 -0.0066,0.006 -0.0099,0.0105 -0.0034,0.004 -0.0066,0.007 -0.0099,0.0105 -0.0034,0.004 -0.0065,0.007 -0.0097,0.0114 -0.0034,0.004 -0.0065,0.007 -0.0096,0.0126 -0.0032,0.005 -0.0063,0.009 -0.0092,0.0137 -0.0032,0.005 -0.0059,0.009 -0.0089,0.015 -0.0031,0.005 -0.0058,0.0106 -0.0085,0.0158 -0.003,0.006 -0.0056,0.0118 -0.0082,0.017 -0.0027,0.006 -0.0051,0.0119 -0.0075,0.0179 -0.0023,0.006 -0.0046,0.0126 -0.0068,0.0189 -0.0021,0.007 -0.004,0.0129 -0.0058,0.0195 -0.0018,0.007 -0.0036,0.0134 -0.0052,0.0201 -0.0018,0.007 -0.003,0.0139 -0.0041,0.0209 -0.0013,0.007 -0.0021,0.0144 -0.0032,0.0218 -8.92e-4,0.007 -0.0015,0.0149 -0.0021,0.0222 -5.95e-4,0.007 -8.92e-4,0.0151 -8.92e-4,0.0227 -1.57e-4,0.007 -1.32e-4,0.0152 4.1e-5,0.0228 2.23e-4,0.007 8.92e-4,0.0153 0.0015,0.0231 5.94e-4,0.007 0.0015,0.0154 0.0027,0.0232 0.0013,0.007 0.0023,0.0153 0.0037,0.0229 0.0015,0.007 0.0032,0.0151 0.005,0.0226 0.0018,0.007 0.0039,0.015 0.0062,0.0224 0.0023,0.007 0.0049,0.0149 0.0075,0.0222 0.0027,0.007 0.0056,0.0146 0.0087,0.0217 0.0031,0.006 0.0064,0.0141 0.0098,0.0209 0.0034,0.006 0.0071,0.0137 0.0109,0.0205 0.0037,0.006 0.0079,0.0138 0.01198,0.0197 0.0041,0.007 0.0085,0.0126 0.01315,0.0188 0.0045,0.006 0.0093,0.0118 0.0143,0.0178 0.0049,0.006 0.01008,0.009 0.01537,0.0164 0.0053,0.005 0.01079,0.009 0.01644,0.0152 0.0055,0.005 0.01132,0.0105 0.01724,0.0138 0.0058,0.005 0.01189,0.009 0.01799,0.0131 0.006,0.003 0.01224,0.008 0.01858,0.011 0.0063,0.003 0.01263,0.007 0.01906,0.0105 0.0064,0.003 0.01289,0.006 0.01947,0.009 0.0065,0.003 0.0132,0.004 0.01989,0.008 0.0066,0.002 0.0133,0.004 0.02001,0.005 0.0068,0.002 0.01346,0.004 0.02025,0.005 0.0068,0.001 0.01348,0.002 0.02021,0.004 0.0068,9.9e-4 0.0135,0.002 0.02021,0.002 0.0068,4.2e-4 0.0135,8.9e-4 0.02019,7.9e-4 0.0068,-7e-5 0.0133,-2e-4 0.01985,-0.001 0.0065,-1e-4 0.01302,-2.4e-4 0.01942,-0.002 0.0064,-0.001 0.0127,-0.002 0.01893,-0.004 0.0063,-0.001 0.01237,-0.003 0.0184,-0.006 0.06305,-0.0233 -0.169449,0.0674 -0.112411,0.0435 0.0059,-0.001 0.01168,-0.005 0.01739,-0.008 0.0057,-0.003 0.0115,-0.005 0.01716,-0.009 0.0057,-0.003 0.01129,-0.006 0.0168,-0.0105 0.0056,-0.003 0.01102,-0.006 0.01644,-0.0117 0.0055,-0.004 0.01079,-0.009 0.01599,-0.0128 0.0053,-0.004 0.0104,-0.009 0.01541,-0.0137 0.0051,-0.004 0.01,-0.0105 0.01483,-0.0148 0.005,-0.005 0.0097,-0.0105 0.0143,-0.0159 0.0047,-0.005 0.0092,-0.0113 0.01371,-0.0164 0.0045,-0.005 0.0088,-0.0114 0.01284,-0.0173 0.0041,-0.005 0.008,-0.012 0.01178,-0.0182 0.0038,-0.006 0.0074,-0.0126 0.0109,-0.0189 0.0035,-0.007 0.0069,-0.0129 0.01,-0.0193 0.0033,-0.007 0.0062,-0.0132 0.0091,-0.02 0.003,-0.007 0.0055,-0.0135 0.008,-0.0204 0.0027,-0.007 0.0047,-0.0139 0.0068,-0.0209 0.0021,-0.007 0.0037,-0.0141 0.0054,-0.0216 0.0015,-0.007 0.003,-0.0146 0.0039,-0.0219 0.0013,-0.007 0.0018,-0.0147 0.0027,-0.0221 5.95e-4,-0.007 8.92e-4,-0.0149 0.0013,-0.0221 2.05e-4,-0.007 6.6e-5,-0.0147 -2.09e-4,-0.0222 -2.6e-4,-0.007 -8.9e-4,-0.0147 -0.0015,-0.022 -8.92e-4,-0.007 -0.0018,-0.0145 -0.0031,-0.0217 -0.0013,-0.007 -0.0027,-0.0143 -0.0041,-0.0214 -0.0015,-0.007 -0.0034,-0.014 -0.0053,-0.0212 -0.0021,-0.006 -0.0042,-0.0138 -0.0065,-0.0207 -0.0023,-0.006 -0.005,-0.0136 -0.0077,-0.0204 -0.0027,-0.006 -0.0059,-0.0135 -0.0091,-0.0201 -0.0032,-0.006 -0.0065,-0.0136 -0.01008,-0.0198 -0.0036,-0.006 -0.0074,-0.0125 -0.01132,-0.0193 -0.0039,-0.007 -0.0081,-0.0126 -0.01239,-0.0188 -0.0042,-0.006 -0.0088,-0.0127 -0.0134,-0.0182 -0.0023,-0.002 -0.0047,-0.006 -0.0071,-0.009 0,0 0.130242,-0.0504 0.130242,-0.0504 v 0 c 0.0023,0.002 0.0047,0.006 0.0071,0.009 0.0046,0.006 0.0091,0.0127 0.0134,0.0182 0.0042,0.006 0.0084,0.0126 0.01239,0.0188 0.0039,0.007 0.0077,0.0125 0.01132,0.0193 0.0035,0.006 0.0069,0.0136 0.01008,0.0198 0.0033,0.006 0.0063,0.0136 0.0091,0.0201 0.0027,0.006 0.0054,0.0134 0.0077,0.0204 0.0023,0.006 0.0046,0.0137 0.0065,0.0207 0.0021,0.007 0.0037,0.014 0.0053,0.0212 0.0015,0.007 0.0031,0.0143 0.0041,0.0214 0.0013,0.007 0.0023,0.0144 0.0031,0.0217 8.92e-4,0.007 0.0015,0.0148 0.0015,0.022 2.72e-4,0.007 2.97e-4,0.0147 1.98e-4,0.0222 -2.13e-4,0.007 -5.94e-4,0.0149 -0.0013,0.0222 -5.95e-4,0.007 -0.0015,0.0149 -0.0027,0.0221 -0.0013,0.007 -0.0023,0.0147 -0.0039,0.0219 -0.0015,0.007 -0.0034,0.0144 -0.0054,0.0216 -0.0021,0.007 -0.0041,0.014 -0.0068,0.0209 -0.0023,0.007 -0.0052,0.0137 -0.008,0.0204 -0.003,0.007 -0.0058,0.0133 -0.0091,0.02 -0.0033,0.007 -0.0065,0.013 -0.01,0.0193 -0.0035,0.007 -0.0071,0.0127 -0.0109,0.0189 -0.0038,0.006 -0.0076,0.0124 -0.01178,0.0182 -0.0041,0.005 -0.0084,0.0116 -0.01284,0.0173 -0.0044,0.005 -0.009,0.0114 -0.01371,0.0165 -0.0046,0.005 -0.0093,0.0105 -0.01427,0.0158 -0.0049,0.005 -0.0098,0.0105 -0.01483,0.0148 -0.0051,0.004 -0.01008,0.009 -0.0154,0.0137 -0.0052,0.004 -0.0104,0.009 -0.01599,0.0128 -0.0054,0.004 -0.01079,0.007 -0.01644,0.0117 -0.0055,0.003 -0.01101,0.007 -0.0168,0.0105 -0.0056,0.003 -0.01139,0.006 -0.01713,0.009 -0.0057,0.003 -0.01145,0.005 -0.01736,0.008 -0.04863,0.0204 -0.09824,0.0392 -0.148169,0.0573 -0.006,0.001 -0.01214,0.004 -0.0184,0.006 -0.0063,0.001 -0.01255,0.003 -0.01893,0.004 -0.0064,0.001 -0.01284,0.002 -0.01942,0.002 -0.0065,1.1e-4 -0.01317,2.1e-4 -0.01985,0.001 -0.0068,7e-5 -0.0134,1.9e-4 -0.02019,-7.8e-4 -0.0068,-4.3e-4 -0.01348,-0.001 -0.02025,-0.002 -0.0068,-0.001 -0.0135,-0.002 -0.02022,-0.004 -0.0068,-0.001 -0.01353,-0.003 -0.02025,-0.005 -0.0068,-0.002 -0.0134,-0.004 -0.02001,-0.005 -0.0066,-0.002 -0.01332,-0.004 -0.01989,-0.008 -0.0065,-0.003 -0.01307,-0.006 -0.01947,-0.009 -0.0064,-0.003 -0.01281,-0.007 -0.01906,-0.0105 -0.0063,-0.003 -0.01252,-0.008 -0.01855,-0.011 -0.006,-0.003 -0.01214,-0.008 -0.01795,-0.0131 -0.0059,-0.005 -0.01168,-0.009 -0.01721,-0.0138 -0.0056,-0.005 -0.01112,-0.0105 -0.01644,-0.0154 -0.0053,-0.005 -0.0104,-0.009 -0.01537,-0.0164 -0.005,-0.006 -0.0098,-0.0118 -0.01427,-0.0178 -0.0046,-0.006 -0.009,-0.0127 -0.01314,-0.0187 -0.0041,-0.007 -0.0082,-0.0126 -0.01196,-0.0197 -0.0038,-0.007 -0.0075,-0.0137 -0.0109,-0.0205 -0.0035,-0.006 -0.0068,-0.014 -0.0098,-0.0211 -0.0031,-0.007 -0.0059,-0.0144 -0.0087,-0.0217 -0.0027,-0.007 -0.0053,-0.0148 -0.0074,-0.0221 -0.0023,-0.007 -0.0043,-0.015 -0.0062,-0.0224 -0.0018,-0.007 -0.0035,-0.0152 -0.005,-0.0226 -0.0015,-0.007 -0.0027,-0.0154 -0.0037,-0.0229 -8.92e-4,-0.007 -0.0018,-0.0154 -0.0027,-0.0232 -5.94e-4,-0.007 -0.0013,-0.0154 -0.0015,-0.0231 -1.7e-4,-0.007 -2.02e-4,-0.0152 -4.5e-5,-0.0229 1.61e-4,-0.007 5.94e-4,-0.0151 8.92e-4,-0.0227 5.94e-4,-0.007 0.0013,-0.0149 0.0021,-0.0222 8.92e-4,-0.007 0.0021,-0.0143 0.0032,-0.0216 0.0013,-0.007 0.0023,-0.0141 0.0041,-0.0209 0.0015,-0.007 0.0033,-0.0136 0.0052,-0.0202 0.0018,-0.007 0.0037,-0.013 0.0058,-0.0195 0.0021,-0.006 0.0042,-0.0127 0.0068,-0.0189 0.0023,-0.006 0.0049,-0.0119 0.0075,-0.018 0.0027,-0.006 0.0054,-0.0119 0.0082,-0.017 0.0027,-0.006 0.0055,-0.0106 0.0085,-0.0158 0.003,-0.005 0.0057,-0.0106 0.0089,-0.015 0.003,-0.005 0.0059,-0.009 0.0092,-0.0136 0.0031,-0.005 0.0062,-0.007 0.0096,-0.0126 0.0032,-0.004 0.0063,-0.007 0.0097,-0.0114 0.0033,-0.004 0.0064,-0.007 0.0098,-0.0105 0.0033,-0.004 0.0065,-0.006 0.0099,-0.0105 0.0032,-0.002 0.0064,-0.006 0.0097,-0.009 0.0032,-0.002 0.0062,-0.005 0.0093,-0.007 0.003,-0.002 0.0059,-0.005 0.009,-0.007 0.003,-0.002 0.0056,-0.004 0.0085,-0.006 0.0027,-0.002 0.0054,-0.004 0.0082,-0.006 0.0027,-0.002 0.0052,-0.003 0.0077,-0.005 0.0023,-0.002 0.0049,-0.003 0.0073,-0.005 0.0021,-0.002 0.0045,-0.001 0.0068,-0.004 0.0021,-7.3e-4 0.0038,-0.001 0.0058,-0.003 0.0018,-7.8e-4 0.0033,-0.002 0.005,-0.003 0.0015,-8.1e-4 0.0027,-0.002 0.0041,-0.001 0.0015,-8.3e-4 0.0031,-0.002 0.0046,-0.001 0,0 0.130542,-0.0505 0.130542,-0.0505 z"
         id="path5109"
         style="fill:#8dd1ff;fill-opacity:1;stroke-width:0.28471181" />
    </g>
    <g
       id="g5166"
       inkscape:export-xdpi="12434.744"
       inkscape:export-ydpi="12434.744">
      <path
         inkscape:export-ydpi="166.64999"
         inkscape:export-xdpi="166.64999"
         inkscape:connector-curvature="0"
         d="m 86.243405,163.41604 c 0.0019,-6e-5 0.0038,-6e-5 0.0057,-4e-5 0.0021,3e-5 0.0041,-5e-5 0.0062,-1.2e-4 0.0027,-9e-5 0.0053,-1.5e-4 0.008,-2.2e-4 0.0033,-8e-5 0.0066,-1.5e-4 0.01,-2.1e-4 0.004,-8e-5 0.0081,-1.4e-4 0.01209,-2e-4 0.0047,-7e-5 0.0095,-1.4e-4 0.01423,-1.9e-4 0.0055,-7e-5 0.01095,-1.4e-4 0.01646,-1.9e-4 0.0063,-6e-5 0.01254,-1.3e-4 0.01879,-1.7e-4 0.007,-7e-5 0.01405,-1.3e-4 0.02109,-1.8e-4 0.0078,-6e-5 0.01553,-1.1e-4 0.02331,-1.7e-4 0.0085,-4e-5 0.01712,-1e-4 0.02567,-1.4e-4 0.0093,-6e-5 0.01857,-1.2e-4 0.02787,-1.6e-4 0.01,-6e-5 0.01998,-1e-4 0.02997,-1.5e-4 0.01066,-4e-5 0.02133,-9e-5 0.032,-1.3e-4 0.0113,-6e-5 0.0226,-9e-5 0.03389,-1.4e-4 0.01185,-5e-5 0.02371,-1e-4 0.03556,-1.3e-4 0.01241,-4e-5 0.02482,-9e-5 0.03722,-1.3e-4 0.01283,-7e-5 0.02566,-4e-5 0.03848,0 0.01326,2e-5 0.02651,1e-4 0.03976,2.1e-4 0.0136,1.1e-4 0.02718,2.2e-4 0.04077,2.9e-4 0.01384,1.1e-4 0.02767,2.2e-4 0.0415,2.9e-4 0.014,1.1e-4 0.02797,2.2e-4 0.04196,3e-4 0.01405,1.1e-4 0.02811,2e-4 0.04217,2.9e-4 0.0141,1e-4 0.02821,2e-4 0.04232,3.1e-4 0.01418,10e-5 0.02835,1.9e-4 0.04252,2.9e-4 0.0118,5e-5 0.02357,1.4e-4 0.03536,2.6e-4 0,0 -0.115321,0.0745 -0.115321,0.0745 v 0 c -0.01177,-1.2e-4 -0.02357,-2.1e-4 -0.03536,-2.7e-4 -0.01418,-9e-5 -0.02835,-1.8e-4 -0.04253,-2.8e-4 -0.0141,-1.1e-4 -0.02822,-1.9e-4 -0.04232,-3e-4 -0.01405,-1e-4 -0.02811,-2.1e-4 -0.04217,-3e-4 -0.014,-1e-4 -0.02798,-2e-4 -0.04197,-2.9e-4 -0.01384,-1.1e-4 -0.02768,-2.1e-4 -0.04152,-3e-4 -0.0136,-1.1e-4 -0.02719,-2.2e-4 -0.04079,-2.9e-4 -0.01326,-1e-4 -0.02653,-1.8e-4 -0.03979,-1.8e-4 -0.01283,-3e-5 -0.02567,-7e-5 -0.03851,2e-5 -0.01241,5e-5 -0.02484,9e-5 -0.03726,1.5e-4 -0.01188,5e-5 -0.02373,1.1e-4 -0.0356,1.7e-4 -0.01132,4e-5 -0.02262,1e-4 -0.03394,1.5e-4 -0.01069,6e-5 -0.02138,1.1e-4 -0.03206,1.8e-4 -0.01,6e-5 -0.02003,1.2e-4 -0.03003,1.8e-4 -0.0093,7e-5 -0.01863,1.2e-4 -0.02793,1.9e-4 -0.0086,7e-5 -0.01714,1.2e-4 -0.02572,2e-4 -0.0078,6e-5 -0.01558,1.2e-4 -0.02336,2e-4 -0.0071,7e-5 -0.0141,1.4e-4 -0.02114,2e-4 -0.0063,8e-5 -0.01257,1.5e-4 -0.01887,2.3e-4 -0.0055,7e-5 -0.01101,1.4e-4 -0.01651,2.2e-4 -0.0048,7e-5 -0.0095,1.5e-4 -0.01429,2.4e-4 -0.004,6e-5 -0.0081,1.4e-4 -0.01215,2.3e-4 -0.0033,8e-5 -0.0067,1.6e-4 -0.01003,2.5e-4 -0.0027,8e-5 -0.0054,1.5e-4 -0.0081,2.6e-4 -0.0021,6e-5 -0.0042,1.5e-4 -0.0062,1.3e-4 -0.0019,0 -0.0037,1e-5 -0.0056,-5e-5 0,0 0.116173,-0.0751 0.116173,-0.0751 z"
         id="path5138"
         style="fill:#8dd1ff;fill-opacity:1;stroke-width:0.27987361" />
      <path
         inkscape:export-ydpi="166.64999"
         inkscape:export-xdpi="166.64999"
         inkscape:connector-curvature="0"
         d="m 86.973275,163.48517 c -0.001,8.7e-4 -0.0022,0.002 -0.0033,0.003 -0.001,8.6e-4 -0.0022,0.002 -0.0033,0.003 -0.0013,10e-4 -0.0028,0.002 -0.004,0.003 -0.0017,0.001 -0.0031,0.003 -0.0045,0.004 -0.0019,0.001 -0.0037,0.003 -0.0061,0.004 -0.0021,0.002 -0.0041,0.003 -0.0066,0.005 -0.0022,0.002 -0.0044,0.004 -0.0071,0.006 -0.0026,0.002 -0.0057,0.004 -0.0076,0.006 -0.0028,0.002 -0.0059,0.004 -0.0089,0.006 -0.0029,0.002 -0.0062,0.005 -0.0094,0.007 -0.0033,0.002 -0.0065,0.005 -0.0098,0.007 -0.0034,0.003 -0.0068,0.005 -0.01022,0.008 -0.0036,0.003 -0.0071,0.006 -0.01154,0.008 -0.0037,0.003 -0.0074,0.006 -0.012,0.009 -0.0038,0.003 -0.0086,0.006 -0.01241,0.009 -0.004,0.003 -0.0088,0.006 -0.01281,0.01 -0.0049,0.003 -0.0091,0.007 -0.01315,0.01 -0.005,0.003 -0.0092,0.007 -0.01431,0.01 -0.0051,0.003 -0.0094,0.007 -0.01449,0.0101 -0.0051,0.003 -0.0095,0.007 -0.01463,0.0103 -0.0052,0.003 -0.01038,0.007 -0.01472,0.0104 -0.0053,0.003 -0.01046,0.007 -0.01568,0.0102 0,0 0.0019,-0.0934 0.0019,-0.0934 v 0 c 0.0052,-0.003 0.01044,-0.007 0.01568,-0.0102 0.0052,-0.003 0.01037,-0.007 0.01472,-0.0104 0.0051,-0.003 0.01033,-0.007 0.01463,-0.0103 0.0051,-0.003 0.0094,-0.007 0.01449,-0.0101 0.005,-0.003 0.0093,-0.007 0.01431,-0.01 0.0049,-0.003 0.0091,-0.007 0.01317,-0.01 0.004,-0.003 0.0088,-0.006 0.01283,-0.01 0.0038,-0.003 0.0086,-0.006 0.01242,-0.009 0.0037,-0.003 0.0074,-0.006 0.01201,-0.009 0.0036,-0.003 0.0071,-0.006 0.01155,-0.008 0.0034,-0.003 0.0068,-0.005 0.01023,-0.008 0.0033,-0.002 0.0065,-0.005 0.0098,-0.007 0.0031,-0.002 0.0063,-0.005 0.0094,-0.007 0.0028,-0.002 0.0059,-0.004 0.0089,-0.006 0.0027,-0.002 0.0057,-0.004 0.0076,-0.006 0.0025,-0.002 0.0053,-0.003 0.0071,-0.006 0.0021,-0.002 0.0041,-0.003 0.0066,-0.005 0.0019,-0.001 0.0038,-0.003 0.0061,-0.004 0.0017,-0.001 0.0031,-0.003 0.0046,-0.004 0.0013,-0.001 0.0028,-0.002 0.004,-0.003 0.0012,-0.001 0.0022,-0.002 0.0033,-0.003 0.001,-8.6e-4 0.0021,-0.002 0.0032,-0.003 0,0 -0.0019,0.0936 -0.0019,0.0936 z"
         id="path5144"
         style="fill:#8dd1ff;fill-opacity:1;stroke-width:0.22100508" />
      <path
         inkscape:export-ydpi="166.64999"
         inkscape:export-xdpi="166.64999"
         inkscape:connector-curvature="0"
         d="m 86.971621,163.47926 c -0.0017,-6.3e-4 -0.0025,-9.4e-4 -0.0041,-0.002 -0.0016,-6.7e-4 -0.0025,-9.5e-4 -0.0041,-0.002 -0.0016,-6.7e-4 -0.0032,-9.4e-4 -0.0048,-0.002 -0.0016,-7.2e-4 -0.004,-0.002 -0.0056,-0.003 -0.0024,-9.4e-4 -0.0048,-0.002 -0.0063,-0.003 -0.0024,-9.4e-4 -0.0047,-0.002 -0.0071,-0.004 -0.0032,-0.002 -0.0056,-0.003 -0.0082,-0.004 -0.0032,-9.4e-4 -0.0063,-0.003 -0.009,-0.004 -0.0031,-0.002 -0.0063,-0.003 -0.0096,-0.005 -0.0031,-0.002 -0.0071,-0.004 -0.01023,-0.005 -0.004,-0.002 -0.0071,-0.004 -0.01079,-0.005 -0.004,-0.002 -0.0078,-0.004 -0.01121,-0.006 -0.004,-0.002 -0.0079,-0.004 -0.0117,-0.006 -0.004,-0.002 -0.0081,-0.004 -0.01218,-0.006 -0.0038,-0.002 -0.0083,-0.004 -0.0124,-0.007 -0.0038,-0.002 -0.0085,-0.004 -0.01256,-0.007 -0.0046,-0.002 -0.0085,-0.005 -0.0126,-0.007 -0.0046,-0.002 -0.0087,-0.005 -0.01309,-0.007 -0.0044,-0.003 -0.009,-0.005 -0.01348,-0.008 -0.0044,-0.003 -0.0094,-0.005 -0.01404,-0.008 -0.0044,-0.003 -0.0097,-0.005 -0.01463,-0.008 -7.58e-4,-3.9e-4 -0.0015,-7.9e-4 -0.0023,-9.4e-4 0,0 0.0018,-0.088 0.0018,-0.088 v 0 c 7.59e-4,4e-4 0.0015,8e-4 0.0023,9.5e-4 0.0046,0.002 0.0097,0.005 0.01463,0.008 0.0046,0.002 0.0094,0.005 0.01404,0.008 0.0044,0.003 0.009,0.005 0.01348,0.008 0.0044,0.003 0.0087,0.005 0.01309,0.007 0.0046,0.002 0.0084,0.005 0.0126,0.007 0.0038,0.002 0.0083,0.005 0.01265,0.007 0.0038,0.002 0.0083,0.004 0.0124,0.007 0.0038,0.002 0.0081,0.004 0.01218,0.006 0.004,0.002 0.0078,0.004 0.0117,0.006 0.004,0.002 0.0078,0.004 0.01136,0.006 0.004,0.002 0.0071,0.004 0.01079,0.005 0.0031,0.002 0.0071,0.004 0.01023,0.005 0.0031,0.002 0.0062,0.003 0.0096,0.005 0.0031,0.002 0.0063,0.003 0.0089,0.004 0.0024,9.5e-4 0.0056,0.003 0.0084,0.004 0.0024,9.5e-4 0.0047,0.002 0.008,0.004 0.0024,9.5e-4 0.0047,0.002 0.0063,0.003 0.0016,7.1e-4 0.004,0.002 0.0056,0.003 0.0016,7e-4 0.0032,9.4e-4 0.0048,0.002 0.0016,6.6e-4 0.0025,9.4e-4 0.0041,0.002 0.0016,6.7e-4 0.0025,9.4e-4 0.0041,0.002 0,0 -0.0018,0.0882 -0.0018,0.0882 z"
         id="path5148"
         style="fill:#8dd1ff;fill-opacity:1;stroke-width:0.20831244" />
    </g>
  </g>
</svg>
