<?xml version="1.0" encoding="UTF-8" standalone="no"?>
<!-- Created with Inkscape (http://www.inkscape.org/) -->

<svg
   xmlns:dc="http://purl.org/dc/elements/1.1/"
   xmlns:cc="http://creativecommons.org/ns#"
   xmlns:rdf="http://www.w3.org/1999/02/22-rdf-syntax-ns#"
   xmlns:svg="http://www.w3.org/2000/svg"
   xmlns="http://www.w3.org/2000/svg"
   xmlns:sodipodi="http://sodipodi.sourceforge.net/DTD/sodipodi-0.dtd"
   xmlns:inkscape="http://www.inkscape.org/namespaces/inkscape"
   width="210mm"
   height="297mm"
   viewBox="0 0 210 297"
   version="1.1"
   id="svg8"
   inkscape:version="0.92pre2 r"
   sodipodi:docname="swooshes.svg">
  <defs
     id="defs2" />
  <sodipodi:namedview
     id="base"
     pagecolor="#ffffff"
     bordercolor="#666666"
     borderopacity="1.0"
     inkscape:pageopacity="0.0"
     inkscape:pageshadow="2"
     inkscape:zoom="126.71353"
     inkscape:cx="328.51462"
     inkscape:cy="510.78935"
     inkscape:document-units="mm"
     inkscape:current-layer="layer1"
     showgrid="false"
     inkscape:window-width="2560"
     inkscape:window-height="1413"
     inkscape:window-x="0"
     inkscape:window-y="27"
     inkscape:window-maximized="1" />
  <metadata
     id="metadata5">
    <rdf:RDF>
      <cc:Work
         rdf:about="">
        <dc:format>image/svg+xml</dc:format>
        <dc:type
           rdf:resource="http://purl.org/dc/dcmitype/StillImage" />
        <dc:title />
      </cc:Work>
    </rdf:RDF>
  </metadata>
  <g
     inkscape:label="Layer 1"
     inkscape:groupmode="layer"
     id="layer1">
    <path
       style="fill:#000000;fill-opacity:1;fill-rule:nonzero;stroke:none;stroke-width:2.06375003;stroke-linecap:butt;stroke-linejoin:miter;stroke-miterlimit:4;stroke-dasharray:none;stroke-dashoffset:0;stroke-opacity:1"
       id="path4668"
       d="m 86.683693,158.12607 c 5.29e-4,-2.7e-4 0.0011,-5.3e-4 0.0016,-0.001 5.29e-4,-2.6e-4 0.0011,-7.9e-4 0.0019,-0.001 7.94e-4,-5.3e-4 0.0016,-7.9e-4 0.0021,-10e-4 7.94e-4,-5.3e-4 0.0016,-0.001 0.0026,-0.002 0.0011,-5.3e-4 0.0019,-0.001 0.003,-0.002 0.0011,-7.9e-4 0.0021,-0.001 0.0033,-0.002 0.0013,-7.9e-4 0.0026,-0.002 0.0038,-0.002 0.0013,-7.9e-4 0.0028,-0.002 0.0042,-0.003 0.0016,-10e-4 0.0031,-0.002 0.0047,-0.003 0.0016,-0.001 0.0034,-0.002 0.0051,-0.003 0.0019,-10e-4 0.0037,-0.002 0.0055,-0.003 0.0019,-0.001 0.0038,-0.002 0.0058,-0.003 0.0021,-10e-4 0.0041,-0.002 0.0061,-0.004 0.0021,-0.001 0.0043,-0.003 0.0065,-0.004 0.0021,-0.001 0.0045,-0.003 0.0067,-0.004 0.0024,-10e-4 0.0047,-0.003 0.007,-0.004 0.0024,-0.001 0.0049,-0.003 0.0074,-0.004 0.0026,-0.002 0.0051,-0.003 0.0077,-0.004 0.0026,-0.002 0.0053,-0.003 0.008,-0.004 0.0028,-0.002 0.0055,-0.003 0.0083,-0.005 0.0029,-0.002 0.0058,-0.003 0.0087,-0.005 0.003,-0.002 0.006,-0.003 0.009,-0.005 0.0031,-0.002 0.0063,-0.003 0.0094,-0.005 0.0033,-0.002 0.0065,-0.003 0.0098,-0.005 0.0034,-0.002 0.0069,-0.003 0.01027,-0.005 0.0036,-0.002 0.0071,-0.004 0.01074,-0.005 0.0037,-0.002 0.0075,-0.004 0.01122,-0.005 0.0039,-0.002 0.0078,-0.004 0.0117,-0.005 0.004,-0.002 0.008,-0.004 0.01209,-0.006 0.0042,-0.002 0.0083,-0.004 0.01249,-0.005 0.0043,-0.002 0.0085,-0.004 0.01283,-0.005 0.0044,-0.002 0.0088,-0.004 0.01312,-0.005 0.0044,-0.002 0.0089,-0.004 0.01336,-0.005 0.0045,-0.002 0.0091,-0.003 0.01365,-0.005 0.0046,-0.002 0.0093,-0.003 0.01394,-0.005 0.0047,-0.002 0.0094,-0.003 0.01413,-0.005 0.0048,-0.002 0.0096,-0.003 0.01442,-0.005 0.0048,-0.002 0.0097,-0.003 0.01452,-0.004 0.0049,-0.001 0.0098,-0.003 0.01471,-0.004 0.005,-0.001 0.01,-0.002 0.01503,-0.004 0.0051,-10e-4 0.01021,-0.002 0.01535,-0.003 0.0052,-7.9e-4 0.01048,-0.002 0.01572,-0.002 0.0054,-8e-4 0.01077,-0.001 0.01617,-0.002 0.0055,-5.3e-4 0.01109,-7.9e-4 0.01664,-7.9e-4 0.0057,-1.7e-4 0.0114,-1.9e-4 0.01712,-1.1e-4 0.0059,7e-5 0.01175,2.6e-4 0.01762,5.3e-4 0.0061,2.6e-4 0.01209,7.9e-4 0.01815,0.001 0.0062,5.3e-4 0.01246,10e-4 0.01865,0.002 0.0064,7.9e-4 0.01278,0.002 0.01913,0.003 0.0065,0.001 0.01307,0.002 0.01958,0.004 0.0067,0.001 0.01331,0.003 0.01995,0.004 0.0068,0.002 0.01355,0.003 0.02032,0.005 0.0069,0.002 0.01371,0.004 0.02056,0.005 0.0069,0.002 0.01381,0.004 0.02069,0.006 0.0069,0.002 0.01384,0.004 0.02072,0.006 0.0069,0.002 0.01384,0.004 0.02074,0.007 0.0069,0.002 0.01384,0.005 0.02072,0.007 0.0069,0.002 0.01376,0.005 0.02064,0.007 0.0069,0.002 0.01371,0.005 0.02053,0.008 0.0068,0.003 0.01365,0.005 0.02048,0.008 0.0068,0.003 0.0136,0.005 0.0204,0.008 0.0068,0.003 0.01355,0.005 0.02032,0.008 0.0068,0.003 0.01352,0.005 0.02027,0.008 0.0067,0.003 0.01347,0.005 0.02021,0.008 0.0067,0.003 0.01347,0.005 0.02021,0.008 0.0067,0.003 0.01352,0.005 0.02029,0.008 0.0068,0.003 0.0136,0.005 0.02043,0.008 0.0069,0.003 0.01376,0.005 0.02064,0.008 0.007,0.002 0.01392,0.005 0.0209,0.007 0.0071,0.002 0.01413,0.005 0.02122,0.007 0.0072,0.002 0.01434,0.005 0.02154,0.007 0.0073,0.002 0.01463,0.004 0.02196,0.007 0.0074,0.002 0.01492,0.004 0.02241,0.006 0.0076,0.002 0.01527,0.004 0.02294,0.006 0.0078,0.002 0.01561,0.004 0.02344,0.006 0.008,0.002 0.01598,0.003 0.024,0.005 0.0081,0.002 0.01635,0.003 0.02453,0.005 0.0083,0.002 0.01672,0.003 0.02508,0.004 0.0085,10e-4 0.01704,0.002 0.02561,0.003 0.0087,0.001 0.01738,0.002 0.02609,0.003 0.0089,8e-4 0.01773,10e-4 0.0266,0.002 0.009,5.3e-4 0.01805,7.9e-4 0.02706,0.001 0.0092,2.2e-4 0.01834,2.2e-4 0.0275,1.4e-4 0.0093,-1e-4 0.01857,-2.6e-4 0.02783,-7.9e-4 0.0094,-5.3e-4 0.01876,-10e-4 0.02812,-0.002 0.0095,-8e-4 0.01892,-0.002 0.02835,-0.003 0.0095,-0.001 0.01902,-0.002 0.0285,-0.003 0.0096,-0.001 0.01913,-0.003 0.02864,-0.004 0.0096,-0.002 0.01918,-0.003 0.02872,-0.005 0.0096,-0.002 0.01921,-0.004 0.02876,-0.006 0.0096,-0.002 0.01921,-0.005 0.02874,-0.007 0.0096,-0.003 0.01916,-0.005 0.02868,-0.008 0.0096,-0.003 0.0191,-0.006 0.0286,-0.009 0.0095,-0.003 0.019,-0.007 0.02843,-0.0101 0.0094,-0.003 0.01884,-0.007 0.02822,-0.0108 0.0093,-0.004 0.01865,-0.007 0.02792,-0.0114 0.0092,-0.004 0.01839,-0.008 0.02756,-0.0118 0.0091,-0.004 0.01815,-0.008 0.02718,-0.0121 0.0089,-0.004 0.01786,-0.008 0.02674,-0.0123 0.0088,-0.004 0.01752,-0.008 0.02625,-0.0125 0.0086,-0.004 0.0172,-0.008 0.02577,-0.0125 0.0084,-0.004 0.01675,-0.008 0.02511,-0.0126 0.0055,-0.003 0.0028,-0.001 0.0082,-0.004 0,0 -0.217935,0.14153 -0.217935,0.14153 v 0 c -0.0055,0.003 -0.0028,0.001 -0.0082,0.004 -0.0084,0.004 -0.01672,0.008 -0.02511,0.0126 -0.0086,0.004 -0.01714,0.008 -0.02577,0.0126 -0.0087,0.004 -0.01746,0.008 -0.02625,0.0125 -0.0089,0.004 -0.01778,0.008 -0.02674,0.0124 -0.009,0.004 -0.01807,0.008 -0.02719,0.0121 -0.0092,0.004 -0.01834,0.008 -0.02756,0.0118 -0.0093,0.004 -0.01857,0.008 -0.02792,0.0113 -0.0094,0.004 -0.01876,0.007 -0.02822,0.0108 -0.0094,0.003 -0.01892,0.007 -0.02843,0.0101 -0.0095,0.003 -0.01902,0.006 -0.0286,0.009 -0.0095,0.003 -0.01908,0.006 -0.02868,0.008 -0.0096,0.003 -0.0191,0.005 -0.02874,0.007 -0.0096,0.002 -0.01913,0.005 -0.02876,0.006 -0.0096,0.002 -0.0191,0.004 -0.02872,0.005 -0.0095,0.002 -0.01908,0.003 -0.02864,0.004 -0.0095,0.001 -0.019,0.002 -0.0285,0.003 -0.0094,10e-4 -0.01889,0.002 -0.02835,0.003 -0.0094,7.9e-4 -0.01873,0.001 -0.02812,0.002 -0.0093,2.7e-4 -0.01855,5.3e-4 -0.02783,8e-4 -0.0092,8e-5 -0.01834,8e-5 -0.0275,-1.4e-4 -0.009,-2.1e-4 -0.01805,-5.3e-4 -0.02706,-0.001 -0.0089,-5.3e-4 -0.01775,-10e-4 -0.0266,-0.002 -0.0087,-7.9e-4 -0.01741,-0.002 -0.02609,-0.003 -0.0085,-0.001 -0.01709,-0.002 -0.02559,-0.003 -0.0084,-0.001 -0.01675,-0.003 -0.02508,-0.004 -0.0082,-10e-4 -0.01638,-0.003 -0.02453,-0.005 -0.008,-0.002 -0.01601,-0.003 -0.02397,-0.005 -0.0078,-0.002 -0.01566,-0.004 -0.02344,-0.006 -0.0077,-0.002 -0.01532,-0.004 -0.02294,-0.006 -0.0075,-0.002 -0.01498,-0.004 -0.02241,-0.006 -0.0073,-0.002 -0.01466,-0.004 -0.02196,-0.007 -0.0072,-0.002 -0.01439,-0.005 -0.02154,-0.007 -0.0071,-0.002 -0.01416,-0.005 -0.02122,-0.007 -0.007,-0.002 -0.01397,-0.005 -0.0209,-0.007 -0.0069,-0.002 -0.01378,-0.005 -0.02064,-0.008 -0.0068,-0.003 -0.01363,-0.005 -0.02043,-0.008 -0.0068,-0.003 -0.01352,-0.005 -0.02029,-0.008 -0.0067,-0.003 -0.01349,-0.005 -0.02021,-0.008 -0.0067,-0.003 -0.01349,-0.005 -0.02021,-0.008 -0.0067,-0.003 -0.01349,-0.005 -0.02027,-0.008 -0.0068,-0.003 -0.01355,-0.005 -0.02032,-0.008 -0.0068,-0.003 -0.0136,-0.005 -0.0204,-0.008 -0.0068,-0.003 -0.01365,-0.005 -0.02048,-0.008 -0.0068,-0.003 -0.01368,-0.005 -0.02053,-0.008 -0.0069,-0.002 -0.01373,-0.005 -0.02064,-0.007 -0.0069,-0.002 -0.01378,-0.005 -0.02072,-0.007 -0.0069,-0.002 -0.01381,-0.005 -0.02074,-0.007 -0.0069,-0.002 -0.01379,-0.004 -0.02072,-0.006 -0.0069,-0.002 -0.01378,-0.004 -0.02069,-0.006 -0.0068,-0.002 -0.01368,-0.004 -0.02056,-0.005 -0.0067,-0.002 -0.01352,-0.003 -0.02032,-0.005 -0.0066,-0.002 -0.01328,-0.003 -0.01995,-0.004 -0.0065,-0.001 -0.01304,-0.003 -0.01958,-0.004 -0.0064,-0.001 -0.01275,-0.002 -0.01913,-0.003 -0.0062,-7.9e-4 -0.01244,-0.002 -0.01865,-0.002 -0.006,-5.3e-4 -0.01209,-0.001 -0.01815,-0.001 -0.0059,-2.7e-4 -0.01175,-5.3e-4 -0.01762,-5.3e-4 -0.0057,-7e-5 -0.0114,-6e-5 -0.01712,1.1e-4 -0.0056,1.8e-4 -0.01111,5.3e-4 -0.01664,7.9e-4 -0.0054,5.3e-4 -0.0108,8e-4 -0.01617,0.002 -0.0053,7.9e-4 -0.0105,0.001 -0.01574,0.002 -0.0051,7.9e-4 -0.01024,0.002 -0.01535,0.003 -0.005,10e-4 -0.01003,0.002 -0.01503,0.004 -0.0049,0.001 -0.0098,0.003 -0.01471,0.004 -0.0048,0.001 -0.0097,0.003 -0.01453,0.004 -0.0048,0.002 -0.0096,0.003 -0.01442,0.005 -0.0047,0.002 -0.0094,0.003 -0.01413,0.005 -0.0047,0.002 -0.0093,0.003 -0.01394,0.005 -0.0046,0.002 -0.0091,0.003 -0.01365,0.005 -0.0045,0.002 -0.0089,0.003 -0.01336,0.005 -0.0044,0.002 -0.0088,0.004 -0.01312,0.005 -0.0043,0.002 -0.0086,0.004 -0.01283,0.005 -0.0042,0.002 -0.0083,0.004 -0.01249,0.005 -0.004,0.002 -0.0081,0.004 -0.01209,0.006 -0.0039,0.002 -0.0078,0.004 -0.01169,0.005 -0.0038,0.002 -0.0075,0.004 -0.01122,0.005 -0.0036,0.002 -0.0072,0.003 -0.01074,0.005 -0.0034,0.002 -0.0069,0.003 -0.01027,0.005 -0.0033,0.002 -0.0065,0.003 -0.0098,0.005 -0.0031,0.002 -0.0063,0.003 -0.0094,0.005 -0.003,0.002 -0.006,0.003 -0.009,0.005 -0.0029,0.002 -0.0058,0.003 -0.0087,0.005 -0.0028,0.002 -0.0056,0.003 -0.0083,0.005 -0.0027,0.002 -0.0053,0.003 -0.008,0.005 -0.0026,0.001 -0.0051,0.003 -0.0077,0.004 -0.0024,0.001 -0.0049,0.003 -0.0074,0.004 -0.0024,0.001 -0.0047,0.003 -0.007,0.004 -0.0024,0.001 -0.0045,0.003 -0.0067,0.004 -0.0021,0.001 -0.0043,0.003 -0.0065,0.004 -0.0021,0.001 -0.0041,0.002 -0.0061,0.004 -0.0019,0.001 -0.0039,0.002 -0.0058,0.003 -0.0019,0.001 -0.0037,0.002 -0.0055,0.003 -0.0016,0.001 -0.0034,0.002 -0.0051,0.003 -0.0016,0.001 -0.0031,0.002 -0.0047,0.003 -0.0013,7.9e-4 -0.0028,0.002 -0.0042,0.003 -0.0013,7.9e-4 -0.0026,0.002 -0.0038,0.002 -0.0011,7.9e-4 -0.0021,10e-4 -0.0033,0.002 -0.0011,5.3e-4 -0.0019,0.001 -0.003,0.002 -7.94e-4,5.3e-4 -0.0016,0.001 -0.0026,0.002 -7.94e-4,5.3e-4 -0.0016,8e-4 -0.0021,10e-4 -5.3e-4,2.6e-4 -0.0013,7.9e-4 -0.0019,0.001 -5.29e-4,2.6e-4 -0.0011,5.2e-4 -0.0016,0.001 0,0 0.217935,-0.14152 0.217935,-0.14152 z"
       inkscape:connector-curvature="0" />
    <path
       style="fill:#000000;fill-opacity:1;fill-rule:nonzero;stroke:none;stroke-width:2.06375003;stroke-linecap:butt;stroke-linejoin:miter;stroke-miterlimit:4;stroke-dasharray:none;stroke-dashoffset:0;stroke-opacity:1"
       id="path4676"
       d="m 86.152579,159.77618 c 5.29e-4,-5.3e-4 7.94e-4,-7.9e-4 0.0013,-0.001 5.29e-4,-5.3e-4 7.93e-4,-7.9e-4 0.0013,-0.001 5.29e-4,-5.3e-4 0.0011,-0.001 0.0016,-0.002 5.29e-4,-5.3e-4 0.0013,-0.001 0.0021,-0.002 7.94e-4,-8e-4 0.0016,-0.001 0.0024,-0.002 0.0011,-7.9e-4 0.0019,-0.002 0.0029,-0.002 0.0011,-7.9e-4 0.0021,-0.002 0.0033,-0.003 0.0011,-0.001 0.0024,-0.002 0.0035,-0.003 0.0013,-0.001 0.0026,-0.002 0.0038,-0.003 0.0013,-0.001 0.0027,-0.002 0.0041,-0.003 0.0016,-0.001 0.003,-0.002 0.0045,-0.003 0.0016,-0.001 0.0032,-0.002 0.0048,-0.003 0.0019,-0.001 0.0035,-0.002 0.0052,-0.004 0.0019,-0.001 0.0037,-0.003 0.0056,-0.004 0.07473,-0.0483 0.148404,-0.0983 0.22393,-0.14534 0.0021,-0.001 0.0043,-0.003 0.0064,-0.004 0.0024,-10e-4 0.0046,-0.003 0.0069,-0.004 0.0024,-0.001 0.0049,-0.003 0.0074,-0.004 0.0026,-0.001 0.0053,-0.003 0.008,-0.004 0.0028,-0.001 0.0057,-0.003 0.0085,-0.004 0.0029,-0.002 0.0059,-0.003 0.0089,-0.004 0.0031,-0.002 0.0061,-0.003 0.0092,-0.004 0.0031,-0.002 0.0063,-0.003 0.0094,-0.004 0.0032,-0.001 0.0065,-0.003 0.0097,-0.004 0.0033,-0.001 0.0066,-0.003 0.0099,-0.004 0.0034,-0.001 0.0068,-0.003 0.01016,-0.004 0.0035,-0.001 0.0069,-0.003 0.01037,-0.004 0.0035,-0.001 0.0071,-0.003 0.01058,-0.004 0.0036,-0.001 0.0072,-0.003 0.01087,-0.004 0.0037,-0.001 0.0074,-0.003 0.01109,-0.004 0.0038,-0.001 0.0076,-0.003 0.0114,-0.004 0.0039,-0.001 0.0078,-0.003 0.01167,-0.004 0.0039,-0.001 0.0079,-0.003 0.01188,-0.004 0.004,-0.001 0.008,-0.003 0.01204,-0.004 0.0041,-0.001 0.0081,-0.003 0.01222,-0.004 0.0042,-0.001 0.0083,-0.002 0.01251,-0.004 0.0042,-0.001 0.0085,-0.002 0.01273,-0.004 0.0044,-0.001 0.0087,-0.002 0.01312,-0.003 0.0044,-0.001 0.0089,-0.002 0.01341,-0.003 0.0045,-0.001 0.0091,-0.002 0.01365,-0.003 0.0047,-0.001 0.0093,-0.002 0.01397,-0.003 0.0047,-0.001 0.0095,-0.002 0.01421,-0.003 0.0048,-8e-4 0.0097,-0.002 0.01447,-0.002 0.0049,-7.9e-4 0.0098,-0.002 0.01474,-0.002 0.005,-8e-4 0.01,-0.001 0.015,-0.002 0.0051,-5.3e-4 0.01016,-0.001 0.01524,-0.002 0.0052,-5.3e-4 0.01032,-10e-4 0.01548,-0.002 0.0052,-5.3e-4 0.01048,-0.001 0.01572,-0.001 0.0053,-5.3e-4 0.01061,-7.9e-4 0.01593,-0.001 0.0054,-2.7e-4 0.01074,-8e-4 0.01611,-0.001 0.0054,-2.7e-4 0.01087,-5.3e-4 0.01632,-8e-4 0.0055,-2.6e-4 0.01103,-5.3e-4 0.01654,-7.9e-4 0.0056,-2e-4 0.01114,-2.6e-4 0.01669,-5.3e-4 0.0056,-1.4e-4 0.01122,-2.6e-4 0.01685,-5.3e-4 0.0057,-1.2e-4 0.01135,-1.9e-4 0.01701,-2.6e-4 0.0057,-7e-5 0.01143,-1.1e-4 0.01714,-1.4e-4 0.0058,-3e-5 0.01154,-1e-5 0.0173,0 0.0058,2e-5 0.01161,4e-5 0.01741,5e-5 0.0058,2e-5 0.01169,4e-5 0.01754,5e-5 0.0059,2e-5 0.01177,3e-5 0.01765,5e-5 0.0059,1e-5 0.01183,4e-5 0.01775,9e-5 0.006,5e-5 0.01191,1e-4 0.01783,1.5e-4 0.006,6e-5 0.01199,1.5e-4 0.01797,2.4e-4 0.006,9e-5 0.01204,1.6e-4 0.01807,2.6e-4 0.0061,1.1e-4 0.01212,2.1e-4 0.01815,2.6e-4 0.0061,1.4e-4 0.01217,2.7e-4 0.01828,5.3e-4 0.0061,1.5e-4 0.01225,2.6e-4 0.01839,5.3e-4 0.0062,1.7e-4 0.01233,2.6e-4 0.0185,5.3e-4 0.0062,2e-4 0.01241,5.3e-4 0.0186,5.3e-4 0.0062,2.2e-4 0.01246,5.3e-4 0.01868,7.9e-4 0.0063,2.5e-4 0.01254,5.3e-4 0.01881,7.9e-4 0.0063,2.6e-4 0.01262,5.3e-4 0.01894,8e-4 0.0063,2.6e-4 0.01273,5.3e-4 0.01908,7.9e-4 0.0064,2.7e-4 0.01283,5.3e-4 0.01924,8e-4 0.0065,2.6e-4 0.01296,5.3e-4 0.01945,7.9e-4 0.0066,2.6e-4 0.01312,5.3e-4 0.01968,7.9e-4 0.0066,2.5e-4 0.01326,5.3e-4 0.0199,8e-4 0.0067,2.4e-4 0.01344,5.3e-4 0.02016,7.9e-4 0.0068,2.3e-4 0.01363,5.3e-4 0.02043,7.9e-4 0.0069,2.1e-4 0.01376,2.7e-4 0.02064,5.3e-4 0.0069,1.9e-4 0.01389,2.7e-4 0.02082,5.3e-4 0.007,1.4e-4 0.01397,2.6e-4 0.02098,2.7e-4 0.007,1e-4 0.01405,2e-4 0.02109,2.6e-4 0.0071,6e-5 0.01413,1.1e-4 0.02119,1.5e-4 0.0071,4e-5 0.01416,5e-5 0.02125,3e-5 0.0071,-2e-5 0.01416,-5e-5 0.02125,-1.1e-4 0.0071,-5e-5 0.01418,-1.6e-4 0.02127,-2.6e-4 0.0071,-1.1e-4 0.01421,-2.4e-4 0.0213,-2.6e-4 0.0071,-1.3e-4 0.01423,-2.6e-4 0.02133,-5.3e-4 0.0071,-2.1e-4 0.01426,-5.3e-4 0.02138,-7.9e-4 0.0071,-2.7e-4 0.01429,-5.3e-4 0.02143,-0.001 0.0071,-2.7e-4 0.01429,-8e-4 0.02143,-10e-4 0.0071,-5.3e-4 0.01429,-0.001 0.02143,-0.002 0.0071,-5.3e-4 0.01429,-0.001 0.02143,-0.002 0.0071,-5.3e-4 0.01423,-0.001 0.02135,-0.002 0.0071,-7.9e-4 0.01424,-0.002 0.02133,-0.002 0.0071,-8e-4 0.01421,-0.002 0.02133,-0.003 0.0071,-10e-4 0.01418,-0.002 0.02127,-0.003 0.0071,-0.001 0.01418,-0.002 0.02125,-0.003 0.0071,-10e-4 0.01416,-0.003 0.02122,-0.004 0.0071,-0.001 0.01416,-0.003 0.02122,-0.004 0.0071,-0.002 0.01416,-0.003 0.02119,-0.005 0.0071,-0.002 0.01413,-0.004 0.02117,-0.005 0.0071,-0.002 0.0141,-0.004 0.02111,-0.006 0.0071,-0.002 0.01408,-0.004 0.02109,-0.007 0.007,-0.002 0.01408,-0.005 0.02106,-0.007 0.007,-0.002 0.014,-0.005 0.02096,-0.008 0.007,-0.003 0.01394,-0.005 0.02088,-0.008 0.0069,-0.003 0.01384,-0.006 0.02072,-0.008 0.0069,-0.003 0.01365,-0.006 0.02045,-0.009 0.0067,-0.003 0.01347,-0.006 0.02019,-0.009 0.0067,-0.003 0.01331,-0.006 0.01995,-0.009 0.0066,-0.003 0.01312,-0.006 0.01966,-0.009 0.0043,-0.002 0.0021,-0.001 0.0065,-0.003 0,0 -0.217937,0.14153 -0.217937,0.14153 v 0 c -0.0043,0.002 -0.0021,0.001 -0.0065,0.003 -0.0065,0.003 -0.01307,0.006 -0.01966,0.009 -0.0066,0.003 -0.01328,0.006 -0.01995,0.009 -0.0067,0.003 -0.01341,0.006 -0.02019,0.009 -0.0068,0.003 -0.01363,0.006 -0.02048,0.009 -0.0069,0.003 -0.01378,0.006 -0.02072,0.008 -0.0069,0.003 -0.01389,0.005 -0.02088,0.008 -0.007,0.003 -0.01394,0.005 -0.02096,0.008 -0.007,0.002 -0.014,0.005 -0.02106,0.007 -0.007,0.002 -0.01402,0.005 -0.02109,0.007 -0.007,0.002 -0.01405,0.004 -0.02111,0.006 -0.007,0.002 -0.01408,0.004 -0.02117,0.005 -0.007,0.002 -0.0141,0.003 -0.02122,0.005 -0.0071,0.002 -0.01413,0.003 -0.02122,0.004 -0.0071,10e-4 -0.01413,0.003 -0.02122,0.004 -0.0071,0.001 -0.01416,0.002 -0.02125,0.003 -0.0071,0.001 -0.01418,0.002 -0.02127,0.003 -0.0071,0.001 -0.01421,0.002 -0.02133,0.003 -0.0071,8e-4 -0.01421,0.002 -0.02133,0.002 -0.0071,8e-4 -0.01423,0.001 -0.02138,0.002 -0.0071,5.3e-4 -0.01426,0.001 -0.0214,0.002 -0.0071,5.3e-4 -0.01429,0.001 -0.02143,0.002 -0.0071,5.3e-4 -0.01429,7.9e-4 -0.02143,0.001 -0.0071,2.7e-4 -0.01429,8e-4 -0.02143,0.001 -0.0071,2.7e-4 -0.01426,5.3e-4 -0.02138,8e-4 -0.0071,2e-4 -0.01423,2.6e-4 -0.02133,5.2e-4 -0.0071,1.3e-4 -0.01421,2.7e-4 -0.0213,2.7e-4 -0.0071,9e-5 -0.01418,2e-4 -0.02125,2.6e-4 -0.0071,5e-5 -0.01416,8e-5 -0.02125,1e-4 -0.0071,2e-5 -0.01415,1e-5 -0.02125,-2e-5 -0.0071,-5e-5 -0.01413,-9e-5 -0.02119,-1.5e-4 -0.007,-7e-5 -0.01405,-1.7e-4 -0.02109,-2.7e-4 -0.007,-1.2e-4 -0.014,-2.5e-4 -0.02098,-2.6e-4 -0.0069,-1.3e-4 -0.01389,-2.7e-4 -0.02082,-5.3e-4 -0.0069,-1.8e-4 -0.01376,-2.7e-4 -0.02066,-5.3e-4 -0.0068,-2.2e-4 -0.01363,-5.3e-4 -0.02043,-7.9e-4 -0.0067,-2.3e-4 -0.01344,-5.3e-4 -0.02016,-8e-4 -0.0066,-2.3e-4 -0.01326,-5.3e-4 -0.0199,-7.9e-4 -0.0066,-2.5e-4 -0.01312,-5.3e-4 -0.01968,-8e-4 -0.0065,-2.5e-4 -0.01297,-5.2e-4 -0.01945,-7.9e-4 -0.0064,-2.6e-4 -0.01283,-5.3e-4 -0.01924,-7.9e-4 -0.0063,-2.7e-4 -0.01273,-5.3e-4 -0.01908,-8e-4 -0.0063,-2.6e-4 -0.01262,-5.3e-4 -0.01894,-7.9e-4 -0.0063,-2.6e-4 -0.01254,-5.3e-4 -0.01881,-7.9e-4 -0.0062,-2.3e-4 -0.01246,-5.3e-4 -0.01868,-8e-4 -0.0062,-2e-4 -0.01241,-5.3e-4 -0.0186,-5.3e-4 -0.0062,-1.9e-4 -0.01233,-2.6e-4 -0.01849,-5.3e-4 -0.0061,-1.6e-4 -0.01225,-2.6e-4 -0.01839,-5.3e-4 -0.0061,-1.4e-4 -0.01217,-2.6e-4 -0.01828,-5.2e-4 -0.0061,-1.4e-4 -0.01212,-2.4e-4 -0.01815,-2.7e-4 -0.006,-1e-4 -0.01204,-1.7e-4 -0.01807,-2.6e-4 -0.006,-8e-5 -0.01199,-1.7e-4 -0.01797,-2.4e-4 -0.006,-5e-5 -0.01191,-10e-5 -0.01786,-1.5e-4 -0.0059,-5e-5 -0.01183,-8e-5 -0.01775,-8e-5 -0.0059,-2e-5 -0.01177,-3e-5 -0.01765,-5e-5 -0.0058,-2e-5 -0.01169,-3e-5 -0.01754,-5e-5 -0.0058,-2e-5 -0.01162,-4e-5 -0.01741,-5e-5 -0.0058,-2e-5 -0.01154,-3e-5 -0.0173,0 -0.0057,3e-5 -0.01143,6e-5 -0.01714,1.4e-4 -0.0057,6e-5 -0.01135,1.4e-4 -0.01701,2.6e-4 -0.0056,1.2e-4 -0.01125,2.6e-4 -0.01685,5.3e-4 -0.0056,1.5e-4 -0.01114,2.6e-4 -0.0167,5.3e-4 -0.0055,1.9e-4 -0.01103,5.3e-4 -0.01654,7.9e-4 -0.0055,2.7e-4 -0.01087,5.3e-4 -0.01633,7.9e-4 -0.0054,2.7e-4 -0.01074,8e-4 -0.01611,0.001 -0.0053,2.7e-4 -0.01061,8e-4 -0.01593,10e-4 -0.0052,5.3e-4 -0.01048,7.9e-4 -0.01572,0.001 -0.0052,5.3e-4 -0.01032,0.001 -0.01548,0.002 -0.0051,5.3e-4 -0.01019,0.001 -0.01527,0.002 -0.005,5.3e-4 -0.01,10e-4 -0.015,0.002 -0.0049,7.9e-4 -0.0098,0.002 -0.01474,0.002 -0.0048,8e-4 -0.0097,0.002 -0.01447,0.002 -0.0047,8e-4 -0.0095,0.002 -0.01421,0.003 -0.0047,0.001 -0.0093,0.002 -0.01397,0.003 -0.0046,10e-4 -0.0091,0.002 -0.01365,0.003 -0.0045,0.001 -0.0089,0.002 -0.01342,0.003 -0.0044,10e-4 -0.0088,0.002 -0.01312,0.003 -0.0043,0.001 -0.0085,0.002 -0.01273,0.004 -0.0042,0.001 -0.0084,0.002 -0.01252,0.004 -0.0041,10e-4 -0.0081,0.003 -0.01222,0.004 -0.004,0.001 -0.008,0.003 -0.01204,0.004 -0.004,0.001 -0.0079,0.003 -0.01188,0.004 -0.0039,10e-4 -0.0078,0.003 -0.01167,0.004 -0.0038,0.001 -0.0076,0.003 -0.0114,0.004 -0.0037,0.001 -0.0074,0.003 -0.01109,0.004 -0.0036,10e-4 -0.0072,0.003 -0.01087,0.004 -0.0035,0.001 -0.0071,0.003 -0.01058,0.004 -0.0035,0.001 -0.0069,0.003 -0.0104,0.004 -0.0034,10e-4 -0.0068,0.003 -0.01016,0.004 -0.0033,0.001 -0.0066,0.003 -0.0099,0.004 -0.0032,0.001 -0.0065,0.003 -0.0097,0.004 -0.0031,10e-4 -0.0063,0.003 -0.0094,0.004 -0.0031,0.001 -0.0061,0.003 -0.0092,0.004 -0.003,0.001 -0.0059,0.003 -0.0089,0.004 -0.0029,10e-4 -0.0057,0.003 -0.0085,0.004 -0.0027,0.001 -0.0054,0.003 -0.008,0.004 -0.0024,0.001 -0.005,0.003 -0.0074,0.004 -0.0024,10e-4 -0.0046,0.003 -0.0069,0.004 -0.0021,0.001 -0.0043,0.003 -0.0064,0.004 -0.08162,0.0509 0.287795,-0.18666 0.211944,-0.13771 -0.0019,0.001 -0.0038,0.002 -0.0056,0.004 -0.0019,0.001 -0.0035,0.002 -0.0052,0.004 -0.0016,0.001 -0.0032,0.002 -0.0048,0.003 -0.0016,0.001 -0.003,0.002 -0.0045,0.003 -0.0013,0.001 -0.0028,0.002 -0.0041,0.003 -0.0013,0.001 -0.0026,0.002 -0.0038,0.003 -0.0013,0.001 -0.0024,0.002 -0.0035,0.003 -0.0011,7.9e-4 -0.0021,0.002 -0.0033,0.003 -0.0011,7.9e-4 -0.0019,0.002 -0.0029,0.002 -7.94e-4,8e-4 -0.0016,0.001 -0.0024,0.002 -7.93e-4,5.3e-4 -0.0013,0.001 -0.0021,0.002 -5.3e-4,5.3e-4 -0.0011,0.001 -0.0016,0.002 -5.29e-4,5.3e-4 -7.94e-4,7.9e-4 -0.0013,0.001 -5.29e-4,5.3e-4 -7.94e-4,8e-4 -0.0013,0.001 0,0 -0.217934,0.14153 -0.217934,0.14153 z"
       inkscape:connector-curvature="0" />
    <path
       style="fill:#000000;fill-opacity:1;fill-rule:nonzero;stroke:none;stroke-width:2.06375003;stroke-linecap:butt;stroke-linejoin:miter;stroke-miterlimit:4;stroke-dasharray:none;stroke-dashoffset:0;stroke-opacity:1"
       id="path4702"
       d="m 86.382047,159.96036 c 5.3e-4,-2.6e-4 0.0011,-5.3e-4 0.0013,-7.9e-4 5.3e-4,-2.7e-4 0.0011,-5.3e-4 0.0016,-8e-4 7.94e-4,-2.6e-4 0.0013,-7.9e-4 0.0021,-10e-4 7.93e-4,-5.3e-4 0.0016,-8e-4 0.0024,-0.001 0.0011,-5.3e-4 0.0019,-0.001 0.0028,-0.001 0.0011,-5.3e-4 0.0021,-0.001 0.0032,-0.002 0.0011,-5.3e-4 0.0024,-0.001 0.0035,-0.002 0.0013,-5.2e-4 0.0024,-0.001 0.0038,-0.002 0.0013,-5.3e-4 0.0027,-0.001 0.0041,-0.002 0.0016,-7.9e-4 0.003,-0.001 0.0044,-0.002 0.0016,-7.9e-4 0.0031,-0.001 0.0047,-0.002 0.0016,-8e-4 0.0033,-0.002 0.0049,-0.002 0.0019,-7.9e-4 0.0035,-0.002 0.0052,-0.002 0.0019,-7.9e-4 0.0037,-0.002 0.0055,-0.002 0.0019,-8e-4 0.0039,-0.002 0.0058,-0.002 0.0021,-8e-4 0.004,-0.002 0.0061,-0.003 0.0021,-7.9e-4 0.0042,-0.002 0.0063,-0.003 0.0021,-7.9e-4 0.0044,-0.002 0.0066,-0.002 0.0024,-7.9e-4 0.0046,-0.002 0.0069,-0.002 0.0024,-7.9e-4 0.0048,-0.002 0.0073,-0.002 0.0026,-7.9e-4 0.0051,-0.002 0.0076,-0.002 0.0026,-7.9e-4 0.0053,-0.002 0.0079,-0.002 0.0027,-7.9e-4 0.0055,-0.001 0.0082,-0.002 0.0028,-8e-4 0.0056,-10e-4 0.0085,-0.002 0.0029,-7.9e-4 0.0058,-0.001 0.0088,-0.002 0.003,-5.3e-4 0.006,-0.001 0.009,-0.002 0.0031,-5.3e-4 0.0061,-10e-4 0.0092,-0.002 0.0031,-5.3e-4 0.0063,-0.001 0.0095,-0.002 0.0032,-5.3e-4 0.0065,-0.001 0.0097,-0.002 0.0033,-5.3e-4 0.0066,-10e-4 0.0099,-0.002 0.0034,-5.3e-4 0.0068,-0.001 0.01016,-0.002 0.0035,-5.3e-4 0.0069,-0.001 0.01037,-0.002 0.0035,-5.3e-4 0.0071,-10e-4 0.01058,-0.002 0.0036,-5.3e-4 0.0072,-0.001 0.0108,-0.001 0.0037,-5.3e-4 0.0073,-7.9e-4 0.01101,-0.001 0.0037,-5.3e-4 0.0074,-8e-4 0.01114,-0.001 0.0038,-5.3e-4 0.0076,-8e-4 0.01135,-0.001 0.0038,-5.3e-4 0.0077,-7.9e-4 0.01151,-10e-4 0.0039,-2.7e-4 0.0078,-7.9e-4 0.0117,-0.001 0.0039,-2.6e-4 0.0079,-7.9e-4 0.01185,-0.001 0.004,-2.6e-4 0.008,-7.9e-4 0.01199,-0.001 0.004,-2.6e-4 0.0081,-7.9e-4 0.01217,-0.001 0.0041,-2.7e-4 0.0082,-8e-4 0.01228,-0.001 0.0042,-2.7e-4 0.0083,-5.3e-4 0.01244,-10e-4 0.0042,-2.7e-4 0.0083,-5.3e-4 0.01246,-7.9e-4 0.0042,-2.7e-4 0.0084,-5.3e-4 0.01259,-8e-4 0.0042,-2.6e-4 0.0084,-5.3e-4 0.01265,-7.9e-4 0.0042,-2.2e-4 0.0085,-2.7e-4 0.0127,-5.3e-4 0.0042,-1.7e-4 0.0085,-2.7e-4 0.0127,-5.3e-4 0.0042,-1.3e-4 0.0085,-2.1e-4 0.01273,-2.6e-4 0.0042,-7e-5 0.0084,-8e-5 0.01265,-8e-5 0.0043,-1e-5 0.0085,-3e-5 0.01275,-2e-5 0.0042,1e-5 0.0085,8e-5 0.0127,1.4e-4 0.0042,8e-5 0.0085,1.9e-4 0.01273,2.7e-4 0.0043,1e-4 0.0085,2e-4 0.01281,2.6e-4 0.0043,1.1e-4 0.0086,2.6e-4 0.01286,5.3e-4 0.0043,1.8e-4 0.0086,2.7e-4 0.01294,5.3e-4 0.0043,1.9e-4 0.0087,5.3e-4 0.01299,7.9e-4 0.0043,2.6e-4 0.0087,5.3e-4 0.01297,8e-4 0.0043,2.4e-4 0.0087,5.3e-4 0.01304,7.9e-4 0.0043,2.7e-4 0.0087,5.3e-4 0.01299,8e-4 0.0044,2.6e-4 0.0087,5.2e-4 0.01307,0.001 0.0043,2.7e-4 0.0087,8e-4 0.01297,0.001 0.0043,2.7e-4 0.0087,8e-4 0.01302,0.001 0.0043,2.7e-4 0.0087,7.9e-4 0.01297,10e-4 0.0043,5.3e-4 0.0086,0.001 0.01291,0.002 0.0043,5.3e-4 0.0086,0.001 0.01288,0.002 0.0043,5.3e-4 0.0085,0.001 0.01281,0.002 0.0043,5.3e-4 0.0086,0.001 0.01283,0.002 0.0043,5.3e-4 0.0085,0.001 0.01283,0.002 0.0043,5.3e-4 0.0086,0.001 0.01288,0.002 0.0043,7.9e-4 0.0086,0.001 0.01294,0.002 0.0043,8e-4 0.0087,0.001 0.01299,0.002 0.0043,7.9e-4 0.0087,0.001 0.01299,0.002 0.0043,7.9e-4 0.0087,0.001 0.01304,0.002 0.0044,8e-4 0.0087,0.001 0.01307,0.002 0.0044,7.9e-4 0.0088,0.001 0.01312,0.002 0.0044,7.9e-4 0.0087,0.002 0.01307,0.002 0.0044,8e-4 0.0088,0.001 0.01312,0.002 0.0044,7.9e-4 0.0088,0.001 0.01315,0.002 0.0044,7.9e-4 0.0088,0.001 0.01328,0.002 0.0044,8e-4 0.0089,0.001 0.01336,0.002 0.0045,7.9e-4 0.009,0.001 0.01347,0.002 0.0045,5.3e-4 0.009,0.001 0.01352,0.002 0.0045,8e-4 0.009,0.001 0.01352,0.002 0.0045,7.9e-4 0.009,0.001 0.01357,0.002 0.0046,5.3e-4 0.0091,0.001 0.01363,0.002 0.0046,5.3e-4 0.0092,0.001 0.01373,0.002 0.0046,5.3e-4 0.0092,0.001 0.01381,0.002 0.0046,5.3e-4 0.0093,0.001 0.01389,0.002 0.0047,5.2e-4 0.0093,0.001 0.01397,0.002 0.0047,5.3e-4 0.0093,0.001 0.01402,0.002 0.0047,5.3e-4 0.0093,0.001 0.01402,0.001 0.0047,5.3e-4 0.0093,8e-4 0.01402,0.001 0.0047,5.3e-4 0.0094,7.9e-4 0.01408,0.001 0.0047,2.7e-4 0.0094,8e-4 0.0141,0.001 0.0047,2.7e-4 0.0094,5.3e-4 0.01413,8e-4 0.0047,2.6e-4 0.0094,5.3e-4 0.0141,7.9e-4 0.0047,2.6e-4 0.0094,5.3e-4 0.01418,7.9e-4 0.0047,2.2e-4 0.0094,5.3e-4 0.01413,5.3e-4 0.0047,2e-4 0.0095,2.7e-4 0.01421,5.3e-4 0.0047,1.4e-4 0.0095,2.3e-4 0.01421,2.7e-4 0.0047,8e-5 0.0095,1.4e-4 0.01421,1.8e-4 0.0047,4e-5 0.0094,4e-5 0.0141,2e-5 0.0047,-1e-5 0.0094,-9e-5 0.01418,-1.6e-4 0.0047,-6e-5 0.0095,-1.5e-4 0.01418,-2.6e-4 0.0047,-1.2e-4 0.0094,-2.6e-4 0.01416,-5.3e-4 0.0047,-1.3e-4 0.0094,-2.6e-4 0.01415,-5.3e-4 0.0047,-1.8e-4 0.0094,-2.6e-4 0.01418,-5.3e-4 0.0047,-2e-4 0.0094,-5.2e-4 0.01413,-7.9e-4 0.0047,-2.6e-4 0.0094,-5.3e-4 0.0141,-7.9e-4 0.0047,-2.7e-4 0.0094,-5.3e-4 0.01408,-0.001 0.0047,-2.7e-4 0.0094,-7.9e-4 0.0141,-10e-4 0.0047,-2.6e-4 0.0093,-7.9e-4 0.01402,-0.001 0.0047,-2.6e-4 0.0093,-7.9e-4 0.01402,-0.001 0.0046,-5.3e-4 0.0093,-7.9e-4 0.01389,-0.001 0.0046,-5.3e-4 0.0093,-7.9e-4 0.01389,-0.001 0.0046,-5.3e-4 0.0092,-0.001 0.01384,-0.002 0.0046,-5.3e-4 0.0092,-0.001 0.01376,-0.002 0.0046,-5.3e-4 0.0092,-0.001 0.01376,-0.002 0.0046,-5.3e-4 0.0091,-0.001 0.01371,-0.002 0.0046,-5.3e-4 0.0091,-0.001 0.01365,-0.002 0.0045,-5.3e-4 0.009,-0.001 0.01355,-0.002 0.0045,-7.9e-4 0.009,-0.001 0.01352,-0.002 0.0045,-7.9e-4 0.0089,-0.001 0.01339,-0.002 0.0045,-8e-4 0.0089,-0.002 0.01341,-0.002 0.0044,-7.9e-4 0.0089,-0.002 0.01336,-0.002 0.0045,-7.9e-4 0.0089,-0.002 0.01341,-0.002 0.0045,-7.9e-4 0.009,-0.002 0.01347,-0.003 0.0045,-8e-4 0.009,-0.002 0.01347,-0.003 0.0045,-0.001 0.0089,-0.002 0.01339,-0.003 0.0044,-10e-4 0.0089,-0.002 0.01328,-0.003 0.0044,-0.001 0.0088,-0.002 0.01323,-0.003 0.0044,-10e-4 0.0088,-0.002 0.0132,-0.003 0.0044,-0.001 0.0088,-0.002 0.01315,-0.003 0.0043,-10e-4 0.0087,-0.002 0.01304,-0.003 0.0043,-0.001 0.0086,-0.002 0.01294,-0.003 0.0043,-10e-4 0.0086,-0.002 0.01283,-0.004 0.0042,-0.001 0.0084,-0.002 0.01265,-0.004 0.0042,-0.001 0.0084,-0.003 0.01257,-0.004 0.0042,-10e-4 0.0083,-0.003 0.01249,-0.004 0.0041,-0.001 0.0082,-0.003 0.0123,-0.004 0.0041,-0.001 0.0082,-0.003 0.01222,-0.004 0.004,-0.002 0.0081,-0.003 0.01209,-0.004 0.004,-0.002 0.0079,-0.003 0.01191,-0.005 0.0039,-0.002 0.0078,-0.003 0.01172,-0.005 0.0039,-0.002 0.0077,-0.003 0.01159,-0.005 0.0038,-0.002 0.0076,-0.003 0.01143,-0.005 0.0038,-0.002 0.0075,-0.003 0.01122,-0.005 0.0037,-0.002 0.0074,-0.004 0.01111,-0.005 0.0037,-0.002 0.0073,-0.004 0.01095,-0.005 0.0037,-0.002 0.0072,-0.004 0.01085,-0.006 0.0036,-0.002 0.0071,-0.004 0.01069,-0.006 0.0035,-0.002 0.0071,-0.004 0.01061,-0.006 0.0035,-0.002 0.007,-0.004 0.01053,-0.006 0.0024,-0.001 0.0046,-0.003 0.007,-0.004 0,0 -0.217934,0.14153 -0.217934,0.14153 v 0 c -0.0024,0.001 -0.0046,0.003 -0.007,0.004 -0.0035,0.002 -0.007,0.004 -0.01053,0.006 -0.0035,0.002 -0.0071,0.004 -0.01064,0.006 -0.0035,0.002 -0.0071,0.004 -0.01069,0.006 -0.0036,0.002 -0.0072,0.004 -0.01085,0.006 -0.0036,0.002 -0.0073,0.004 -0.01095,0.005 -0.0037,0.002 -0.0074,0.004 -0.01111,0.005 -0.0037,0.002 -0.0075,0.004 -0.01122,0.005 -0.0038,0.002 -0.0076,0.003 -0.01143,0.005 -0.0039,0.002 -0.0077,0.003 -0.01159,0.005 -0.0039,0.002 -0.0078,0.003 -0.01172,0.005 -0.0039,0.002 -0.0079,0.003 -0.01191,0.005 -0.004,0.002 -0.008,0.003 -0.01207,0.004 -0.0041,0.002 -0.0081,0.003 -0.01222,0.004 -0.0041,0.001 -0.0082,0.003 -0.0123,0.004 -0.0042,0.001 -0.0083,0.003 -0.01249,0.004 -0.0042,0.001 -0.0084,0.003 -0.01257,0.004 -0.0042,0.001 -0.0084,0.003 -0.01265,0.004 -0.0043,0.001 -0.0085,0.002 -0.01283,0.004 -0.0043,0.001 -0.0086,0.002 -0.01294,0.003 -0.0043,0.001 -0.0087,0.002 -0.01304,0.003 -0.0044,0.001 -0.0088,0.002 -0.01315,0.003 -0.0044,0.001 -0.0088,0.002 -0.0132,0.003 -0.0044,0.001 -0.0088,0.002 -0.01323,0.003 -0.0044,0.001 -0.0088,0.002 -0.01328,0.003 -0.0044,0.001 -0.0089,0.002 -0.01339,0.003 -0.0045,0.001 -0.009,0.002 -0.01347,0.003 -0.0045,0.001 -0.009,0.002 -0.01347,0.003 -0.0045,7.9e-4 -0.0089,0.002 -0.01341,0.002 -0.0044,7.9e-4 -0.0089,0.002 -0.01336,0.002 -0.0045,7.9e-4 -0.0089,0.002 -0.01341,0.002 -0.0045,7.9e-4 -0.0089,0.002 -0.01339,0.002 -0.0045,7.9e-4 -0.009,0.001 -0.01352,0.002 -0.0045,8e-4 -0.009,10e-4 -0.01355,0.002 -0.0046,5.3e-4 -0.0091,0.001 -0.01365,0.002 -0.0046,5.3e-4 -0.0091,0.001 -0.01371,0.002 -0.0046,5.3e-4 -0.0092,10e-4 -0.01376,0.002 -0.0046,5.3e-4 -0.0092,0.001 -0.01376,0.002 -0.0046,5.2e-4 -0.0092,0.001 -0.01384,0.002 -0.0046,5.3e-4 -0.0093,10e-4 -0.01389,10e-4 -0.0046,5.2e-4 -0.0093,7.9e-4 -0.01389,0.001 -0.0047,5.3e-4 -0.0093,7.9e-4 -0.01402,0.001 -0.0047,2.6e-4 -0.0093,7.9e-4 -0.01402,0.001 -0.0047,2.6e-4 -0.0094,7.9e-4 -0.0141,0.001 -0.0047,2.7e-4 -0.0094,8e-4 -0.01408,0.001 -0.0047,2.7e-4 -0.0094,5.3e-4 -0.0141,8e-4 -0.0047,2.4e-4 -0.0094,5.2e-4 -0.01413,7.9e-4 -0.0047,2e-4 -0.0094,5.3e-4 -0.01418,5.3e-4 -0.0047,1.7e-4 -0.0094,2.6e-4 -0.01416,5.3e-4 -0.0047,1.4e-4 -0.0094,2.6e-4 -0.01413,5.3e-4 -0.0047,1e-4 -0.0095,1.9e-4 -0.01418,2.5e-4 -0.0047,8e-5 -0.0094,1.5e-4 -0.01418,1.7e-4 -0.0047,2e-5 -0.0094,1e-5 -0.0141,-3e-5 -0.0047,-4e-5 -0.0095,-9e-5 -0.01421,-1.8e-4 -0.0047,-8e-5 -0.0095,-1.7e-4 -0.01421,-2.6e-4 -0.0047,-1.4e-4 -0.0095,-2.7e-4 -0.01421,-5.3e-4 -0.0047,-2e-4 -0.0094,-5.3e-4 -0.01413,-5.3e-4 -0.0047,-2.3e-4 -0.0094,-5.3e-4 -0.01418,-8e-4 -0.0047,-2.6e-4 -0.0094,-5.2e-4 -0.0141,-7.9e-4 -0.0047,-2.6e-4 -0.0094,-5.3e-4 -0.01413,-0.001 -0.0047,-2.6e-4 -0.0094,-7.9e-4 -0.0141,-10e-4 -0.0047,-2.6e-4 -0.0094,-7.9e-4 -0.01408,-0.001 -0.0047,-5.3e-4 -0.0094,-8e-4 -0.01402,-0.001 -0.0047,-5.3e-4 -0.0094,-0.001 -0.01402,-0.001 -0.0047,-5.3e-4 -0.0093,-0.001 -0.01402,-0.002 -0.0047,-5.3e-4 -0.0093,-10e-4 -0.01397,-0.002 -0.0046,-5.2e-4 -0.0093,-0.001 -0.01389,-0.002 -0.0046,-5.3e-4 -0.0092,-0.001 -0.01381,-0.002 -0.0046,-5.3e-4 -0.0092,-10e-4 -0.01373,-0.002 -0.0046,-5.3e-4 -0.0091,-0.001 -0.01363,-0.002 -0.0045,-5.3e-4 -0.009,-0.001 -0.01357,-0.002 -0.0045,-7.9e-4 -0.009,-10e-4 -0.01352,-0.002 -0.0045,-7.9e-4 -0.009,-0.001 -0.01352,-0.002 -0.0045,-5.3e-4 -0.009,-0.001 -0.01347,-0.002 -0.0044,-7.9e-4 -0.0089,-10e-4 -0.01336,-0.002 -0.0044,-7.9e-4 -0.0088,-0.001 -0.01328,-0.002 -0.0044,-8e-4 -0.0088,-0.001 -0.01315,-0.002 -0.0044,-7.9e-4 -0.0088,-10e-4 -0.01312,-0.002 -0.0044,-7.9e-4 -0.0087,-0.001 -0.01307,-0.002 -0.0044,-8e-4 -0.0088,-0.002 -0.01312,-0.002 -0.0044,-7.9e-4 -0.0087,-10e-4 -0.01307,-0.002 -0.0043,-7.9e-4 -0.0087,-0.001 -0.01304,-0.002 -0.0043,-8e-4 -0.0087,-0.001 -0.01299,-0.002 -0.0043,-7.9e-4 -0.0087,-10e-4 -0.01299,-0.002 -0.0043,-7.9e-4 -0.0086,-0.001 -0.01294,-0.002 -0.0043,-8e-4 -0.0086,-0.001 -0.01288,-0.002 -0.0043,-5.2e-4 -0.0085,-10e-4 -0.01283,-0.002 -0.0043,-5.3e-4 -0.0086,-0.001 -0.01283,-0.002 -0.0043,-5.3e-4 -0.0085,-0.001 -0.01281,-0.002 -0.0043,-5.3e-4 -0.0086,-10e-4 -0.01289,-0.002 -0.0043,-5.3e-4 -0.0086,-0.001 -0.01291,-0.002 -0.0043,-5.3e-4 -0.0086,-0.001 -0.01296,-0.001 -0.0043,-5.3e-4 -0.0087,-7.9e-4 -0.01302,-0.001 -0.0043,-2.6e-4 -0.0087,-7.9e-4 -0.01296,-10e-4 -0.0044,-2.6e-4 -0.0087,-7.9e-4 -0.01307,-0.001 -0.0043,-2.7e-4 -0.0087,-5.3e-4 -0.01299,-8e-4 -0.0043,-2.6e-4 -0.0087,-5.3e-4 -0.01304,-7.9e-4 -0.0043,-2.5e-4 -0.0087,-5.3e-4 -0.01296,-8e-4 -0.0043,-2.5e-4 -0.0087,-5.3e-4 -0.01299,-7.9e-4 -0.0043,-1.9e-4 -0.0086,-2.6e-4 -0.01294,-5.3e-4 -0.0043,-1.6e-4 -0.0086,-2.6e-4 -0.01286,-5.3e-4 -0.0043,-9e-5 -0.0085,-1.9e-4 -0.01281,-2.6e-4 -0.0042,-1e-4 -0.0085,-2.1e-4 -0.01273,-2.7e-4 -0.0042,-6e-5 -0.0085,-1.3e-4 -0.0127,-1.3e-4 -0.0043,-2e-5 -0.0085,0 -0.01275,10e-6 -0.0042,0 -0.0084,1e-5 -0.01265,8e-5 -0.0043,5e-5 -0.0085,1.3e-4 -0.01273,2.6e-4 -0.0042,1.2e-4 -0.0085,2.4e-4 -0.0127,5.3e-4 -0.0042,1.7e-4 -0.0085,2.6e-4 -0.0127,5.3e-4 -0.0042,2.1e-4 -0.0084,5.3e-4 -0.01265,7.9e-4 -0.0042,2.6e-4 -0.0084,5.3e-4 -0.01259,8e-4 -0.0042,2.6e-4 -0.0083,5.2e-4 -0.01246,7.9e-4 -0.0042,2.6e-4 -0.0083,5.3e-4 -0.01243,0.001 -0.0041,2.6e-4 -0.0082,5.3e-4 -0.01228,0.001 -0.004,2.6e-4 -0.0081,7.9e-4 -0.01217,0.001 -0.004,2.7e-4 -0.008,8e-4 -0.01198,0.001 -0.0039,2.7e-4 -0.0079,8e-4 -0.01185,10e-4 -0.0039,2.7e-4 -0.0078,7.9e-4 -0.01169,0.001 -0.0038,2.6e-4 -0.0077,7.9e-4 -0.01151,0.001 -0.0038,5.3e-4 -0.0076,8e-4 -0.01135,0.001 -0.0037,5.2e-4 -0.0074,7.9e-4 -0.01114,0.001 -0.0037,5.3e-4 -0.0073,7.9e-4 -0.01098,10e-4 -0.0036,5.3e-4 -0.0072,7.9e-4 -0.0108,0.001 -0.0035,5.3e-4 -0.0071,0.001 -0.01058,0.001 -0.0035,5.3e-4 -0.0069,0.001 -0.01037,0.002 -0.0034,5.3e-4 -0.0068,0.001 -0.01013,0.002 -0.0033,5.3e-4 -0.0066,0.001 -0.0099,0.002 -0.0032,5.3e-4 -0.0065,0.001 -0.0097,0.002 -0.0031,5.3e-4 -0.0063,0.001 -0.0095,0.002 -0.0031,5.3e-4 -0.0061,0.001 -0.0092,0.002 -0.003,5.3e-4 -0.006,0.001 -0.009,0.002 -0.0029,5.3e-4 -0.0058,0.001 -0.0088,0.002 -0.0028,7.9e-4 -0.0057,0.001 -0.0085,0.002 -0.0028,8e-4 -0.0055,0.001 -0.0082,0.002 -0.0026,7.9e-4 -0.0053,0.001 -0.0079,0.002 -0.0026,7.9e-4 -0.0051,0.002 -0.0076,0.002 -0.0024,7.9e-4 -0.0048,0.002 -0.0073,0.002 -0.0024,7.9e-4 -0.0046,0.002 -0.0069,0.002 -0.0021,7.9e-4 -0.0044,0.002 -0.0066,0.002 -0.0021,7.9e-4 -0.0042,0.002 -0.0063,0.003 -0.0021,7.9e-4 -0.004,0.002 -0.0061,0.003 -0.0019,8e-4 -0.0039,0.002 -0.0058,0.002 -0.0019,8e-4 -0.0037,0.002 -0.0055,0.002 -0.0019,8e-4 -0.0035,0.002 -0.0052,0.002 -0.0016,7.9e-4 -0.0033,0.002 -0.0049,0.002 -0.0016,8e-4 -0.0031,0.001 -0.0047,0.002 -0.0016,7.9e-4 -0.003,0.001 -0.0044,0.002 -0.0013,5.2e-4 -0.0028,0.001 -0.0041,0.002 -0.0013,5.3e-4 -0.0024,0.001 -0.0038,0.002 -0.0011,5.3e-4 -0.0024,0.001 -0.0035,0.002 -0.0011,5.3e-4 -0.0021,0.001 -0.0032,0.002 -0.0011,5.3e-4 -0.0019,0.001 -0.0028,0.001 -7.94e-4,5.3e-4 -0.0016,7.9e-4 -0.0024,10e-4 -7.94e-4,2.7e-4 -0.0013,7.9e-4 -0.0021,0.001 -5.29e-4,2.6e-4 -0.0011,5.3e-4 -0.0016,7.9e-4 -5.3e-4,2.7e-4 -0.0011,5.3e-4 -0.0013,8e-4 0,0 0.217937,-0.14153 0.217937,-0.14153 z"
       inkscape:connector-curvature="0" />
    <path
       style="fill:#000000;fill-opacity:1;fill-rule:nonzero;stroke:none;stroke-width:2.06375003;stroke-linecap:butt;stroke-linejoin:miter;stroke-miterlimit:4;stroke-dasharray:none;stroke-dashoffset:0;stroke-opacity:1"
       id="path4704"
       d="m 86.321171,160.53058 c 5.29e-4,-2.7e-4 0.0011,-5.3e-4 0.0013,-7.9e-4 5.29e-4,-2.7e-4 0.0011,-5.3e-4 0.0016,-8e-4 5.29e-4,-2.6e-4 0.0013,-7.9e-4 0.0019,-0.001 7.94e-4,-5.3e-4 0.0016,-7.9e-4 0.0021,-10e-4 7.94e-4,-5.3e-4 0.0016,-0.001 0.0026,-0.002 0.0011,-5.3e-4 0.0019,-0.001 0.0028,-0.002 0.0011,-5.3e-4 0.0021,-0.001 0.0033,-0.002 0.0013,-5.3e-4 0.0024,-0.001 0.0036,-0.002 0.0013,-7.9e-4 0.0026,-0.001 0.0039,-0.002 0.0013,-7.9e-4 0.0028,-0.002 0.0043,-0.002 0.0016,-8e-4 0.003,-0.002 0.0046,-0.002 0.0016,-8e-4 0.0032,-0.002 0.0049,-0.002 0.0016,-8e-4 0.0034,-0.002 0.0052,-0.002 0.0019,-7.9e-4 0.0037,-0.002 0.0055,-0.003 0.0019,-8e-4 0.0038,-0.002 0.0058,-0.003 0.0021,-0.001 0.004,-0.002 0.006,-0.003 0.0021,-0.001 0.0042,-0.002 0.0062,-0.003 0.0021,-0.001 0.0043,-0.002 0.0065,-0.003 0.0021,-0.001 0.0045,-0.002 0.0067,-0.003 0.0024,-0.001 0.0047,-0.002 0.007,-0.003 0.0024,-0.001 0.0048,-0.002 0.0072,-0.003 0.0024,-0.001 0.005,-0.002 0.0075,-0.003 0.0026,-0.001 0.0051,-0.002 0.0076,-0.003 0.0026,-0.001 0.0052,-0.002 0.0078,-0.003 0.0027,-0.001 0.0053,-0.002 0.008,-0.003 0.0028,-0.001 0.0055,-0.002 0.0083,-0.003 0.0028,-0.001 0.0056,-0.002 0.0084,-0.003 0.0029,-0.001 0.0057,-0.002 0.0086,-0.003 0.0029,-0.001 0.0058,-0.002 0.0088,-0.003 0.003,-0.001 0.006,-0.002 0.009,-0.003 0.003,-0.001 0.0061,-0.002 0.0091,-0.003 0.0031,-0.001 0.0062,-0.002 0.0093,-0.003 0.0032,-0.001 0.0064,-0.002 0.0095,-0.003 0.0033,-0.001 0.0065,-0.002 0.0098,-0.003 0.0033,-8e-4 0.0067,-0.002 0.01,-0.003 0.0034,-8e-4 0.0068,-0.002 0.01024,-0.002 0.0035,-7.9e-4 0.0069,-0.002 0.0104,-0.002 0.0035,-8e-4 0.007,-10e-4 0.0105,-0.002 0.0035,-5.3e-4 0.007,-0.001 0.01053,-0.002 0.0035,-5.3e-4 0.0071,-0.001 0.01066,-0.002 0.0035,-5.3e-4 0.0071,-7.9e-4 0.01061,-10e-4 0.0035,-2.7e-4 0.0071,-8e-4 0.01064,-0.001 0.0035,-2.7e-4 0.0071,-5.3e-4 0.01069,-7.9e-4 0.0036,-2.5e-4 0.0071,-5.3e-4 0.01074,-5.3e-4 0.0036,-2e-4 0.0072,-2.7e-4 0.01085,-5.3e-4 0.0037,-1.5e-4 0.0073,-2.6e-4 0.01093,-2.7e-4 0.0037,-9e-5 0.0074,-1.9e-4 0.01106,-2.6e-4 0.0037,-7e-5 0.0074,-1.1e-4 0.01114,-1.6e-4 0.0038,-6e-5 0.0075,-1e-4 0.01127,-1.1e-4 0.0038,-3e-5 0.0076,-2e-5 0.01135,0 0.0038,4e-5 0.0076,1e-4 0.01148,1.9e-4 0.0039,1e-4 0.0078,1.9e-4 0.01164,2.7e-4 0.0039,1.1e-4 0.0078,2.4e-4 0.01172,2.6e-4 0.0039,1.3e-4 0.0079,2.5e-4 0.01185,2.6e-4 0.004,1.2e-4 0.008,2.7e-4 0.01196,5.3e-4 0.004,1.8e-4 0.008,2.7e-4 0.01209,5.3e-4 0.0041,1.9e-4 0.0081,2.7e-4 0.0122,5.3e-4 0.0041,2.1e-4 0.0082,5.3e-4 0.01225,5.3e-4 0.0041,2.4e-4 0.0082,5.3e-4 0.01228,8e-4 0.0041,2.3e-4 0.0083,5.2e-4 0.01236,7.9e-4 0.0042,2.6e-4 0.0083,5.3e-4 0.01246,7.9e-4 0.0042,2.7e-4 0.0084,5.3e-4 0.01262,8e-4 0.0042,2.6e-4 0.0084,5.3e-4 0.01262,0.001 0.0042,2.7e-4 0.0084,8e-4 0.01267,0.001 0.0042,2.7e-4 0.0085,5.3e-4 0.01273,0.001 0.0043,2.7e-4 0.0085,8e-4 0.01275,10e-4 0.0043,2.6e-4 0.0085,7.9e-4 0.01281,0.001 0.0043,2.7e-4 0.0086,8e-4 0.01294,0.001 0.0043,5.2e-4 0.0087,7.9e-4 0.01302,0.001 0.0044,5.3e-4 0.0087,7.9e-4 0.01307,0.001 0.0044,5.3e-4 0.0088,8e-4 0.01318,0.001 0.0044,5.3e-4 0.0088,8e-4 0.0132,10e-4 0.0044,5.3e-4 0.0088,7.9e-4 0.0132,0.001 0.0044,5.3e-4 0.0088,0.001 0.01323,0.001 0.0044,5.3e-4 0.0088,0.001 0.0132,0.002 0.0044,5.3e-4 0.0088,0.001 0.01323,0.002 0.0044,5.3e-4 0.0089,0.001 0.01331,0.002 0.0044,5.2e-4 0.0089,0.001 0.01331,0.002 0.0044,5.3e-4 0.0089,0.001 0.01333,0.002 0.0045,5.3e-4 0.0089,0.001 0.01339,0.002 0.0044,5.3e-4 0.0089,0.001 0.01336,0.002 0.0045,5.2e-4 0.0089,0.001 0.01336,0.002 0.0045,5.3e-4 0.0089,0.001 0.01341,0.002 0.0045,5.3e-4 0.009,0.001 0.01349,0.002 0.0045,5.3e-4 0.0091,0.001 0.0136,0.002 0.0046,5.2e-4 0.0091,0.001 0.01365,0.002 0.0046,5.3e-4 0.0091,0.001 0.01371,0.002 0.0046,5.3e-4 0.0092,0.001 0.01376,0.002 0.0046,5.3e-4 0.0092,0.001 0.01384,0.001 0.0046,5.3e-4 0.0093,0.001 0.01392,0.001 0.0047,5.3e-4 0.0093,8e-4 0.014,0.001 0.0047,5.3e-4 0.0094,7.9e-4 0.01408,0.001 0.0047,5.3e-4 0.0094,7.9e-4 0.01413,0.001 0.0047,5.3e-4 0.0095,8e-4 0.01423,10e-4 0.0048,2.6e-4 0.0095,7.9e-4 0.01426,0.001 0.0048,2.7e-4 0.0096,8e-4 0.01437,0.001 0.0048,2.7e-4 0.0096,8e-4 0.01437,0.001 0.0048,2.7e-4 0.0096,7.9e-4 0.01437,0.001 0.0048,2.6e-4 0.0096,7.9e-4 0.01445,0.001 0.0048,2.6e-4 0.0097,7.9e-4 0.01447,10e-4 0.0048,2.6e-4 0.0097,7.9e-4 0.01455,0.001 0.0049,2.7e-4 0.0097,5.3e-4 0.01458,0.001 0.0049,2.7e-4 0.0098,5.3e-4 0.01466,0.001 0.0049,2.7e-4 0.0098,5.3e-4 0.01471,7.9e-4 0.0049,2.7e-4 0.0098,5.3e-4 0.01471,8e-4 0.0049,2.6e-4 0.0098,5.3e-4 0.01466,7.9e-4 0.0049,2.1e-4 0.0097,5.3e-4 0.0146,5.3e-4 0.0049,2.1e-4 0.0097,2.7e-4 0.01461,5.3e-4 0.0049,1.4e-4 0.0097,2.5e-4 0.01458,2.6e-4 0.0049,1.3e-4 0.0097,2.1e-4 0.01458,2.7e-4 0.0049,7e-5 0.0097,1.4e-4 0.01458,2.1e-4 0.0049,8e-5 0.0097,1e-4 0.01458,1.3e-4 0.0048,3e-5 0.0097,6e-5 0.01458,9e-5 0.0049,2e-5 0.0098,2e-5 0.01463,-1e-5 0.0048,-4e-5 0.0097,-9e-5 0.01458,-1.3e-4 0.0048,-7e-5 0.0097,-1.5e-4 0.01458,-2.3e-4 0.0048,-7e-5 0.0097,-1.8e-4 0.01453,-2.7e-4 0.0048,-1.2e-4 0.0097,-2.1e-4 0.01455,-2.6e-4 0.0048,-1.4e-4 0.0097,-2.7e-4 0.0145,-5.3e-4 0.0048,-1.7e-4 0.0097,-2.7e-4 0.01453,-5.3e-4 0.0048,-1.9e-4 0.0096,-2.6e-4 0.01442,-5.3e-4 0.0048,-2.2e-4 0.0096,-5.3e-4 0.01442,-7.9e-4 0.0048,-2.7e-4 0.0096,-5.3e-4 0.01431,-8e-4 0.0048,-2.6e-4 0.0095,-5.3e-4 0.01426,-10e-4 0.0047,-2.7e-4 0.0095,-8e-4 0.01418,-0.001 0.0047,-5.3e-4 0.0094,-8e-4 0.01405,-0.001 0.0047,-5.3e-4 0.0093,-7.9e-4 0.014,-0.001 0.0046,-5.3e-4 0.0093,-0.001 0.01389,-0.001 0.0046,-5.3e-4 0.0092,-0.001 0.01384,-0.002 0.0046,-5.3e-4 0.0092,-0.001 0.01371,-0.002 0.0046,-5.3e-4 0.0091,-0.001 0.01368,-0.002 0.0045,-5.3e-4 0.0091,-0.001 0.0136,-0.002 0.0045,-5.3e-4 0.009,-0.001 0.01347,-0.002 0.0045,-8e-4 0.0089,-0.001 0.01341,-0.002 0.0044,-7.9e-4 0.0088,-0.002 0.01326,-0.002 0.0044,-7.9e-4 0.0088,-0.002 0.01312,-0.002 0.0044,-7.9e-4 0.0087,-0.002 0.01307,-0.003 0.0043,-8e-4 0.0086,-0.002 0.01286,-0.003 0.0043,-7.9e-4 0.0085,-0.002 0.01278,-0.003 0.0042,-10e-4 0.0084,-0.002 0.01267,-0.003 0.0042,-0.001 0.0083,-0.002 0.01249,-0.003 0.0041,-10e-4 0.0083,-0.002 0.01238,-0.003 0.0041,-0.001 0.0082,-0.002 0.0123,-0.003 0.0041,-10e-4 0.0081,-0.002 0.01222,-0.004 0.0041,-0.001 0.0081,-0.002 0.01217,-0.004 0.004,-0.001 0.008,-0.002 0.01204,-0.004 0.004,-10e-4 0.008,-0.003 0.01196,-0.004 0.004,-0.001 0.008,-0.003 0.01196,-0.004 0.004,-0.001 0.0079,-0.003 0.01188,-0.004 0.0039,-10e-4 0.0078,-0.003 0.01175,-0.004 0.0039,-0.001 0.0078,-0.003 0.01172,-0.004 0.0039,-0.002 0.0077,-0.003 0.01151,-0.005 0.0038,-0.002 0.0076,-0.003 0.01132,-0.005 0.0038,-0.002 0.0075,-0.003 0.01119,-0.005 0.0037,-0.002 0.0074,-0.003 0.01101,-0.005 0.0036,-0.002 0.0072,-0.003 0.01074,-0.005 0.0035,-0.002 0.007,-0.004 0.01053,-0.005 0.0034,-0.002 0.0069,-0.004 0.01024,-0.006 0.0034,-0.002 0.0067,-0.004 0.01003,-0.006 0.0033,-0.002 0.0065,-0.004 0.0098,-0.006 0,0 -0.217935,0.14153 -0.217935,0.14153 v 0 c -0.0033,0.002 -0.0065,0.004 -0.0098,0.006 -0.0033,0.002 -0.0066,0.004 -0.01003,0.006 -0.0034,0.002 -0.0068,0.004 -0.01024,0.006 -0.0035,0.002 -0.007,0.004 -0.01053,0.005 -0.0036,0.002 -0.0071,0.004 -0.01074,0.005 -0.0037,0.002 -0.0073,0.003 -0.01101,0.005 -0.0037,0.002 -0.0074,0.003 -0.01119,0.005 -0.0038,0.002 -0.0075,0.003 -0.01135,0.005 -0.0038,0.002 -0.0076,0.003 -0.01154,0.005 -0.0039,0.002 -0.0078,0.003 -0.01172,0.004 -0.0039,10e-4 -0.0078,0.003 -0.01175,0.004 -0.0039,0.001 -0.0079,0.003 -0.01188,0.004 -0.004,0.001 -0.008,0.003 -0.01196,0.004 -0.004,0.001 -0.008,0.003 -0.01196,0.004 -0.004,0.001 -0.008,0.003 -0.01204,0.004 -0.004,0.001 -0.0081,0.003 -0.01217,0.004 -0.0041,0.001 -0.0081,0.002 -0.01222,0.004 -0.0041,0.001 -0.0082,0.002 -0.01233,0.004 -0.0041,0.001 -0.0082,0.002 -0.01238,0.003 -0.0042,10e-4 -0.0083,0.002 -0.01246,0.003 -0.0042,0.001 -0.0084,0.002 -0.01267,0.003 -0.0043,10e-4 -0.0085,0.002 -0.01275,0.003 -0.0043,7.9e-4 -0.0086,0.002 -0.01286,0.003 -0.0044,7.9e-4 -0.0087,0.002 -0.01307,0.003 -0.0044,7.9e-4 -0.0087,0.002 -0.01312,0.002 -0.0044,7.9e-4 -0.0088,0.002 -0.01326,0.002 -0.0045,8e-4 -0.0089,0.001 -0.01342,0.002 -0.0045,5.3e-4 -0.009,0.001 -0.01347,0.002 -0.0045,5.3e-4 -0.009,0.001 -0.0136,0.002 -0.0046,5.2e-4 -0.0091,0.001 -0.01368,0.002 -0.0046,5.3e-4 -0.0091,0.001 -0.01371,0.002 -0.0046,5.2e-4 -0.0092,0.001 -0.01384,0.002 -0.0046,5.3e-4 -0.0093,0.001 -0.01389,0.001 -0.0047,5.2e-4 -0.0093,7.9e-4 -0.014,0.001 -0.0047,5.3e-4 -0.0094,7.9e-4 -0.01405,0.001 -0.0047,2.7e-4 -0.0094,8e-4 -0.01418,0.001 -0.0048,2.6e-4 -0.0095,7.9e-4 -0.01426,0.001 -0.0048,2.6e-4 -0.0096,5.3e-4 -0.01431,7.9e-4 -0.0048,2.7e-4 -0.0096,5.3e-4 -0.01442,8e-4 -0.0048,2.2e-4 -0.0096,5.2e-4 -0.01442,5.2e-4 -0.0048,1.8e-4 -0.0097,2.7e-4 -0.01453,5.3e-4 -0.0048,1.6e-4 -0.0097,2.7e-4 -0.0145,5.3e-4 -0.0048,1.3e-4 -0.0097,2.3e-4 -0.01455,2.7e-4 -0.0048,1.1e-4 -0.0097,2.3e-4 -0.01453,2.6e-4 -0.0048,8e-5 -0.0097,1.7e-4 -0.01455,2.3e-4 -0.0049,4e-5 -0.0097,1e-4 -0.01458,1.3e-4 -0.0049,3e-5 -0.0098,3e-5 -0.01463,1e-5 -0.0048,-3e-5 -0.0097,-6e-5 -0.01455,-8e-5 -0.0049,-3e-5 -0.0097,-6e-5 -0.01458,-1.4e-4 -0.0049,-7e-5 -0.0097,-1.4e-4 -0.01458,-2.1e-4 -0.0049,-7e-5 -0.0097,-1.6e-4 -0.01458,-2.6e-4 -0.0049,-1.1e-4 -0.0097,-2.2e-4 -0.01458,-2.7e-4 -0.0049,-1.5e-4 -0.0097,-2.6e-4 -0.01461,-5.3e-4 -0.0049,-2e-4 -0.0097,-2.6e-4 -0.01461,-5.3e-4 -0.0049,-2e-4 -0.0098,-5.3e-4 -0.01466,-7.9e-4 -0.0049,-2.5e-4 -0.0098,-5.3e-4 -0.01471,-7.9e-4 -0.0049,-2.7e-4 -0.0098,-5.3e-4 -0.01471,-8e-4 -0.0049,-2.6e-4 -0.0098,-5.3e-4 -0.01466,-0.001 -0.0049,-2.6e-4 -0.0097,-5.2e-4 -0.01458,-10e-4 -0.0049,-2.7e-4 -0.0097,-8e-4 -0.01458,-0.001 -0.0048,-2.7e-4 -0.0097,-8e-4 -0.01447,-0.001 -0.0048,-2.7e-4 -0.0096,-7.9e-4 -0.01445,-0.001 -0.0048,-2.6e-4 -0.0096,-7.9e-4 -0.01437,-0.001 -0.0048,-2.6e-4 -0.0096,-7.9e-4 -0.01437,-0.001 -0.0048,-2.6e-4 -0.0096,-7.9e-4 -0.01437,-10e-4 -0.0048,-2.7e-4 -0.0095,-8e-4 -0.01426,-0.001 -0.0047,-2.7e-4 -0.0095,-8e-4 -0.01423,-0.001 -0.0047,-5.2e-4 -0.0094,-7.9e-4 -0.01413,-0.001 -0.0047,-5.3e-4 -0.0094,-7.9e-4 -0.0141,-0.001 -0.0047,-5.3e-4 -0.0093,-7.9e-4 -0.014,-0.001 -0.0046,-5.3e-4 -0.0093,-8e-4 -0.01392,-10e-4 -0.0046,-5.3e-4 -0.0092,-0.001 -0.01384,-0.001 -0.0046,-5.3e-4 -0.0092,-0.001 -0.01376,-0.002 -0.0046,-5.3e-4 -0.0091,-0.001 -0.01368,-0.002 -0.0046,-5.3e-4 -0.0091,-10e-4 -0.01365,-0.002 -0.0045,-5.3e-4 -0.0091,-0.001 -0.0136,-0.002 -0.0045,-5.3e-4 -0.009,-0.001 -0.01349,-0.002 -0.0045,-5.3e-4 -0.0089,-10e-4 -0.01341,-0.002 -0.0044,-5.3e-4 -0.0089,-0.001 -0.01336,-0.002 -0.0044,-5.3e-4 -0.0089,-0.001 -0.01336,-0.002 -0.0044,-5.3e-4 -0.0089,-10e-4 -0.01336,-0.002 -0.0044,-5.3e-4 -0.0089,-0.001 -0.01333,-0.002 -0.0044,-5.3e-4 -0.0089,-0.001 -0.01331,-0.002 -0.0044,-5.3e-4 -0.0089,-10e-4 -0.01331,-0.002 -0.0044,-5.3e-4 -0.0088,-0.001 -0.01323,-0.002 -0.0044,-5.3e-4 -0.0088,-0.001 -0.0132,-0.002 -0.0044,-5.3e-4 -0.0088,-10e-4 -0.01323,-10e-4 -0.0044,-5.3e-4 -0.0088,-7.9e-4 -0.0132,-0.001 -0.0044,-5.3e-4 -0.0088,-7.9e-4 -0.0132,-0.001 -0.0044,-5.3e-4 -0.0088,-8e-4 -0.01318,-0.001 -0.0044,-5.3e-4 -0.0087,-7.9e-4 -0.01307,-0.001 -0.0043,-5.3e-4 -0.0087,-7.9e-4 -0.01302,-0.001 -0.0043,-5.3e-4 -0.0086,-8e-4 -0.01294,-10e-4 -0.0043,-5.2e-4 -0.0085,-7.9e-4 -0.01281,-0.001 -0.0043,-2.6e-4 -0.0085,-7.9e-4 -0.01273,-0.001 -0.0042,-2.6e-4 -0.0085,-7.9e-4 -0.01273,-0.001 -0.0042,-2.7e-4 -0.0084,-8e-4 -0.01267,-0.001 -0.0042,-2.7e-4 -0.0084,-5.3e-4 -0.01262,-10e-4 -0.0042,-2.7e-4 -0.0084,-5.3e-4 -0.01262,-8e-4 -0.0042,-2.6e-4 -0.0083,-5.2e-4 -0.01246,-7.9e-4 -0.0041,-2.4e-4 -0.0083,-5.3e-4 -0.01236,-7.9e-4 -0.0041,-2.4e-4 -0.0082,-5.3e-4 -0.01228,-8e-4 -0.0041,-2.3e-4 -0.0082,-5.3e-4 -0.01225,-5.3e-4 -0.0041,-1.9e-4 -0.0081,-2.6e-4 -0.0122,-5.2e-4 -0.004,-1.9e-4 -0.008,-2.7e-4 -0.01209,-5.3e-4 -0.004,-1.6e-4 -0.008,-2.7e-4 -0.01196,-5.3e-4 -0.0039,-1.3e-4 -0.0079,-2.5e-4 -0.01185,-2.7e-4 -0.0039,-1.2e-4 -0.0078,-2.6e-4 -0.01172,-2.6e-4 -0.0039,-9e-5 -0.0078,-1.9e-4 -0.01164,-2.7e-4 -0.0038,-9e-5 -0.0076,-1.5e-4 -0.01148,-1.9e-4 -0.0038,-2e-5 -0.0076,-3e-5 -0.01135,0 -0.0038,2e-5 -0.0075,5e-5 -0.01127,1.1e-4 -0.0037,5e-5 -0.0074,1e-4 -0.01114,1.6e-4 -0.0037,7e-5 -0.0074,1.7e-4 -0.01106,2.6e-4 -0.0037,1e-4 -0.0073,2.1e-4 -0.01093,2.7e-4 -0.0036,1.4e-4 -0.0072,2.6e-4 -0.01085,5.3e-4 -0.0036,1.8e-4 -0.0072,2.6e-4 -0.01074,5.3e-4 -0.0036,2.3e-4 -0.0071,5.3e-4 -0.01069,7.9e-4 -0.0035,2.7e-4 -0.0071,5.3e-4 -0.01064,0.001 -0.0035,2.6e-4 -0.0071,7.9e-4 -0.01061,0.001 -0.0035,5.3e-4 -0.0071,0.001 -0.01066,0.002 -0.0035,5.3e-4 -0.007,0.001 -0.01053,0.002 -0.0035,5.3e-4 -0.007,0.001 -0.0105,0.002 -0.0035,7.9e-4 -0.007,0.001 -0.0104,0.002 -0.0034,7.9e-4 -0.0068,0.002 -0.01024,0.002 -0.0033,7.9e-4 -0.0067,0.002 -0.01,0.003 -0.0033,7.9e-4 -0.0065,0.002 -0.0098,0.003 -0.0032,0.001 -0.0063,0.002 -0.0095,0.003 -0.0031,10e-4 -0.0062,0.002 -0.0093,0.003 -0.003,0.001 -0.0061,0.002 -0.0091,0.003 -0.003,10e-4 -0.006,0.002 -0.009,0.003 -0.0029,0.001 -0.0058,0.002 -0.0088,0.003 -0.0029,0.001 -0.0057,0.002 -0.0086,0.003 -0.0028,0.001 -0.0056,0.002 -0.0084,0.003 -0.0028,0.001 -0.0055,0.002 -0.0083,0.003 -0.0027,0.001 -0.0053,0.002 -0.008,0.003 -0.0026,0.001 -0.0052,0.002 -0.0078,0.003 -0.0026,0.001 -0.0051,0.002 -0.0076,0.003 -0.0024,0.001 -0.005,0.002 -0.0075,0.003 -0.0024,0.001 -0.0048,0.002 -0.0072,0.003 -0.0024,0.001 -0.0047,0.002 -0.007,0.003 -0.0024,0.001 -0.0045,0.002 -0.0067,0.003 -0.0021,0.001 -0.0043,0.002 -0.0065,0.003 -0.0021,0.001 -0.0042,0.002 -0.0062,0.003 -0.0021,0.001 -0.004,0.002 -0.006,0.003 -0.0019,7.9e-4 -0.0038,0.002 -0.0058,0.003 -0.0019,7.9e-4 -0.0037,0.002 -0.0055,0.003 -0.0019,7.9e-4 -0.0034,0.002 -0.0052,0.002 -0.0016,7.9e-4 -0.0032,0.002 -0.0048,0.002 -0.0016,7.9e-4 -0.0031,0.002 -0.0046,0.002 -0.0013,7.9e-4 -0.0028,0.001 -0.0042,0.002 -0.0013,7.9e-4 -0.0026,10e-4 -0.0039,0.002 -0.0013,5.3e-4 -0.0024,0.001 -0.0036,0.002 -0.0011,5.2e-4 -0.0021,0.001 -0.0033,0.002 -0.0011,5.3e-4 -0.0019,10e-4 -0.0028,0.002 -7.94e-4,5.3e-4 -0.0016,0.001 -0.0026,0.002 -7.94e-4,5.3e-4 -0.0016,8e-4 -0.0021,0.001 -5.3e-4,2.6e-4 -0.0013,7.9e-4 -0.0019,0.001 -5.29e-4,2.7e-4 -0.0011,5.3e-4 -0.0016,8e-4 -5.29e-4,2.6e-4 -0.0011,5.3e-4 -0.0013,7.9e-4 0,0 0.217937,-0.14153 0.217937,-0.14153 z"
       inkscape:connector-curvature="0" />
    <path
       style="fill:#000000;fill-opacity:1;fill-rule:nonzero;stroke:none;stroke-width:2.06375003;stroke-linecap:butt;stroke-linejoin:miter;stroke-miterlimit:4;stroke-dasharray:none;stroke-dashoffset:0;stroke-opacity:1"
       id="path4706"
       d="m 86.17288,161.12915 c 2.25e-4,-1.4e-4 7.94e-4,-5.3e-4 7.94e-4,-5.3e-4 -0.07232,0.047 -0.144637,0.0939 -0.216961,0.14088 -5.29e-4,2.7e-4 0.0011,-7.9e-4 0.0013,-0.001 0.07298,-0.0474 0.14596,-0.0948 0.21894,-0.14217 0.0011,-5.3e-4 0.0019,-0.001 0.0029,-0.002 7.94e-4,-5.2e-4 0.0016,-10e-4 0.0026,-0.002 0.0011,-5.3e-4 0.0021,-0.001 0.003,-0.002 0.0011,-7.9e-4 0.0021,-0.001 0.0034,-0.002 0.0013,-8e-4 0.0024,-10e-4 0.0036,-0.002 0.0013,-7.9e-4 0.0026,-0.002 0.004,-0.002 0.0013,-7.9e-4 0.0029,-0.002 0.0043,-0.002 0.0016,-7.9e-4 0.0031,-0.002 0.0047,-0.002 0.0016,-7.9e-4 0.0033,-0.002 0.005,-0.002 0.0019,-7.9e-4 0.0035,-0.002 0.0053,-0.003 0.0019,-8e-4 0.0036,-0.002 0.0054,-0.003 0.0019,-7.9e-4 0.0038,-0.002 0.0057,-0.003 0.0019,-0.001 0.004,-0.002 0.006,-0.003 0.0021,-0.001 0.0042,-0.002 0.0062,-0.003 0.0021,-0.001 0.0043,-0.002 0.0065,-0.003 0.0021,-0.001 0.0044,-0.002 0.0067,-0.003 0.0024,-0.001 0.0047,-0.002 0.007,-0.003 0.0024,-0.001 0.0048,-0.002 0.0072,-0.003 0.0026,-0.001 0.0051,-0.002 0.0076,-0.003 0.0026,-0.001 0.0053,-0.002 0.0079,-0.003 0.0027,-0.001 0.0055,-0.002 0.0082,-0.003 0.0028,-0.001 0.0056,-0.002 0.0084,-0.003 0.0029,-0.001 0.0058,-0.002 0.0087,-0.003 0.003,-7.9e-4 0.006,-0.002 0.0089,-0.003 0.0031,-7.9e-4 0.0061,-0.002 0.0092,-0.003 0.0031,-8e-4 0.0063,-0.002 0.0094,-0.002 0.0032,-7.9e-4 0.0064,-0.002 0.0096,-0.002 0.0033,-7.9e-4 0.0065,-0.002 0.0098,-0.002 0.0033,-8e-4 0.0067,-0.001 0.01003,-0.002 0.0034,-7.9e-4 0.0067,-0.001 0.01011,-0.002 0.0034,-5.3e-4 0.0069,-0.001 0.01032,-0.002 0.0035,-5.3e-4 0.0069,-0.001 0.01042,-0.002 0.0035,-5.3e-4 0.0071,-0.001 0.01061,-0.002 0.0036,-5.3e-4 0.0071,-7.9e-4 0.01069,-0.001 0.0036,-5.3e-4 0.0072,-8e-4 0.01085,-0.001 0.0037,-2.7e-4 0.0073,-7.9e-4 0.01101,-0.001 0.0037,-2.6e-4 0.0075,-7.9e-4 0.01119,-10e-4 0.0038,-2.6e-4 0.0075,-5.3e-4 0.01127,-0.001 0.0038,-2.6e-4 0.0076,-5.2e-4 0.01148,-7.9e-4 0.0039,-2.6e-4 0.0078,-5.3e-4 0.01164,-7.9e-4 0.0039,-2.2e-4 0.0079,-5.3e-4 0.01177,-5.3e-4 0.004,-1.9e-4 0.008,-2.7e-4 0.01196,-5.3e-4 0.004,-1.4e-4 0.008,-2.6e-4 0.01209,-2.7e-4 0.0041,-1.1e-4 0.0082,-2.5e-4 0.01225,-2.6e-4 0.0041,-9e-5 0.0082,-1.7e-4 0.01228,-2.4e-4 0.0041,-9e-5 0.0083,-1.3e-4 0.01243,-1.7e-4 0.0042,-5e-5 0.0083,-7e-5 0.01251,-7e-5 0.0042,-1e-5 0.0084,0 0.01259,0 0.0042,10e-6 0.0084,5e-5 0.01262,9e-5 0.0042,4e-5 0.0084,7e-5 0.01267,1.1e-4 0.0043,2e-5 0.0085,8e-5 0.01278,1.4e-4 0.0043,8e-5 0.0086,1.3e-4 0.01286,2.2e-4 0.0043,9e-5 0.0086,2e-4 0.01291,2.6e-4 0.0043,1.1e-4 0.0086,2.7e-4 0.01294,5.3e-4 0.0043,1.6e-4 0.0087,2.7e-4 0.01302,5.3e-4 0.0043,1.9e-4 0.0087,5.3e-4 0.01304,8e-4 0.0044,2.6e-4 0.0088,5.2e-4 0.01315,7.9e-4 0.0044,2.6e-4 0.0088,5.3e-4 0.01315,7.9e-4 0.0044,2.7e-4 0.0089,5.3e-4 0.01328,0.001 0.0044,2.7e-4 0.0088,8e-4 0.01326,0.001 0.0045,2.6e-4 0.0089,7.9e-4 0.01339,10e-4 0.0045,2.6e-4 0.0089,7.9e-4 0.01341,0.001 0.0045,2.6e-4 0.0089,7.9e-4 0.01344,0.001 0.0045,2.7e-4 0.009,8e-4 0.01347,0.001 0.0045,5.3e-4 0.009,7.9e-4 0.01352,0.001 0.0045,5.3e-4 0.009,7.9e-4 0.01355,0.001 0.0046,5.3e-4 0.0091,8e-4 0.01365,10e-4 0.0046,5.3e-4 0.0092,0.001 0.01373,0.001 0.0046,5.3e-4 0.0092,0.001 0.01378,0.001 0.0046,5.3e-4 0.0092,0.001 0.01381,0.001 0.0046,5.2e-4 0.0092,7.9e-4 0.01386,0.001 0.0047,5.3e-4 0.0093,7.9e-4 0.01397,0.001 0.0047,5.3e-4 0.0093,7.9e-4 0.01402,10e-4 0.0047,5.3e-4 0.0094,8e-4 0.01413,0.001 0.0047,5.3e-4 0.0094,7.9e-4 0.01418,0.001 0.0047,2.6e-4 0.0095,7.9e-4 0.01423,0.001 0.0048,2.7e-4 0.0096,8e-4 0.01431,0.001 0.0048,2.7e-4 0.0095,8e-4 0.01426,0.001 0.0048,2.6e-4 0.0096,7.9e-4 0.01437,10e-4 0.0048,2.6e-4 0.0096,7.9e-4 0.01439,0.001 0.0048,2.6e-4 0.0097,7.9e-4 0.01447,0.001 0.0048,2.6e-4 0.0097,7.9e-4 0.01452,0.001 0.0049,2.7e-4 0.0097,5.3e-4 0.01458,0.001 0.0048,2.7e-4 0.0097,5.3e-4 0.01455,0.001 0.0049,2.6e-4 0.0097,5.3e-4 0.01458,7.9e-4 0.0049,2.7e-4 0.0098,5.3e-4 0.01466,8e-4 0.0049,2.6e-4 0.0098,5.3e-4 0.01469,7.9e-4 0.0049,2.7e-4 0.0098,5.3e-4 0.01476,8e-4 0.0049,2.6e-4 0.0098,5.2e-4 0.01479,7.9e-4 0.0049,2.5e-4 0.0099,5.3e-4 0.01479,7.9e-4 0.0049,2.6e-4 0.0098,5.3e-4 0.01474,8e-4 0.0049,2e-4 0.0098,2.6e-4 0.01471,5.3e-4 0.0049,1.5e-4 0.0098,2.6e-4 0.01466,5.2e-4 0.0049,1.2e-4 0.0098,2.3e-4 0.01463,2.7e-4 0.0049,1.1e-4 0.0098,2.1e-4 0.01466,2.6e-4 0.0049,9e-5 0.0098,1.1e-4 0.01463,1.4e-4 0.0049,3e-5 0.0098,6e-5 0.01466,5e-5 0.0049,1e-5 0.0097,-4e-5 0.01461,-9e-5 0.0048,-3e-5 0.0097,-1.1e-4 0.01452,-1.9e-4 0.0048,-9e-5 0.0097,-1.7e-4 0.01455,-2.5e-4 0.0048,-8e-5 0.0097,-2.2e-4 0.01447,-2.6e-4 0.0048,-1.5e-4 0.0096,-2.7e-4 0.01442,-5.3e-4 0.0048,-1.4e-4 0.0096,-2.7e-4 0.01442,-5.3e-4 0.0048,-1.7e-4 0.0096,-2.7e-4 0.01442,-5.3e-4 0.0048,-2e-4 0.0096,-5.3e-4 0.01437,-8e-4 0.0048,-2.2e-4 0.0096,-5.3e-4 0.01437,-7.9e-4 0.0048,-2.6e-4 0.0095,-5.3e-4 0.01429,-7.9e-4 0.0048,-2.7e-4 0.0095,-5.3e-4 0.01429,-8e-4 0.0047,-2.6e-4 0.0095,-7.9e-4 0.01418,-0.001 0.0047,-2.6e-4 0.0095,-7.9e-4 0.01421,-0.001 0.0047,-2.7e-4 0.0094,-8e-4 0.01416,-0.001 0.0047,-2.7e-4 0.0094,-8e-4 0.01413,-0.001 0.0047,-2.7e-4 0.0094,-7.9e-4 0.01408,-10e-4 0.0047,-5.3e-4 0.0093,-7.9e-4 0.01402,-0.001 0.0047,-5.3e-4 0.0093,-8e-4 0.014,-0.001 0.0047,-5.3e-4 0.0093,-0.001 0.01392,-0.002 0.0046,-5.3e-4 0.0092,-0.001 0.01381,-0.002 0.0046,-5.3e-4 0.0092,-0.001 0.01376,-0.002 0.0046,-5.3e-4 0.0092,-0.001 0.01373,-0.002 0.0046,-5.3e-4 0.0092,-10e-4 0.01376,-0.002 0.0046,-5.3e-4 0.0091,-0.001 0.01371,-0.002 0.0045,-5.3e-4 0.0091,-0.001 0.01363,-0.002 0.0045,-7.9e-4 0.0091,-10e-4 0.01368,-0.002 0.0045,-7.9e-4 0.0091,-0.002 0.01363,-0.002 0.0045,-7.9e-4 0.009,-0.002 0.01355,-0.002 0.0045,-7.9e-4 0.0089,-0.002 0.01342,-0.003 0.0045,-7.9e-4 0.0089,-0.002 0.01336,-0.003 0.0044,-7.9e-4 0.0089,-0.002 0.01336,-0.003 0.0044,-0.001 0.0089,-0.002 0.01334,-0.003 0.0044,-10e-4 0.0089,-0.002 0.01331,-0.003 0.0044,-0.001 0.0088,-0.002 0.01323,-0.003 0.0044,-10e-4 0.0088,-0.002 0.01318,-0.003 0.0043,-0.001 0.0087,-0.002 0.01299,-0.003 0.0043,-10e-4 0.0086,-0.002 0.01291,-0.003 0.0043,-0.001 0.0085,-0.002 0.01278,-0.004 0.0042,-0.001 0.0084,-0.002 0.01259,-0.004 0.0042,-0.001 0.0083,-0.003 0.01246,-0.004 0.0041,-0.001 0.0083,-0.003 0.01236,-0.004 0.0041,-0.001 0.0081,-0.003 0.0122,-0.004 0.004,-0.001 0.0081,-0.003 0.01209,-0.004 0.004,-0.001 0.008,-0.003 0.01199,-0.004 0.0039,-0.001 0.0079,-0.003 0.01183,-0.004 0.0039,-0.002 0.0078,-0.003 0.01164,-0.005 0.0038,-0.002 0.0077,-0.003 0.01151,-0.005 0.0038,-0.002 0.0076,-0.003 0.01135,-0.005 0.0037,-0.002 0.0075,-0.003 0.01119,-0.005 0.0037,-0.002 0.0074,-0.003 0.01117,-0.005 0.0037,-0.002 0.0074,-0.003 0.01103,-0.005 0.0037,-0.002 0.0073,-0.003 0.01101,-0.005 0.0037,-0.002 0.0074,-0.003 0.01106,-0.005 0.0037,-0.002 0.0073,-0.003 0.01098,-0.005 0.0037,-0.002 0.0073,-0.003 0.01101,-0.005 0.0037,-0.002 0.0073,-0.003 0.01095,-0.005 0.003,-0.001 0.006,-0.003 0.009,-0.004 0,0 -0.217937,0.14153 -0.217937,0.14153 v 0 c -0.003,10e-4 -0.006,0.003 -0.009,0.004 -0.0037,0.002 -0.0073,0.003 -0.01095,0.005 -0.0037,0.002 -0.0073,0.003 -0.01101,0.005 -0.0037,0.002 -0.0073,0.003 -0.01098,0.005 -0.0037,0.002 -0.0074,0.003 -0.01106,0.005 -0.0037,0.002 -0.0073,0.003 -0.01101,0.005 -0.0037,0.002 -0.0074,0.003 -0.01103,0.005 -0.0037,0.002 -0.0074,0.003 -0.01117,0.005 -0.0037,0.002 -0.0074,0.003 -0.01119,0.005 -0.0038,0.002 -0.0075,0.003 -0.01135,0.005 -0.0038,0.002 -0.0076,0.003 -0.01151,0.005 -0.0039,0.002 -0.0078,0.003 -0.01164,0.005 -0.0039,0.002 -0.0079,0.003 -0.01183,0.005 -0.004,0.002 -0.008,0.003 -0.01199,0.004 -0.004,0.001 -0.008,0.003 -0.01209,0.004 -0.004,0.001 -0.0081,0.003 -0.0122,0.004 -0.0041,0.001 -0.0082,0.003 -0.01236,0.004 -0.0042,0.001 -0.0083,0.003 -0.01246,0.004 -0.0042,0.001 -0.0084,0.003 -0.01259,0.004 -0.0043,0.001 -0.0085,0.002 -0.01278,0.004 -0.0043,0.001 -0.0086,0.002 -0.01291,0.004 -0.0043,0.001 -0.0087,0.002 -0.01299,0.003 -0.0044,0.001 -0.0088,0.002 -0.01318,0.003 -0.0044,0.001 -0.0088,0.002 -0.01323,0.003 -0.0044,0.001 -0.0089,0.002 -0.01331,0.003 -0.0044,0.001 -0.0089,0.002 -0.01333,0.003 -0.0044,0.001 -0.0089,0.002 -0.01336,0.003 -0.0044,7.9e-4 -0.0089,0.002 -0.01336,0.003 -0.0045,8e-4 -0.0089,0.002 -0.01341,0.003 -0.0045,7.9e-4 -0.009,0.002 -0.01355,0.002 -0.0045,7.9e-4 -0.0091,0.002 -0.01363,0.002 -0.0046,8e-4 -0.0091,0.002 -0.01368,0.002 -0.0046,7.9e-4 -0.0091,0.001 -0.01363,0.002 -0.0046,8e-4 -0.0091,0.001 -0.01371,0.002 -0.0046,5.3e-4 -0.0092,0.001 -0.01376,0.002 -0.0046,5.3e-4 -0.0092,0.001 -0.01373,0.002 -0.0046,5.3e-4 -0.0092,0.001 -0.01376,0.002 -0.0046,5.3e-4 -0.0092,0.001 -0.01381,0.002 -0.0046,5.3e-4 -0.0093,0.001 -0.01392,0.002 -0.0047,5.3e-4 -0.0093,8e-4 -0.014,0.001 -0.0047,5.3e-4 -0.0093,7.9e-4 -0.01402,0.001 -0.0047,5.3e-4 -0.0094,7.9e-4 -0.01408,0.001 -0.0047,2.6e-4 -0.0094,7.9e-4 -0.01413,10e-4 -0.0047,2.6e-4 -0.0094,7.9e-4 -0.01415,0.001 -0.0047,2.7e-4 -0.0095,8e-4 -0.01421,0.001 -0.0047,2.7e-4 -0.0095,8e-4 -0.01418,0.001 -0.0048,2.7e-4 -0.0095,5.3e-4 -0.01429,7.9e-4 -0.0048,2.7e-4 -0.0095,5.3e-4 -0.01429,8e-4 -0.0048,2.6e-4 -0.0096,5.3e-4 -0.01437,7.9e-4 -0.0048,2.4e-4 -0.0096,5.3e-4 -0.01437,8e-4 -0.0048,2e-4 -0.0096,5.3e-4 -0.01442,5.3e-4 -0.0048,1.7e-4 -0.0096,2.6e-4 -0.01442,5.2e-4 -0.0048,1.5e-4 -0.0096,2.7e-4 -0.01442,5.3e-4 -0.0048,1.5e-4 -0.0097,2.7e-4 -0.01447,2.7e-4 -0.0048,8e-5 -0.0097,1.6e-4 -0.01455,2.4e-4 -0.0048,8e-5 -0.0097,1.7e-4 -0.01453,2e-4 -0.0049,5e-5 -0.0097,1e-4 -0.01461,9e-5 -0.0049,0 -0.0098,-2e-5 -0.01466,-5e-5 -0.0049,-3e-5 -0.0098,-6e-5 -0.01463,-1.4e-4 -0.0049,-7e-5 -0.0098,-1.8e-4 -0.01466,-2.7e-4 -0.0049,-1e-4 -0.0098,-2.1e-4 -0.01463,-2.6e-4 -0.0049,-1.3e-4 -0.0098,-2.6e-4 -0.01466,-5.3e-4 -0.0049,-1.6e-4 -0.0098,-2.6e-4 -0.01471,-5.3e-4 -0.0049,-2e-4 -0.0098,-5.3e-4 -0.01474,-7.9e-4 -0.0049,-2.5e-4 -0.0099,-5.3e-4 -0.01479,-8e-4 -0.0049,-2.5e-4 -0.0098,-5.2e-4 -0.01479,-7.9e-4 -0.0049,-2.6e-4 -0.0098,-5.3e-4 -0.01476,-7.9e-4 -0.0049,-2.7e-4 -0.0098,-5.3e-4 -0.01468,-8e-4 -0.0049,-2.6e-4 -0.0098,-5.3e-4 -0.01466,-7.9e-4 -0.0049,-2.7e-4 -0.0097,-5.3e-4 -0.01458,-7.9e-4 -0.0048,-2.7e-4 -0.0097,-5.3e-4 -0.01455,-0.001 -0.0049,-2.7e-4 -0.0097,-5.3e-4 -0.01458,-0.001 -0.0048,-2.7e-4 -0.0097,-7.9e-4 -0.01453,-0.001 -0.0048,-2.6e-4 -0.0097,-7.9e-4 -0.01447,-0.001 -0.0048,-2.6e-4 -0.0096,-7.9e-4 -0.01439,-0.001 -0.0048,-2.6e-4 -0.0096,-7.9e-4 -0.01437,-10e-4 -0.0048,-2.7e-4 -0.0095,-8e-4 -0.01426,-0.001 -0.0048,-2.7e-4 -0.0096,-8e-4 -0.01431,-0.001 -0.0047,-2.7e-4 -0.0095,-7.9e-4 -0.01423,-0.001 -0.0047,-2.6e-4 -0.0094,-7.9e-4 -0.01418,-0.001 -0.0047,-5.3e-4 -0.0094,-7.9e-4 -0.01413,-0.001 -0.0047,-5.3e-4 -0.0093,-7.9e-4 -0.01402,-10e-4 -0.0047,-5.3e-4 -0.0093,-8e-4 -0.01397,-0.001 -0.0046,-5.3e-4 -0.0092,-7.9e-4 -0.01387,-0.001 -0.0046,-5.3e-4 -0.0092,-0.001 -0.01381,-0.001 -0.0046,-5.3e-4 -0.0092,-0.001 -0.01379,-0.001 -0.0046,-5.2e-4 -0.0092,-0.001 -0.01373,-0.001 -0.0046,-5.3e-4 -0.0091,-10e-4 -0.01365,-10e-4 -0.0045,-5.3e-4 -0.009,-7.9e-4 -0.01355,-0.001 -0.0045,-5.3e-4 -0.009,-8e-4 -0.01352,-0.001 -0.0045,-5.3e-4 -0.009,-7.9e-4 -0.01347,-0.001 -0.0045,-5.3e-4 -0.0089,-7.9e-4 -0.01344,-0.001 -0.0045,-2.6e-4 -0.0089,-7.9e-4 -0.01341,-10e-4 -0.0045,-2.6e-4 -0.0089,-7.9e-4 -0.01339,-0.001 -0.0044,-2.7e-4 -0.0088,-8e-4 -0.01326,-0.001 -0.0044,-2.7e-4 -0.0089,-5.3e-4 -0.01328,-0.001 -0.0044,-2.7e-4 -0.0088,-5.3e-4 -0.01315,-8e-4 -0.0044,-2.6e-4 -0.0088,-5.2e-4 -0.01315,-7.9e-4 -0.0043,-2.6e-4 -0.0087,-5.3e-4 -0.01304,-7.9e-4 -0.0043,-2e-4 -0.0087,-2.7e-4 -0.01302,-5.3e-4 -0.0043,-1.7e-4 -0.0086,-2.7e-4 -0.01294,-5.3e-4 -0.0043,-10e-5 -0.0086,-2e-4 -0.01291,-2.7e-4 -0.0043,-8e-5 -0.0086,-1.4e-4 -0.01286,-2.1e-4 -0.0043,-7e-5 -0.0085,-1.2e-4 -0.01278,-1.5e-4 -0.0042,-3e-5 -0.0084,-7e-5 -0.01267,-10e-5 -0.0042,-4e-5 -0.0084,-8e-5 -0.01262,-1e-4 -0.0042,0 -0.0084,0 -0.01259,0 -0.0042,1e-5 -0.0083,2e-5 -0.01252,7e-5 -0.0042,4e-5 -0.0083,8e-5 -0.01244,1.7e-4 -0.0041,8e-5 -0.0082,1.6e-4 -0.01228,2.5e-4 -0.0041,1e-4 -0.0082,2.3e-4 -0.01225,2.6e-4 -0.004,1.2e-4 -0.008,2.4e-4 -0.01209,2.6e-4 -0.004,1.5e-4 -0.008,2.7e-4 -0.01196,5.3e-4 -0.0039,2.1e-4 -0.0079,5.3e-4 -0.01177,5.3e-4 -0.0039,2.2e-4 -0.0078,5.3e-4 -0.01164,8e-4 -0.0038,2.6e-4 -0.0076,5.3e-4 -0.01148,7.9e-4 -0.0038,2.6e-4 -0.0075,5.3e-4 -0.01127,0.001 -0.0037,2.6e-4 -0.0075,7.9e-4 -0.01119,10e-4 -0.0037,2.6e-4 -0.0073,7.9e-4 -0.01101,0.001 -0.0036,2.6e-4 -0.0072,7.9e-4 -0.01085,0.001 -0.0036,5.3e-4 -0.0071,8e-4 -0.01069,0.001 -0.0035,5.3e-4 -0.0071,0.001 -0.01061,0.002 -0.0035,5.3e-4 -0.007,10e-4 -0.01043,0.002 -0.0034,5.3e-4 -0.0069,0.001 -0.01032,0.002 -0.0034,5.3e-4 -0.0067,0.001 -0.01013,0.002 -0.0034,5.2e-4 -0.0067,10e-4 -0.01003,0.002 -0.0033,8e-4 -0.0065,0.001 -0.0098,0.002 -0.0032,7.9e-4 -0.0064,0.002 -0.0096,0.002 -0.0031,7.9e-4 -0.0063,0.002 -0.0094,0.002 -0.0031,8e-4 -0.0061,0.002 -0.0092,0.003 -0.003,7.9e-4 -0.006,0.002 -0.0089,0.003 -0.0029,7.9e-4 -0.0058,0.002 -0.0087,0.003 -0.0028,0.001 -0.0056,0.002 -0.0084,0.003 -0.0027,0.001 -0.0054,0.002 -0.0082,0.003 -0.0026,0.001 -0.0053,0.002 -0.0079,0.003 -0.0026,0.001 -0.0051,0.002 -0.0076,0.003 -0.0024,8e-4 -0.0048,0.002 -0.0072,0.003 -0.0024,0.001 -0.0047,0.002 -0.007,0.003 -0.0021,0.001 -0.0045,0.002 -0.0067,0.003 -0.0021,0.001 -0.0043,0.002 -0.0065,0.003 -0.0021,0.001 -0.0042,0.002 -0.0062,0.003 -0.0019,0.001 -0.004,0.002 -0.006,0.003 -0.0019,8e-4 -0.0038,0.002 -0.0057,0.003 -0.0019,8e-4 -0.0036,0.002 -0.0054,0.003 -0.0019,7.9e-4 -0.0035,0.002 -0.0053,0.003 -0.0016,7.9e-4 -0.0033,0.002 -0.005,0.002 -0.0016,7.9e-4 -0.0031,0.002 -0.0047,0.002 -0.0013,7.9e-4 -0.0029,0.002 -0.0043,0.002 -0.0013,7.9e-4 -0.0026,0.002 -0.004,0.002 -0.0013,7.9e-4 -0.0024,0.001 -0.0036,0.002 -0.0011,5.3e-4 -0.0021,10e-4 -0.0034,0.002 -0.0011,5.3e-4 -0.0021,0.001 -0.003,0.002 -7.94e-4,5.3e-4 -0.0016,0.001 -0.0026,0.002 -0.0011,5.3e-4 -0.0019,10e-4 -0.0029,0.002 0.492242,-0.31969 0.08326,-0.054 -0.0041,0.003 0,0 0.217934,-0.14153 0.217934,-0.14153 z"
       inkscape:connector-curvature="0" />
    <path
       style="fill:#8dd1ff;fill-opacity:1;fill-rule:nonzero;stroke:none;stroke-width:2.06375003;stroke-linecap:butt;stroke-linejoin:miter;stroke-miterlimit:4;stroke-dasharray:none;stroke-dashoffset:0;stroke-opacity:1"
       d="m 85.937126,161.94392 c 0.08011,-0.0542 0.162103,-0.10552 0.24292,-0.15864 -0.07526,0.0489 -0.150521,0.0978 -0.22582,0.14664 0.144512,-0.0937 0.28913,-0.21037 0.46786,-0.22311 0.373511,-0.0562 0.746946,0.0421 1.121101,0.0275 0.116162,-0.007 0.233218,-0.0344 0.33408,-0.0942 -0.160961,0.10889 -0.332032,0.23148 -0.534516,0.23421 -0.255598,0.0145 -0.509267,-0.0314 -0.764268,-0.0401 -0.203477,-0.0108 -0.417009,-0.005 -0.604632,0.0818 0.05716,-0.0377 0.114641,-0.075 0.172614,-0.1114 -0.0511,0.0333 -0.165371,0.10763 -0.176461,0.11428 0.06345,-0.041 0.12658,-0.0825 0.190184,-0.12332 -0.07357,0.0499 -0.149803,0.0963 -0.223062,0.14637 z"
       id="path4710"
       inkscape:connector-curvature="0" />
  </g>
</svg>
